G04 #@! TF.GenerationSoftware,KiCad,Pcbnew,(7.0.0-rc1-70-g9298defd3f)*
G04 #@! TF.CreationDate,2023-01-17T15:38:26-05:00*
G04 #@! TF.ProjectId,snes_dejitter,736e6573-5f64-4656-9a69-747465722e6b,rev?*
G04 #@! TF.SameCoordinates,Original*
G04 #@! TF.FileFunction,Soldermask,Top*
G04 #@! TF.FilePolarity,Negative*
%FSLAX46Y46*%
G04 Gerber Fmt 4.6, Leading zero omitted, Abs format (unit mm)*
G04 Created by KiCad (PCBNEW (7.0.0-rc1-70-g9298defd3f)) date 2023-01-17 15:38:26*
%MOMM*%
%LPD*%
G01*
G04 APERTURE LIST*
G04 Aperture macros list*
%AMRoundRect*
0 Rectangle with rounded corners*
0 $1 Rounding radius*
0 $2 $3 $4 $5 $6 $7 $8 $9 X,Y pos of 4 corners*
0 Add a 4 corners polygon primitive as box body*
4,1,4,$2,$3,$4,$5,$6,$7,$8,$9,$2,$3,0*
0 Add four circle primitives for the rounded corners*
1,1,$1+$1,$2,$3*
1,1,$1+$1,$4,$5*
1,1,$1+$1,$6,$7*
1,1,$1+$1,$8,$9*
0 Add four rect primitives between the rounded corners*
20,1,$1+$1,$2,$3,$4,$5,0*
20,1,$1+$1,$4,$5,$6,$7,0*
20,1,$1+$1,$6,$7,$8,$9,0*
20,1,$1+$1,$8,$9,$2,$3,0*%
G04 Aperture macros list end*
%ADD10RoundRect,0.225000X0.250000X-0.225000X0.250000X0.225000X-0.250000X0.225000X-0.250000X-0.225000X0*%
%ADD11RoundRect,0.140000X-0.170000X0.140000X-0.170000X-0.140000X0.170000X-0.140000X0.170000X0.140000X0*%
%ADD12RoundRect,0.140000X-0.140000X-0.170000X0.140000X-0.170000X0.140000X0.170000X-0.140000X0.170000X0*%
%ADD13RoundRect,0.140000X0.170000X-0.140000X0.170000X0.140000X-0.170000X0.140000X-0.170000X-0.140000X0*%
%ADD14RoundRect,0.140000X0.140000X0.170000X-0.140000X0.170000X-0.140000X-0.170000X0.140000X-0.170000X0*%
%ADD15RoundRect,0.312500X-0.937500X-0.312500X0.937500X-0.312500X0.937500X0.312500X-0.937500X0.312500X0*%
%ADD16RoundRect,0.150000X0.150000X-0.587500X0.150000X0.587500X-0.150000X0.587500X-0.150000X-0.587500X0*%
%ADD17RoundRect,0.135000X-0.135000X-0.185000X0.135000X-0.185000X0.135000X0.185000X-0.135000X0.185000X0*%
%ADD18RoundRect,0.135000X0.135000X0.185000X-0.135000X0.185000X-0.135000X-0.185000X0.135000X-0.185000X0*%
%ADD19RoundRect,0.135000X0.185000X-0.135000X0.185000X0.135000X-0.185000X0.135000X-0.185000X-0.135000X0*%
%ADD20RoundRect,0.135000X-0.185000X0.135000X-0.185000X-0.135000X0.185000X-0.135000X0.185000X0.135000X0*%
%ADD21O,2.144000X0.700000*%
%ADD22O,0.700000X2.144000*%
%ADD23C,1.500000*%
%ADD24R,1.350000X1.350000*%
%ADD25O,1.350000X1.350000*%
%ADD26R,1.000000X1.000000*%
%ADD27RoundRect,0.112500X0.587500X0.112500X-0.587500X0.112500X-0.587500X-0.112500X0.587500X-0.112500X0*%
G04 APERTURE END LIST*
D10*
X21700000Y-15840041D03*
X21700000Y-14290041D03*
D11*
X44500000Y-25020000D03*
X44500000Y-25980000D03*
X24500000Y-27520000D03*
X24500000Y-28480000D03*
D12*
X38520000Y-34750000D03*
X39480000Y-34750000D03*
D13*
X15000000Y-24150000D03*
X15000000Y-23190000D03*
D11*
X15000000Y-20820000D03*
X15000000Y-21780000D03*
D12*
X33220000Y-14760629D03*
X34180000Y-14760629D03*
D14*
X52230000Y-35000000D03*
X51270000Y-35000000D03*
D15*
X14340000Y-15840000D03*
X14340000Y-14000000D03*
X14350000Y-35690000D03*
X14350000Y-31950000D03*
X14350000Y-33810000D03*
X14350000Y-30090000D03*
X55550000Y-29000000D03*
X55550000Y-27080000D03*
X55550000Y-31790000D03*
D16*
X48500000Y-29812500D03*
X49450000Y-31687500D03*
X47550000Y-31687500D03*
D17*
X28240000Y-34750000D03*
X29260000Y-34750000D03*
D18*
X35760000Y-34750000D03*
X34740000Y-34750000D03*
D17*
X37740000Y-14750000D03*
X38760000Y-14750000D03*
D19*
X14290000Y-27860000D03*
X14290000Y-26840000D03*
X22750000Y-23010000D03*
X22750000Y-21990000D03*
X22750000Y-20760000D03*
X22750000Y-19740000D03*
X45750000Y-32260000D03*
X45750000Y-31240000D03*
D20*
X48750000Y-33990000D03*
X48750000Y-35010000D03*
X50000000Y-33990000D03*
X50000000Y-35010000D03*
D18*
X52260000Y-33750000D03*
X51240000Y-33750000D03*
X51310000Y-25400000D03*
X50290000Y-25400000D03*
D19*
X54750000Y-21760000D03*
X54750000Y-20740000D03*
D21*
X26661999Y-31063999D03*
X26661999Y-29793999D03*
X26661999Y-28523999D03*
X26661999Y-27253999D03*
X26661999Y-25983999D03*
X26661999Y-24713999D03*
X26661999Y-23443999D03*
X26661999Y-22173999D03*
X26661999Y-20903999D03*
X26661999Y-19633999D03*
X26661999Y-18363999D03*
D22*
X28114999Y-16910999D03*
X29384999Y-16910999D03*
X30654999Y-16910999D03*
X31924999Y-16910999D03*
X33194999Y-16910999D03*
X34464999Y-16910999D03*
X35734999Y-16910999D03*
X37004999Y-16910999D03*
X38274999Y-16910999D03*
X39544999Y-16910999D03*
X40814999Y-16910999D03*
D21*
X42267999Y-18363999D03*
X42267999Y-19633999D03*
X42267999Y-20903999D03*
X42267999Y-22173999D03*
X42267999Y-23443999D03*
X42267999Y-24713999D03*
X42267999Y-25983999D03*
X42267999Y-27253999D03*
X42267999Y-28523999D03*
X42267999Y-29793999D03*
X42267999Y-31063999D03*
D22*
X40814999Y-32516999D03*
X39544999Y-32516999D03*
X38274999Y-32516999D03*
X37004999Y-32516999D03*
X35734999Y-32516999D03*
X34464999Y-32516999D03*
X33194999Y-32516999D03*
X31924999Y-32516999D03*
X30654999Y-32516999D03*
X29384999Y-32516999D03*
X28114999Y-32516999D03*
D23*
X19000000Y-24950000D03*
X19000000Y-20070000D03*
D24*
X45056999Y-14887999D03*
D25*
X47056999Y-14887999D03*
X49056999Y-14887999D03*
X51056999Y-14887999D03*
X53056999Y-14887999D03*
X55056999Y-14887999D03*
D26*
X54749999Y-24749999D03*
X54749999Y-23449999D03*
X54749999Y-33749999D03*
X54749999Y-35049999D03*
D20*
X23300000Y-33790000D03*
X23300000Y-34810000D03*
D18*
X51721073Y-17606863D03*
X52741073Y-17606863D03*
D26*
X54749999Y-17599999D03*
X54749999Y-18899999D03*
D27*
X49600000Y-19250000D03*
X46800000Y-19250000D03*
M02*
