M48
; DRILL file {KiCad (7.0.0-rc1-70-g9298defd3f)} date Tue Jan 17 15:38:28 2023
; FORMAT={-:-/ absolute / inch / decimal}
; #@! TF.CreationDate,2023-01-17T15:38:28-05:00
; #@! TF.GenerationSoftware,Kicad,Pcbnew,(7.0.0-rc1-70-g9298defd3f)
; #@! TF.FileFunction,Plated,1,2,PTH
FMAT,2
INCH
; #@! TA.AperFunction,Plated,PTH,ViaDrill
T1C0.0157
; #@! TA.AperFunction,Plated,PTH,ComponentDrill
T2C0.0315
%
G90
G05
T1
X0.5866Y-0.7165
X0.6063Y-1.0118
X0.6457Y-0.8858
X0.7441Y-1.3976
X0.7598Y-0.5591
X0.8031Y-1.3976
X0.8583Y-1.3976
X0.9409Y-0.689
X0.9488Y-0.5591
X0.9567Y-0.622
X0.9803Y-0.8307
X1.0157Y-1.2913
X1.0197Y-0.5591
X1.1319Y-1.2008
X1.1417Y-0.748
X1.2362Y-0.8622
X1.252Y-1.3701
X1.2874Y-1.0866
X1.4016Y-0.5669
X1.4075Y-1.2008
X1.4528Y-0.9449
X1.4803Y-1.1339
X1.4862Y-0.7343
X1.6378Y-0.5709
X1.6496Y-1.3976
X1.7953Y-0.6575
X1.8071Y-1.122
X1.8701Y-1.4055
X1.8819Y-0.6575
X1.9389Y-0.6933
X1.9882Y-1.1142
X2.063Y-0.9291
X2.1181Y-1.189
X2.1969Y-0.8031
T2
X0.748Y-0.7902
X0.748Y-0.9823
X1.7739Y-0.5861
X1.8526Y-0.5861
X1.9314Y-0.5861
X2.0101Y-0.5861
X2.0889Y-0.5861
X2.1676Y-0.5861
T0
M30
