G04 #@! TF.GenerationSoftware,KiCad,Pcbnew,(7.0.0-rc1-70-g9298defd3f)*
G04 #@! TF.CreationDate,2023-01-17T15:38:25-05:00*
G04 #@! TF.ProjectId,snes_dejitter,736e6573-5f64-4656-9a69-747465722e6b,rev?*
G04 #@! TF.SameCoordinates,Original*
G04 #@! TF.FileFunction,Copper,L2,Bot*
G04 #@! TF.FilePolarity,Positive*
%FSLAX46Y46*%
G04 Gerber Fmt 4.6, Leading zero omitted, Abs format (unit mm)*
G04 Created by KiCad (PCBNEW (7.0.0-rc1-70-g9298defd3f)) date 2023-01-17 15:38:25*
%MOMM*%
%LPD*%
G01*
G04 APERTURE LIST*
G04 #@! TA.AperFunction,ComponentPad*
%ADD10C,1.500000*%
G04 #@! TD*
G04 #@! TA.AperFunction,ComponentPad*
%ADD11R,1.350000X1.350000*%
G04 #@! TD*
G04 #@! TA.AperFunction,ComponentPad*
%ADD12O,1.350000X1.350000*%
G04 #@! TD*
G04 #@! TA.AperFunction,ViaPad*
%ADD13C,0.800000*%
G04 #@! TD*
G04 #@! TA.AperFunction,Conductor*
%ADD14C,0.300000*%
G04 #@! TD*
G04 APERTURE END LIST*
D10*
X19000000Y-24950000D03*
X19000000Y-20070000D03*
D11*
X45056999Y-14887999D03*
D12*
X47056999Y-14887999D03*
X49056999Y-14887999D03*
X51056999Y-14887999D03*
X53056999Y-14887999D03*
X55056999Y-14887999D03*
D13*
X47800000Y-16700000D03*
X49247366Y-17609812D03*
X52400000Y-23600000D03*
X15400000Y-25700000D03*
X23900000Y-17500000D03*
X24100000Y-14200000D03*
X24900000Y-21100000D03*
X37600000Y-28800000D03*
X47500000Y-35700000D03*
X55800000Y-20400000D03*
X45900000Y-28500000D03*
X50500000Y-28300000D03*
X53800000Y-30200000D03*
X25900000Y-14200000D03*
X14900000Y-18200000D03*
X19300000Y-14200000D03*
X35600000Y-14400000D03*
X41600000Y-14500000D03*
X45600000Y-16700000D03*
X24300000Y-15800000D03*
X16400000Y-22500000D03*
X25800000Y-32800000D03*
X21800000Y-35500000D03*
X20400000Y-35500000D03*
X18900000Y-35500000D03*
X31800000Y-34800000D03*
X41900000Y-35500000D03*
X31400000Y-21900000D03*
X36900000Y-24000000D03*
X32700000Y-27600000D03*
X37750000Y-18650500D03*
X35750000Y-30500000D03*
X28750000Y-30500000D03*
X29000000Y-19000000D03*
D14*
X29000000Y-19000000D02*
X29099500Y-18900500D01*
X37470656Y-17829344D02*
X49027834Y-17829344D01*
X49027834Y-17829344D02*
X49247366Y-17609812D01*
X29099500Y-18900500D02*
X36399500Y-18900500D01*
X36399500Y-18900500D02*
X37470656Y-17829344D01*
X45057000Y-14943000D02*
X45057000Y-14888000D01*
X42800000Y-17200000D02*
X45057000Y-14943000D01*
X37300000Y-17200000D02*
X42800000Y-17200000D01*
X28500000Y-18200000D02*
X36300000Y-18200000D01*
X26100000Y-15800000D02*
X28500000Y-18200000D01*
X24300000Y-15800000D02*
X26100000Y-15800000D01*
X36300000Y-18200000D02*
X37300000Y-17200000D01*
X29500000Y-30775000D02*
X29775000Y-30500000D01*
X29500000Y-30810661D02*
X29500000Y-30775000D01*
X28439339Y-31250000D02*
X29060661Y-31250000D01*
X28000000Y-30810661D02*
X28439339Y-31250000D01*
X28000000Y-21250000D02*
X28000000Y-30810661D01*
X29849500Y-19400500D02*
X28000000Y-21250000D01*
X29060661Y-31250000D02*
X29500000Y-30810661D01*
X49849500Y-19400500D02*
X29849500Y-19400500D01*
X51057000Y-14888000D02*
X51057000Y-18193000D01*
X29775000Y-30500000D02*
X35750000Y-30500000D01*
X51057000Y-18193000D02*
X49849500Y-19400500D01*
X28750000Y-21498741D02*
X28750000Y-30500000D01*
X30248741Y-20000000D02*
X28750000Y-21498741D01*
X50250000Y-20000000D02*
X30248741Y-20000000D01*
X53057000Y-17193000D02*
X50250000Y-20000000D01*
X53057000Y-14888000D02*
X53057000Y-17193000D01*
X49102836Y-14888000D02*
X49057000Y-14888000D01*
X50250000Y-16035164D02*
X49102836Y-14888000D01*
X50250000Y-18000000D02*
X50250000Y-16035164D01*
X49599500Y-18650500D02*
X50250000Y-18000000D01*
X37750000Y-18650500D02*
X49599500Y-18650500D01*
G04 #@! TA.AperFunction,Conductor*
G36*
X56900000Y-13083763D02*
G01*
X56936237Y-13120000D01*
X56949500Y-13169500D01*
X56949500Y-36550500D01*
X56936237Y-36600000D01*
X56900000Y-36636237D01*
X56850500Y-36649500D01*
X13049500Y-36649500D01*
X13000000Y-36636237D01*
X12963763Y-36600000D01*
X12950500Y-36550500D01*
X12950500Y-24950000D01*
X17844571Y-24950000D01*
X17864244Y-25162310D01*
X17865493Y-25166699D01*
X17865494Y-25166705D01*
X17921341Y-25362984D01*
X17921343Y-25362990D01*
X17922595Y-25367389D01*
X18017634Y-25558255D01*
X18020396Y-25561912D01*
X18143365Y-25724749D01*
X18143368Y-25724752D01*
X18146128Y-25728407D01*
X18303698Y-25872052D01*
X18484981Y-25984298D01*
X18683802Y-26061321D01*
X18893390Y-26100500D01*
X19102027Y-26100500D01*
X19106610Y-26100500D01*
X19316198Y-26061321D01*
X19515019Y-25984298D01*
X19696302Y-25872052D01*
X19853872Y-25728407D01*
X19982366Y-25558255D01*
X20077405Y-25367389D01*
X20135756Y-25162310D01*
X20155429Y-24950000D01*
X20135756Y-24737690D01*
X20077405Y-24532611D01*
X19982366Y-24341745D01*
X19853872Y-24171593D01*
X19696302Y-24027948D01*
X19692413Y-24025540D01*
X19692409Y-24025537D01*
X19581643Y-23956954D01*
X19515019Y-23915702D01*
X19474029Y-23899822D01*
X19320467Y-23840332D01*
X19320459Y-23840329D01*
X19316198Y-23838679D01*
X19311694Y-23837837D01*
X19111116Y-23800342D01*
X19111112Y-23800341D01*
X19106610Y-23799500D01*
X18893390Y-23799500D01*
X18888888Y-23800341D01*
X18888883Y-23800342D01*
X18688305Y-23837837D01*
X18688302Y-23837837D01*
X18683802Y-23838679D01*
X18679543Y-23840328D01*
X18679532Y-23840332D01*
X18489250Y-23914048D01*
X18489248Y-23914048D01*
X18484981Y-23915702D01*
X18481087Y-23918112D01*
X18481085Y-23918114D01*
X18307590Y-24025537D01*
X18307581Y-24025543D01*
X18303698Y-24027948D01*
X18300323Y-24031024D01*
X18300316Y-24031030D01*
X18149512Y-24168507D01*
X18149506Y-24168513D01*
X18146128Y-24171593D01*
X18143372Y-24175241D01*
X18143365Y-24175250D01*
X18020396Y-24338087D01*
X18017634Y-24341745D01*
X18015595Y-24345838D01*
X18015591Y-24345846D01*
X17924637Y-24528509D01*
X17924635Y-24528513D01*
X17922595Y-24532611D01*
X17921344Y-24537005D01*
X17921341Y-24537015D01*
X17865494Y-24733294D01*
X17865492Y-24733302D01*
X17864244Y-24737690D01*
X17844571Y-24950000D01*
X12950500Y-24950000D01*
X12950500Y-20070000D01*
X17844571Y-20070000D01*
X17864244Y-20282310D01*
X17865493Y-20286699D01*
X17865494Y-20286705D01*
X17921341Y-20482984D01*
X17921343Y-20482990D01*
X17922595Y-20487389D01*
X17924636Y-20491489D01*
X17924637Y-20491490D01*
X17957772Y-20558036D01*
X18017634Y-20678255D01*
X18020396Y-20681912D01*
X18143365Y-20844749D01*
X18143368Y-20844752D01*
X18146128Y-20848407D01*
X18149511Y-20851491D01*
X18149512Y-20851492D01*
X18241683Y-20935518D01*
X18303698Y-20992052D01*
X18307588Y-20994461D01*
X18307590Y-20994462D01*
X18335027Y-21011450D01*
X18484981Y-21104298D01*
X18642812Y-21165441D01*
X18648933Y-21167813D01*
X18683802Y-21181321D01*
X18893390Y-21220500D01*
X19102027Y-21220500D01*
X19106610Y-21220500D01*
X19316198Y-21181321D01*
X19515019Y-21104298D01*
X19696302Y-20992052D01*
X19853872Y-20848407D01*
X19982366Y-20678255D01*
X20077405Y-20487389D01*
X20135756Y-20282310D01*
X20155429Y-20070000D01*
X20135756Y-19857690D01*
X20077405Y-19652611D01*
X19982366Y-19461745D01*
X19853872Y-19291593D01*
X19696302Y-19147948D01*
X19692413Y-19145540D01*
X19692409Y-19145537D01*
X19581643Y-19076954D01*
X19515019Y-19035702D01*
X19422861Y-19000000D01*
X19320467Y-18960332D01*
X19320459Y-18960329D01*
X19316198Y-18958679D01*
X19311694Y-18957837D01*
X19111116Y-18920342D01*
X19111112Y-18920341D01*
X19106610Y-18919500D01*
X18893390Y-18919500D01*
X18888888Y-18920341D01*
X18888883Y-18920342D01*
X18688305Y-18957837D01*
X18688302Y-18957837D01*
X18683802Y-18958679D01*
X18679543Y-18960328D01*
X18679532Y-18960332D01*
X18489250Y-19034048D01*
X18489248Y-19034048D01*
X18484981Y-19035702D01*
X18481087Y-19038112D01*
X18481085Y-19038114D01*
X18307590Y-19145537D01*
X18307581Y-19145543D01*
X18303698Y-19147948D01*
X18300323Y-19151024D01*
X18300316Y-19151030D01*
X18149512Y-19288507D01*
X18149506Y-19288513D01*
X18146128Y-19291593D01*
X18143372Y-19295241D01*
X18143365Y-19295250D01*
X18020396Y-19458087D01*
X18017634Y-19461745D01*
X18015595Y-19465838D01*
X18015591Y-19465846D01*
X17924637Y-19648509D01*
X17924635Y-19648513D01*
X17922595Y-19652611D01*
X17921344Y-19657005D01*
X17921341Y-19657015D01*
X17865494Y-19853294D01*
X17865492Y-19853302D01*
X17864244Y-19857690D01*
X17844571Y-20070000D01*
X12950500Y-20070000D01*
X12950500Y-15800000D01*
X23494435Y-15800000D01*
X23495057Y-15805520D01*
X23514009Y-15973732D01*
X23514010Y-15973738D01*
X23514632Y-15979255D01*
X23574211Y-16149522D01*
X23670184Y-16302262D01*
X23797738Y-16429816D01*
X23950478Y-16525789D01*
X24120745Y-16585368D01*
X24300000Y-16605565D01*
X24479255Y-16585368D01*
X24649522Y-16525789D01*
X24802262Y-16429816D01*
X24852582Y-16379495D01*
X24884700Y-16358036D01*
X24922586Y-16350500D01*
X25830967Y-16350500D01*
X25868853Y-16358036D01*
X25900971Y-16379496D01*
X28102903Y-18581428D01*
X28105252Y-18583859D01*
X28149320Y-18631044D01*
X28155102Y-18634560D01*
X28185519Y-18653057D01*
X28193891Y-18658755D01*
X28197646Y-18661602D01*
X28224590Y-18692808D01*
X28236488Y-18732284D01*
X28231273Y-18773182D01*
X28216468Y-18815493D01*
X28216464Y-18815507D01*
X28214632Y-18820745D01*
X28214010Y-18826257D01*
X28214009Y-18826266D01*
X28199091Y-18958679D01*
X28194435Y-19000000D01*
X28195057Y-19005520D01*
X28214009Y-19173732D01*
X28214010Y-19173738D01*
X28214632Y-19179255D01*
X28216467Y-19184500D01*
X28216468Y-19184503D01*
X28255220Y-19295250D01*
X28274211Y-19349522D01*
X28370184Y-19502262D01*
X28497738Y-19629816D01*
X28502446Y-19632774D01*
X28603831Y-19696479D01*
X28641900Y-19740716D01*
X28648434Y-19798710D01*
X28621164Y-19850309D01*
X27618569Y-20852904D01*
X27616140Y-20855251D01*
X27573903Y-20894698D01*
X27573897Y-20894705D01*
X27568956Y-20899320D01*
X27565442Y-20905097D01*
X27565438Y-20905103D01*
X27546942Y-20935518D01*
X27541242Y-20943892D01*
X27519730Y-20972261D01*
X27519725Y-20972268D01*
X27515639Y-20977658D01*
X27513157Y-20983952D01*
X27508269Y-20996345D01*
X27500766Y-21011450D01*
X27493846Y-21022830D01*
X27493842Y-21022838D01*
X27490328Y-21028618D01*
X27488502Y-21035132D01*
X27488502Y-21035134D01*
X27478894Y-21069422D01*
X27475665Y-21079022D01*
X27462607Y-21112136D01*
X27462605Y-21112144D01*
X27460124Y-21118436D01*
X27459432Y-21125161D01*
X27459429Y-21125175D01*
X27458068Y-21138416D01*
X27454918Y-21154992D01*
X27451326Y-21167813D01*
X27451324Y-21167820D01*
X27449500Y-21174335D01*
X27449500Y-21181104D01*
X27449500Y-21216700D01*
X27448980Y-21226824D01*
X27444648Y-21268972D01*
X27445797Y-21275640D01*
X27445798Y-21275646D01*
X27448060Y-21288761D01*
X27449500Y-21305582D01*
X27449500Y-30799582D01*
X27449442Y-30802962D01*
X27447852Y-30849522D01*
X27447238Y-30867487D01*
X27448840Y-30874062D01*
X27448841Y-30874068D01*
X27457266Y-30908639D01*
X27459159Y-30918597D01*
X27464007Y-30953871D01*
X27464008Y-30953876D01*
X27464930Y-30960581D01*
X27467627Y-30966789D01*
X27472932Y-30979002D01*
X27478313Y-30995005D01*
X27480081Y-31002262D01*
X27483067Y-31014513D01*
X27486385Y-31020415D01*
X27486386Y-31020416D01*
X27503833Y-31051446D01*
X27508340Y-31060521D01*
X27525220Y-31099381D01*
X27529491Y-31104631D01*
X27529492Y-31104632D01*
X27537892Y-31114957D01*
X27547388Y-31128910D01*
X27557234Y-31146420D01*
X27562021Y-31151207D01*
X27562022Y-31151208D01*
X27587198Y-31176384D01*
X27593989Y-31183910D01*
X27620722Y-31216769D01*
X27633501Y-31225789D01*
X27637125Y-31228347D01*
X27650039Y-31239224D01*
X28042228Y-31631413D01*
X28044577Y-31633844D01*
X28088659Y-31681044D01*
X28124864Y-31703060D01*
X28133232Y-31708756D01*
X28161594Y-31730265D01*
X28161601Y-31730268D01*
X28166997Y-31734361D01*
X28173299Y-31736846D01*
X28185679Y-31741728D01*
X28200793Y-31749234D01*
X28217957Y-31759672D01*
X28224477Y-31761499D01*
X28224480Y-31761500D01*
X28243872Y-31766933D01*
X28258755Y-31771103D01*
X28268355Y-31774331D01*
X28307775Y-31789876D01*
X28327749Y-31791929D01*
X28344329Y-31795079D01*
X28363674Y-31800500D01*
X28406039Y-31800500D01*
X28416163Y-31801019D01*
X28458311Y-31805352D01*
X28478100Y-31801939D01*
X28494921Y-31800500D01*
X29049582Y-31800500D01*
X29052962Y-31800558D01*
X29117487Y-31802762D01*
X29158641Y-31792732D01*
X29168604Y-31790838D01*
X29210581Y-31785070D01*
X29229006Y-31777065D01*
X29245006Y-31771686D01*
X29247403Y-31771102D01*
X29264513Y-31766933D01*
X29301449Y-31746164D01*
X29310521Y-31741659D01*
X29349381Y-31724780D01*
X29364956Y-31712107D01*
X29378920Y-31702605D01*
X29396420Y-31692766D01*
X29426382Y-31662803D01*
X29433907Y-31656012D01*
X29466769Y-31629278D01*
X29478347Y-31612873D01*
X29489217Y-31599966D01*
X29881456Y-31207727D01*
X29883826Y-31205438D01*
X29931044Y-31161341D01*
X29953059Y-31125136D01*
X29958764Y-31116755D01*
X29979301Y-31089676D01*
X30014144Y-31060833D01*
X30058181Y-31050500D01*
X35127414Y-31050500D01*
X35165300Y-31058036D01*
X35197417Y-31079495D01*
X35247738Y-31129816D01*
X35400478Y-31225789D01*
X35570745Y-31285368D01*
X35750000Y-31305565D01*
X35929255Y-31285368D01*
X36099522Y-31225789D01*
X36252262Y-31129816D01*
X36379816Y-31002262D01*
X36475789Y-30849522D01*
X36535368Y-30679255D01*
X36555565Y-30500000D01*
X36535368Y-30320745D01*
X36475789Y-30150478D01*
X36379816Y-29997738D01*
X36252262Y-29870184D01*
X36099522Y-29774211D01*
X36094271Y-29772373D01*
X36094270Y-29772373D01*
X35934503Y-29716468D01*
X35934500Y-29716467D01*
X35929255Y-29714632D01*
X35923738Y-29714010D01*
X35923732Y-29714009D01*
X35755520Y-29695057D01*
X35750000Y-29694435D01*
X35744480Y-29695057D01*
X35576267Y-29714009D01*
X35576259Y-29714010D01*
X35570745Y-29714632D01*
X35565501Y-29716466D01*
X35565496Y-29716468D01*
X35405729Y-29772373D01*
X35405724Y-29772375D01*
X35400478Y-29774211D01*
X35395771Y-29777168D01*
X35395768Y-29777170D01*
X35252446Y-29867225D01*
X35252441Y-29867228D01*
X35247738Y-29870184D01*
X35243811Y-29874110D01*
X35243807Y-29874114D01*
X35197418Y-29920504D01*
X35165300Y-29941964D01*
X35127414Y-29949500D01*
X29786096Y-29949500D01*
X29782716Y-29949442D01*
X29724942Y-29947468D01*
X29724940Y-29947468D01*
X29718174Y-29947237D01*
X29711597Y-29948839D01*
X29711594Y-29948840D01*
X29677012Y-29957268D01*
X29667053Y-29959161D01*
X29631787Y-29964008D01*
X29631785Y-29964008D01*
X29625080Y-29964930D01*
X29618873Y-29967625D01*
X29618869Y-29967627D01*
X29606650Y-29972934D01*
X29590662Y-29978310D01*
X29577730Y-29981462D01*
X29577724Y-29981464D01*
X29571148Y-29983067D01*
X29565248Y-29986384D01*
X29565246Y-29986385D01*
X29534219Y-30003830D01*
X29525143Y-30008338D01*
X29492452Y-30022538D01*
X29450436Y-30030701D01*
X29408900Y-30020364D01*
X29380301Y-29997252D01*
X29379816Y-29997738D01*
X29329496Y-29947418D01*
X29308036Y-29915300D01*
X29300500Y-29877414D01*
X29300500Y-21767774D01*
X29308036Y-21729888D01*
X29329496Y-21697770D01*
X30447770Y-20579496D01*
X30479888Y-20558036D01*
X30517774Y-20550500D01*
X50238921Y-20550500D01*
X50242301Y-20550558D01*
X50306826Y-20552762D01*
X50347980Y-20542732D01*
X50357943Y-20540838D01*
X50399920Y-20535070D01*
X50418345Y-20527065D01*
X50434345Y-20521686D01*
X50435129Y-20521494D01*
X50453852Y-20516933D01*
X50490788Y-20496164D01*
X50499860Y-20491659D01*
X50500249Y-20491490D01*
X50538720Y-20474780D01*
X50554295Y-20462107D01*
X50568259Y-20452605D01*
X50585759Y-20442766D01*
X50615726Y-20412798D01*
X50623231Y-20406024D01*
X50656108Y-20379278D01*
X50667687Y-20362872D01*
X50678557Y-20349966D01*
X53438456Y-17590066D01*
X53440826Y-17587777D01*
X53488044Y-17543680D01*
X53510063Y-17507469D01*
X53515750Y-17499114D01*
X53541361Y-17465343D01*
X53548728Y-17446658D01*
X53556237Y-17431539D01*
X53566672Y-17414382D01*
X53578107Y-17373569D01*
X53581325Y-17363998D01*
X53596876Y-17324565D01*
X53598929Y-17304582D01*
X53602082Y-17287998D01*
X53604648Y-17278844D01*
X53607500Y-17268665D01*
X53607500Y-17226293D01*
X53608019Y-17216169D01*
X53612351Y-17174029D01*
X53608938Y-17154238D01*
X53607500Y-17137419D01*
X53607500Y-15867259D01*
X53620012Y-15819085D01*
X53654384Y-15783087D01*
X53704016Y-15752356D01*
X53704015Y-15752356D01*
X53707910Y-15749945D01*
X53855209Y-15615664D01*
X53975326Y-15456604D01*
X53975822Y-15456978D01*
X54008823Y-15425465D01*
X54057000Y-15412952D01*
X54105177Y-15425465D01*
X54138177Y-15456978D01*
X54138674Y-15456604D01*
X54258791Y-15615664D01*
X54406090Y-15749945D01*
X54575554Y-15854873D01*
X54579821Y-15856526D01*
X54579823Y-15856527D01*
X54757144Y-15925222D01*
X54757146Y-15925222D01*
X54761414Y-15926876D01*
X54957340Y-15963500D01*
X55152077Y-15963500D01*
X55156660Y-15963500D01*
X55352586Y-15926876D01*
X55538446Y-15854873D01*
X55707910Y-15749945D01*
X55855209Y-15615664D01*
X55975326Y-15456604D01*
X56064171Y-15278180D01*
X56118717Y-15086469D01*
X56137108Y-14888000D01*
X56118717Y-14689531D01*
X56064171Y-14497820D01*
X55975326Y-14319396D01*
X55855209Y-14160336D01*
X55707910Y-14026055D01*
X55704021Y-14023647D01*
X55704017Y-14023644D01*
X55600754Y-13959706D01*
X55538446Y-13921127D01*
X55534183Y-13919475D01*
X55534176Y-13919472D01*
X55356855Y-13850777D01*
X55356846Y-13850774D01*
X55352586Y-13849124D01*
X55348082Y-13848282D01*
X55161166Y-13813342D01*
X55161162Y-13813341D01*
X55156660Y-13812500D01*
X54957340Y-13812500D01*
X54952838Y-13813341D01*
X54952833Y-13813342D01*
X54765917Y-13848282D01*
X54765914Y-13848282D01*
X54761414Y-13849124D01*
X54757155Y-13850773D01*
X54757144Y-13850777D01*
X54579823Y-13919472D01*
X54579812Y-13919477D01*
X54575554Y-13921127D01*
X54571660Y-13923537D01*
X54571658Y-13923539D01*
X54409982Y-14023644D01*
X54409973Y-14023650D01*
X54406090Y-14026055D01*
X54402715Y-14029131D01*
X54402708Y-14029137D01*
X54262167Y-14157258D01*
X54258791Y-14160336D01*
X54256040Y-14163978D01*
X54256038Y-14163981D01*
X54141428Y-14315748D01*
X54141426Y-14315752D01*
X54140968Y-14316357D01*
X54140966Y-14316360D01*
X54138674Y-14319396D01*
X54138178Y-14319022D01*
X54105173Y-14350536D01*
X54057000Y-14363047D01*
X54008827Y-14350536D01*
X53975821Y-14319022D01*
X53975326Y-14319396D01*
X53855209Y-14160336D01*
X53707910Y-14026055D01*
X53704021Y-14023647D01*
X53704017Y-14023644D01*
X53600754Y-13959706D01*
X53538446Y-13921127D01*
X53534183Y-13919475D01*
X53534176Y-13919472D01*
X53356855Y-13850777D01*
X53356846Y-13850774D01*
X53352586Y-13849124D01*
X53348082Y-13848282D01*
X53161166Y-13813342D01*
X53161162Y-13813341D01*
X53156660Y-13812500D01*
X52957340Y-13812500D01*
X52952838Y-13813341D01*
X52952833Y-13813342D01*
X52765917Y-13848282D01*
X52765914Y-13848282D01*
X52761414Y-13849124D01*
X52757155Y-13850773D01*
X52757144Y-13850777D01*
X52579823Y-13919472D01*
X52579812Y-13919477D01*
X52575554Y-13921127D01*
X52571660Y-13923537D01*
X52571658Y-13923539D01*
X52409982Y-14023644D01*
X52409973Y-14023650D01*
X52406090Y-14026055D01*
X52402715Y-14029131D01*
X52402708Y-14029137D01*
X52262167Y-14157258D01*
X52258791Y-14160336D01*
X52256040Y-14163978D01*
X52256038Y-14163981D01*
X52141428Y-14315748D01*
X52141426Y-14315752D01*
X52140968Y-14316357D01*
X52140966Y-14316360D01*
X52138674Y-14319396D01*
X52138178Y-14319022D01*
X52105173Y-14350536D01*
X52057000Y-14363047D01*
X52008827Y-14350536D01*
X51975821Y-14319022D01*
X51975326Y-14319396D01*
X51855209Y-14160336D01*
X51707910Y-14026055D01*
X51704021Y-14023647D01*
X51704017Y-14023644D01*
X51600754Y-13959706D01*
X51538446Y-13921127D01*
X51534183Y-13919475D01*
X51534176Y-13919472D01*
X51356855Y-13850777D01*
X51356846Y-13850774D01*
X51352586Y-13849124D01*
X51348082Y-13848282D01*
X51161166Y-13813342D01*
X51161162Y-13813341D01*
X51156660Y-13812500D01*
X50957340Y-13812500D01*
X50952838Y-13813341D01*
X50952833Y-13813342D01*
X50765917Y-13848282D01*
X50765914Y-13848282D01*
X50761414Y-13849124D01*
X50757155Y-13850773D01*
X50757144Y-13850777D01*
X50579823Y-13919472D01*
X50579812Y-13919477D01*
X50575554Y-13921127D01*
X50571660Y-13923537D01*
X50571658Y-13923539D01*
X50409982Y-14023644D01*
X50409973Y-14023650D01*
X50406090Y-14026055D01*
X50402715Y-14029131D01*
X50402708Y-14029137D01*
X50262167Y-14157258D01*
X50258791Y-14160336D01*
X50256040Y-14163978D01*
X50256038Y-14163981D01*
X50141428Y-14315748D01*
X50141426Y-14315752D01*
X50140968Y-14316357D01*
X50140966Y-14316360D01*
X50138674Y-14319396D01*
X50138178Y-14319022D01*
X50105173Y-14350536D01*
X50057000Y-14363047D01*
X50008827Y-14350536D01*
X49975821Y-14319022D01*
X49975326Y-14319396D01*
X49855209Y-14160336D01*
X49707910Y-14026055D01*
X49704021Y-14023647D01*
X49704017Y-14023644D01*
X49600754Y-13959706D01*
X49538446Y-13921127D01*
X49534183Y-13919475D01*
X49534176Y-13919472D01*
X49356855Y-13850777D01*
X49356846Y-13850774D01*
X49352586Y-13849124D01*
X49348082Y-13848282D01*
X49161166Y-13813342D01*
X49161162Y-13813341D01*
X49156660Y-13812500D01*
X48957340Y-13812500D01*
X48952838Y-13813341D01*
X48952833Y-13813342D01*
X48765917Y-13848282D01*
X48765914Y-13848282D01*
X48761414Y-13849124D01*
X48757155Y-13850773D01*
X48757144Y-13850777D01*
X48579823Y-13919472D01*
X48579812Y-13919477D01*
X48575554Y-13921127D01*
X48571660Y-13923537D01*
X48571658Y-13923539D01*
X48409982Y-14023644D01*
X48409973Y-14023650D01*
X48406090Y-14026055D01*
X48402715Y-14029131D01*
X48402708Y-14029137D01*
X48262167Y-14157258D01*
X48258791Y-14160336D01*
X48256040Y-14163978D01*
X48256038Y-14163981D01*
X48141425Y-14315752D01*
X48141421Y-14315758D01*
X48140434Y-14317064D01*
X48140431Y-14317068D01*
X48138674Y-14319396D01*
X48138294Y-14319109D01*
X48104870Y-14351017D01*
X48056697Y-14363524D01*
X48008526Y-14351010D01*
X47975343Y-14319325D01*
X47974899Y-14319661D01*
X47972838Y-14316933D01*
X47972531Y-14316639D01*
X47972140Y-14316007D01*
X47857590Y-14164320D01*
X47851461Y-14157597D01*
X47710988Y-14029539D01*
X47703714Y-14024046D01*
X47542116Y-13923988D01*
X47533951Y-13919922D01*
X47356717Y-13851261D01*
X47347944Y-13848766D01*
X47325338Y-13844540D01*
X47314224Y-13845742D01*
X47311000Y-13856446D01*
X47311000Y-15919554D01*
X47314224Y-15930257D01*
X47325338Y-15931459D01*
X47347944Y-15927233D01*
X47356717Y-15924738D01*
X47533951Y-15856077D01*
X47542116Y-15852011D01*
X47703714Y-15751953D01*
X47710988Y-15746460D01*
X47851461Y-15618402D01*
X47857590Y-15611679D01*
X47972136Y-15459996D01*
X47972526Y-15459368D01*
X47972833Y-15459074D01*
X47974899Y-15456339D01*
X47975344Y-15456675D01*
X48008522Y-15424991D01*
X48056697Y-15412475D01*
X48104874Y-15424984D01*
X48138292Y-15456891D01*
X48138674Y-15456604D01*
X48258791Y-15615664D01*
X48406090Y-15749945D01*
X48575554Y-15854873D01*
X48579821Y-15856526D01*
X48579823Y-15856527D01*
X48757144Y-15925222D01*
X48757146Y-15925222D01*
X48761414Y-15926876D01*
X48957340Y-15963500D01*
X49152077Y-15963500D01*
X49156660Y-15963500D01*
X49310221Y-15934795D01*
X49357697Y-15937539D01*
X49398416Y-15962105D01*
X49670504Y-16234193D01*
X49691964Y-16266311D01*
X49699500Y-16304197D01*
X49699500Y-16780401D01*
X49688456Y-16825840D01*
X49657789Y-16861141D01*
X49614339Y-16878429D01*
X49567804Y-16873846D01*
X49426621Y-16824444D01*
X49421104Y-16823822D01*
X49421098Y-16823821D01*
X49252886Y-16804869D01*
X49247366Y-16804247D01*
X49241846Y-16804869D01*
X49073633Y-16823821D01*
X49073625Y-16823822D01*
X49068111Y-16824444D01*
X49062867Y-16826278D01*
X49062862Y-16826280D01*
X48903095Y-16882185D01*
X48903090Y-16882187D01*
X48897844Y-16884023D01*
X48893137Y-16886980D01*
X48893134Y-16886982D01*
X48749812Y-16977037D01*
X48749807Y-16977040D01*
X48745104Y-16979996D01*
X48741177Y-16983922D01*
X48741173Y-16983926D01*
X48621480Y-17103619D01*
X48621476Y-17103623D01*
X48617550Y-17107550D01*
X48614594Y-17112253D01*
X48614591Y-17112258D01*
X48539029Y-17232515D01*
X48503091Y-17266491D01*
X48455203Y-17278844D01*
X43738689Y-17278844D01*
X43683688Y-17262159D01*
X43647225Y-17217730D01*
X43641591Y-17160530D01*
X43668685Y-17109840D01*
X44786029Y-15992495D01*
X44818147Y-15971035D01*
X44856033Y-15963499D01*
X45759624Y-15963499D01*
X45763518Y-15963499D01*
X45857304Y-15948646D01*
X45970342Y-15891050D01*
X46060050Y-15801342D01*
X46117646Y-15688304D01*
X46118865Y-15680603D01*
X46119860Y-15677543D01*
X46145978Y-15636217D01*
X46188686Y-15612427D01*
X46237571Y-15611975D01*
X46280712Y-15634970D01*
X46403011Y-15746460D01*
X46410285Y-15751953D01*
X46571883Y-15852011D01*
X46580048Y-15856077D01*
X46757282Y-15924738D01*
X46766055Y-15927233D01*
X46788661Y-15931459D01*
X46799775Y-15930257D01*
X46803000Y-15919554D01*
X46803000Y-13856446D01*
X46799775Y-13845742D01*
X46788661Y-13844540D01*
X46766055Y-13848766D01*
X46757282Y-13851261D01*
X46580048Y-13919922D01*
X46571883Y-13923988D01*
X46410285Y-14024046D01*
X46403005Y-14029544D01*
X46280711Y-14141029D01*
X46237571Y-14164024D01*
X46188686Y-14163572D01*
X46145978Y-14139783D01*
X46119861Y-14098457D01*
X46118864Y-14095390D01*
X46117646Y-14087696D01*
X46060050Y-13974658D01*
X45970342Y-13884950D01*
X45857304Y-13827354D01*
X45849610Y-13826135D01*
X45849609Y-13826135D01*
X45767365Y-13813109D01*
X45767363Y-13813108D01*
X45763519Y-13812500D01*
X45759625Y-13812500D01*
X44354376Y-13812500D01*
X44354363Y-13812500D01*
X44350482Y-13812501D01*
X44346640Y-13813109D01*
X44346633Y-13813110D01*
X44264389Y-13826135D01*
X44264385Y-13826136D01*
X44256696Y-13827354D01*
X44249760Y-13830887D01*
X44249757Y-13830889D01*
X44150597Y-13881414D01*
X44150595Y-13881415D01*
X44143658Y-13884950D01*
X44138154Y-13890453D01*
X44138151Y-13890456D01*
X44059456Y-13969151D01*
X44059453Y-13969154D01*
X44053950Y-13974658D01*
X44050415Y-13981595D01*
X44050414Y-13981597D01*
X43999890Y-14080755D01*
X43999888Y-14080758D01*
X43996354Y-14087696D01*
X43995135Y-14095387D01*
X43995135Y-14095390D01*
X43984265Y-14164024D01*
X43981500Y-14181481D01*
X43981500Y-14185374D01*
X43981500Y-15198966D01*
X43973964Y-15236852D01*
X43952504Y-15268970D01*
X42600971Y-16620504D01*
X42568853Y-16641964D01*
X42530967Y-16649500D01*
X37311109Y-16649500D01*
X37307729Y-16649442D01*
X37249944Y-16647468D01*
X37249942Y-16647468D01*
X37243174Y-16647237D01*
X37236596Y-16648839D01*
X37236595Y-16648840D01*
X37202009Y-16657268D01*
X37192055Y-16659160D01*
X37156787Y-16664008D01*
X37156786Y-16664008D01*
X37150080Y-16664930D01*
X37143868Y-16667627D01*
X37143864Y-16667629D01*
X37131653Y-16672932D01*
X37115666Y-16678308D01*
X37102731Y-16681461D01*
X37102727Y-16681462D01*
X37096148Y-16683066D01*
X37090248Y-16686383D01*
X37090241Y-16686386D01*
X37059206Y-16703836D01*
X37050132Y-16708343D01*
X37011280Y-16725220D01*
X37006029Y-16729491D01*
X37006022Y-16729496D01*
X36995698Y-16737895D01*
X36981751Y-16747388D01*
X36970141Y-16753916D01*
X36970139Y-16753917D01*
X36964241Y-16757234D01*
X36959456Y-16762018D01*
X36959449Y-16762024D01*
X36934276Y-16787196D01*
X36926755Y-16793983D01*
X36899149Y-16816443D01*
X36899141Y-16816451D01*
X36893892Y-16820722D01*
X36889989Y-16826250D01*
X36889986Y-16826254D01*
X36882311Y-16837127D01*
X36871438Y-16850034D01*
X36100971Y-17620503D01*
X36068853Y-17641964D01*
X36030967Y-17649500D01*
X28769033Y-17649500D01*
X28731147Y-17641964D01*
X28699029Y-17620504D01*
X26497095Y-15418570D01*
X26494746Y-15416139D01*
X26455302Y-15373904D01*
X26455298Y-15373901D01*
X26450680Y-15368956D01*
X26414485Y-15346945D01*
X26406105Y-15341242D01*
X26372342Y-15315639D01*
X26366044Y-15313155D01*
X26366042Y-15313154D01*
X26353653Y-15308268D01*
X26338539Y-15300761D01*
X26337793Y-15300307D01*
X26321382Y-15290328D01*
X26280584Y-15278896D01*
X26270980Y-15275667D01*
X26237856Y-15262605D01*
X26237855Y-15262604D01*
X26231564Y-15260124D01*
X26224833Y-15259431D01*
X26224826Y-15259430D01*
X26211576Y-15258067D01*
X26195002Y-15254917D01*
X26182188Y-15251327D01*
X26182184Y-15251326D01*
X26175665Y-15249500D01*
X26168892Y-15249500D01*
X26133300Y-15249500D01*
X26123176Y-15248981D01*
X26087763Y-15245340D01*
X26087760Y-15245340D01*
X26081028Y-15244648D01*
X26074359Y-15245797D01*
X26074353Y-15245798D01*
X26061239Y-15248060D01*
X26044418Y-15249500D01*
X24922586Y-15249500D01*
X24884700Y-15241964D01*
X24852582Y-15220504D01*
X24806192Y-15174114D01*
X24806191Y-15174113D01*
X24802262Y-15170184D01*
X24649522Y-15074211D01*
X24644271Y-15072373D01*
X24644270Y-15072373D01*
X24484503Y-15016468D01*
X24484500Y-15016467D01*
X24479255Y-15014632D01*
X24473738Y-15014010D01*
X24473732Y-15014009D01*
X24305520Y-14995057D01*
X24300000Y-14994435D01*
X24294480Y-14995057D01*
X24126267Y-15014009D01*
X24126259Y-15014010D01*
X24120745Y-15014632D01*
X24115501Y-15016466D01*
X24115496Y-15016468D01*
X23955729Y-15072373D01*
X23955724Y-15072375D01*
X23950478Y-15074211D01*
X23945771Y-15077168D01*
X23945768Y-15077170D01*
X23802446Y-15167225D01*
X23802441Y-15167228D01*
X23797738Y-15170184D01*
X23793811Y-15174110D01*
X23793807Y-15174114D01*
X23674114Y-15293807D01*
X23674110Y-15293811D01*
X23670184Y-15297738D01*
X23667228Y-15302441D01*
X23667225Y-15302446D01*
X23577170Y-15445768D01*
X23574211Y-15450478D01*
X23572375Y-15455724D01*
X23572373Y-15455729D01*
X23516468Y-15615496D01*
X23516466Y-15615501D01*
X23514632Y-15620745D01*
X23514010Y-15626259D01*
X23514009Y-15626267D01*
X23499803Y-15752355D01*
X23494435Y-15800000D01*
X12950500Y-15800000D01*
X12950500Y-13169500D01*
X12963763Y-13120000D01*
X13000000Y-13083763D01*
X13049500Y-13070500D01*
X56850500Y-13070500D01*
X56900000Y-13083763D01*
G37*
G04 #@! TD.AperFunction*
M02*
