G04 #@! TF.GenerationSoftware,KiCad,Pcbnew,(7.0.0-rc1-70-g9298defd3f)*
G04 #@! TF.CreationDate,2023-01-17T15:38:25-05:00*
G04 #@! TF.ProjectId,snes_dejitter,736e6573-5f64-4656-9a69-747465722e6b,rev?*
G04 #@! TF.SameCoordinates,Original*
G04 #@! TF.FileFunction,Copper,L1,Top*
G04 #@! TF.FilePolarity,Positive*
%FSLAX46Y46*%
G04 Gerber Fmt 4.6, Leading zero omitted, Abs format (unit mm)*
G04 Created by KiCad (PCBNEW (7.0.0-rc1-70-g9298defd3f)) date 2023-01-17 15:38:25*
%MOMM*%
%LPD*%
G01*
G04 APERTURE LIST*
G04 Aperture macros list*
%AMRoundRect*
0 Rectangle with rounded corners*
0 $1 Rounding radius*
0 $2 $3 $4 $5 $6 $7 $8 $9 X,Y pos of 4 corners*
0 Add a 4 corners polygon primitive as box body*
4,1,4,$2,$3,$4,$5,$6,$7,$8,$9,$2,$3,0*
0 Add four circle primitives for the rounded corners*
1,1,$1+$1,$2,$3*
1,1,$1+$1,$4,$5*
1,1,$1+$1,$6,$7*
1,1,$1+$1,$8,$9*
0 Add four rect primitives between the rounded corners*
20,1,$1+$1,$2,$3,$4,$5,0*
20,1,$1+$1,$4,$5,$6,$7,0*
20,1,$1+$1,$6,$7,$8,$9,0*
20,1,$1+$1,$8,$9,$2,$3,0*%
G04 Aperture macros list end*
G04 #@! TA.AperFunction,SMDPad,CuDef*
%ADD10RoundRect,0.225000X0.250000X-0.225000X0.250000X0.225000X-0.250000X0.225000X-0.250000X-0.225000X0*%
G04 #@! TD*
G04 #@! TA.AperFunction,SMDPad,CuDef*
%ADD11RoundRect,0.140000X-0.170000X0.140000X-0.170000X-0.140000X0.170000X-0.140000X0.170000X0.140000X0*%
G04 #@! TD*
G04 #@! TA.AperFunction,SMDPad,CuDef*
%ADD12RoundRect,0.140000X-0.140000X-0.170000X0.140000X-0.170000X0.140000X0.170000X-0.140000X0.170000X0*%
G04 #@! TD*
G04 #@! TA.AperFunction,SMDPad,CuDef*
%ADD13RoundRect,0.140000X0.170000X-0.140000X0.170000X0.140000X-0.170000X0.140000X-0.170000X-0.140000X0*%
G04 #@! TD*
G04 #@! TA.AperFunction,SMDPad,CuDef*
%ADD14RoundRect,0.140000X0.140000X0.170000X-0.140000X0.170000X-0.140000X-0.170000X0.140000X-0.170000X0*%
G04 #@! TD*
G04 #@! TA.AperFunction,SMDPad,CuDef*
%ADD15RoundRect,0.312500X-0.937500X-0.312500X0.937500X-0.312500X0.937500X0.312500X-0.937500X0.312500X0*%
G04 #@! TD*
G04 #@! TA.AperFunction,SMDPad,CuDef*
%ADD16RoundRect,0.150000X0.150000X-0.587500X0.150000X0.587500X-0.150000X0.587500X-0.150000X-0.587500X0*%
G04 #@! TD*
G04 #@! TA.AperFunction,SMDPad,CuDef*
%ADD17RoundRect,0.135000X-0.135000X-0.185000X0.135000X-0.185000X0.135000X0.185000X-0.135000X0.185000X0*%
G04 #@! TD*
G04 #@! TA.AperFunction,SMDPad,CuDef*
%ADD18RoundRect,0.135000X0.135000X0.185000X-0.135000X0.185000X-0.135000X-0.185000X0.135000X-0.185000X0*%
G04 #@! TD*
G04 #@! TA.AperFunction,SMDPad,CuDef*
%ADD19RoundRect,0.135000X0.185000X-0.135000X0.185000X0.135000X-0.185000X0.135000X-0.185000X-0.135000X0*%
G04 #@! TD*
G04 #@! TA.AperFunction,SMDPad,CuDef*
%ADD20RoundRect,0.135000X-0.185000X0.135000X-0.185000X-0.135000X0.185000X-0.135000X0.185000X0.135000X0*%
G04 #@! TD*
G04 #@! TA.AperFunction,SMDPad,CuDef*
%ADD21O,2.144000X0.700000*%
G04 #@! TD*
G04 #@! TA.AperFunction,SMDPad,CuDef*
%ADD22O,0.700000X2.144000*%
G04 #@! TD*
G04 #@! TA.AperFunction,ComponentPad*
%ADD23C,1.500000*%
G04 #@! TD*
G04 #@! TA.AperFunction,ComponentPad*
%ADD24R,1.350000X1.350000*%
G04 #@! TD*
G04 #@! TA.AperFunction,ComponentPad*
%ADD25O,1.350000X1.350000*%
G04 #@! TD*
G04 #@! TA.AperFunction,SMDPad,CuDef*
%ADD26R,1.000000X1.000000*%
G04 #@! TD*
G04 #@! TA.AperFunction,SMDPad,CuDef*
%ADD27RoundRect,0.112500X0.587500X0.112500X-0.587500X0.112500X-0.587500X-0.112500X0.587500X-0.112500X0*%
G04 #@! TD*
G04 #@! TA.AperFunction,ViaPad*
%ADD28C,0.800000*%
G04 #@! TD*
G04 #@! TA.AperFunction,Conductor*
%ADD29C,0.300000*%
G04 #@! TD*
G04 #@! TA.AperFunction,Conductor*
%ADD30C,0.350000*%
G04 #@! TD*
G04 #@! TA.AperFunction,Conductor*
%ADD31C,0.450000*%
G04 #@! TD*
G04 #@! TA.AperFunction,Conductor*
%ADD32C,0.500000*%
G04 #@! TD*
G04 #@! TA.AperFunction,Conductor*
%ADD33C,0.700000*%
G04 #@! TD*
G04 #@! TA.AperFunction,Conductor*
%ADD34C,0.250000*%
G04 #@! TD*
G04 #@! TA.AperFunction,Conductor*
%ADD35C,0.200000*%
G04 #@! TD*
G04 APERTURE END LIST*
D10*
X21700000Y-15840041D03*
X21700000Y-14290041D03*
D11*
X44500000Y-25020000D03*
X44500000Y-25980000D03*
X24500000Y-27520000D03*
X24500000Y-28480000D03*
D12*
X38520000Y-34750000D03*
X39480000Y-34750000D03*
D13*
X15000000Y-24150000D03*
X15000000Y-23190000D03*
D11*
X15000000Y-20820000D03*
X15000000Y-21780000D03*
D12*
X33220000Y-14760629D03*
X34180000Y-14760629D03*
D14*
X52230000Y-35000000D03*
X51270000Y-35000000D03*
D15*
X14340000Y-15840000D03*
X14340000Y-14000000D03*
X14350000Y-35690000D03*
X14350000Y-31950000D03*
X14350000Y-33810000D03*
X14350000Y-30090000D03*
X55550000Y-29000000D03*
X55550000Y-27080000D03*
X55550000Y-31790000D03*
D16*
X48500000Y-29812500D03*
X49450000Y-31687500D03*
X47550000Y-31687500D03*
D17*
X28240000Y-34750000D03*
X29260000Y-34750000D03*
D18*
X35760000Y-34750000D03*
X34740000Y-34750000D03*
D17*
X37740000Y-14750000D03*
X38760000Y-14750000D03*
D19*
X14290000Y-27860000D03*
X14290000Y-26840000D03*
X22750000Y-23010000D03*
X22750000Y-21990000D03*
X22750000Y-20760000D03*
X22750000Y-19740000D03*
X45750000Y-32260000D03*
X45750000Y-31240000D03*
D20*
X48750000Y-33990000D03*
X48750000Y-35010000D03*
X50000000Y-33990000D03*
X50000000Y-35010000D03*
D18*
X52260000Y-33750000D03*
X51240000Y-33750000D03*
X51310000Y-25400000D03*
X50290000Y-25400000D03*
D19*
X54750000Y-21760000D03*
X54750000Y-20740000D03*
D21*
X26661999Y-31063999D03*
X26661999Y-29793999D03*
X26661999Y-28523999D03*
X26661999Y-27253999D03*
X26661999Y-25983999D03*
X26661999Y-24713999D03*
X26661999Y-23443999D03*
X26661999Y-22173999D03*
X26661999Y-20903999D03*
X26661999Y-19633999D03*
X26661999Y-18363999D03*
D22*
X28114999Y-16910999D03*
X29384999Y-16910999D03*
X30654999Y-16910999D03*
X31924999Y-16910999D03*
X33194999Y-16910999D03*
X34464999Y-16910999D03*
X35734999Y-16910999D03*
X37004999Y-16910999D03*
X38274999Y-16910999D03*
X39544999Y-16910999D03*
X40814999Y-16910999D03*
D21*
X42267999Y-18363999D03*
X42267999Y-19633999D03*
X42267999Y-20903999D03*
X42267999Y-22173999D03*
X42267999Y-23443999D03*
X42267999Y-24713999D03*
X42267999Y-25983999D03*
X42267999Y-27253999D03*
X42267999Y-28523999D03*
X42267999Y-29793999D03*
X42267999Y-31063999D03*
D22*
X40814999Y-32516999D03*
X39544999Y-32516999D03*
X38274999Y-32516999D03*
X37004999Y-32516999D03*
X35734999Y-32516999D03*
X34464999Y-32516999D03*
X33194999Y-32516999D03*
X31924999Y-32516999D03*
X30654999Y-32516999D03*
X29384999Y-32516999D03*
X28114999Y-32516999D03*
D23*
X19000000Y-24950000D03*
X19000000Y-20070000D03*
D24*
X45056999Y-14887999D03*
D25*
X47056999Y-14887999D03*
X49056999Y-14887999D03*
X51056999Y-14887999D03*
X53056999Y-14887999D03*
X55056999Y-14887999D03*
D26*
X54749999Y-24749999D03*
X54749999Y-23449999D03*
X54749999Y-33749999D03*
X54749999Y-35049999D03*
D20*
X23300000Y-33790000D03*
X23300000Y-34810000D03*
D18*
X51721073Y-17606863D03*
X52741073Y-17606863D03*
D26*
X54749999Y-17599999D03*
X54749999Y-18899999D03*
D27*
X49600000Y-19250000D03*
X46800000Y-19250000D03*
D28*
X47800000Y-16700000D03*
X49247366Y-17609812D03*
X52400000Y-23600000D03*
X15400000Y-25700000D03*
X23900000Y-17500000D03*
X24100000Y-14200000D03*
X24900000Y-21100000D03*
X37600000Y-28800000D03*
X47500000Y-35700000D03*
X55800000Y-20400000D03*
X45900000Y-28500000D03*
X50500000Y-28300000D03*
X53800000Y-30200000D03*
X25900000Y-14200000D03*
X14900000Y-18200000D03*
X19300000Y-14200000D03*
X35600000Y-14400000D03*
X41600000Y-14500000D03*
X45600000Y-16700000D03*
X24300000Y-15800000D03*
X16400000Y-22500000D03*
X25800000Y-32800000D03*
X21800000Y-35500000D03*
X20400000Y-35500000D03*
X18900000Y-35500000D03*
X31800000Y-34800000D03*
X41900000Y-35500000D03*
X31400000Y-21900000D03*
X36900000Y-24000000D03*
X32700000Y-27600000D03*
X37750000Y-18650500D03*
X35750000Y-30500000D03*
X28750000Y-30500000D03*
X29000000Y-19000000D03*
D29*
X49250315Y-17606863D02*
X51721073Y-17606863D01*
X49247366Y-17609812D02*
X49250315Y-17606863D01*
D30*
X53697686Y-19250000D02*
X54047686Y-18900000D01*
X49600000Y-19250000D02*
X53697686Y-19250000D01*
X54047686Y-18900000D02*
X55000000Y-18900000D01*
X54743137Y-17606863D02*
X54750000Y-17600000D01*
X52741073Y-17606863D02*
X54743137Y-17606863D01*
D31*
X40286000Y-20986000D02*
X40286000Y-24700000D01*
X37075500Y-19475500D02*
X38775500Y-19475500D01*
X36295000Y-18695000D02*
X37075500Y-19475500D01*
X38775500Y-19475500D02*
X40286000Y-20986000D01*
X33195000Y-18695000D02*
X36295000Y-18695000D01*
X38275000Y-30825000D02*
X38275000Y-32517000D01*
X40286000Y-28814000D02*
X38275000Y-30825000D01*
X40286000Y-24700000D02*
X40286000Y-28814000D01*
X40300000Y-24714000D02*
X42268000Y-24714000D01*
X40286000Y-24700000D02*
X40300000Y-24714000D01*
X33195000Y-18695000D02*
X33195000Y-16911000D01*
D32*
X26400000Y-15800000D02*
X24300000Y-15800000D01*
X27453701Y-14746299D02*
X26400000Y-15800000D01*
X33205670Y-14746299D02*
X27453701Y-14746299D01*
X33220000Y-14760629D02*
X33205670Y-14746299D01*
X33195000Y-14785629D02*
X33220000Y-14760629D01*
X33195000Y-16911000D02*
X33195000Y-14785629D01*
D33*
X24259959Y-15840041D02*
X24300000Y-15800000D01*
X21700000Y-15840041D02*
X24259959Y-15840041D01*
D29*
X48750000Y-33319546D02*
X47550000Y-32119546D01*
X48750000Y-33990000D02*
X48750000Y-33319546D01*
X47550000Y-32119546D02*
X47550000Y-31687500D01*
X46197500Y-31687500D02*
X47550000Y-31687500D01*
X45750000Y-31240000D02*
X46197500Y-31687500D01*
X49450000Y-31687500D02*
X49450000Y-32700000D01*
X49450000Y-32700000D02*
X50000000Y-33250000D01*
X50000000Y-33250000D02*
X50000000Y-33990000D01*
D33*
X21699959Y-15840000D02*
X21700000Y-15840041D01*
X19005442Y-15840000D02*
X21699959Y-15840000D01*
X19005442Y-15840000D02*
X19005401Y-15840041D01*
X14340000Y-15840000D02*
X19005442Y-15840000D01*
D34*
X24286000Y-24714000D02*
X26662000Y-24714000D01*
X22600000Y-26400000D02*
X24286000Y-24714000D01*
X22600000Y-29900000D02*
X22600000Y-26400000D01*
X20550000Y-31950000D02*
X22600000Y-29900000D01*
X14350000Y-31950000D02*
X20550000Y-31950000D01*
X24266000Y-25984000D02*
X26662000Y-25984000D01*
X23300000Y-33730000D02*
X23300000Y-26950000D01*
X23220000Y-33810000D02*
X23300000Y-33730000D01*
X14350000Y-33810000D02*
X23220000Y-33810000D01*
X23300000Y-26950000D02*
X24266000Y-25984000D01*
X53150000Y-24750000D02*
X54750000Y-24750000D01*
X52500000Y-25400000D02*
X53150000Y-24750000D01*
X51310000Y-25400000D02*
X52500000Y-25400000D01*
D29*
X45744000Y-23444000D02*
X47700000Y-25400000D01*
X42268000Y-23444000D02*
X45744000Y-23444000D01*
X47700000Y-25400000D02*
X50290000Y-25400000D01*
D31*
X33195000Y-14762401D02*
X33196772Y-14760629D01*
D29*
X50990000Y-34000000D02*
X51240000Y-33750000D01*
X50010000Y-34000000D02*
X50990000Y-34000000D01*
X50000000Y-33990000D02*
X50010000Y-34000000D01*
X44500000Y-32000000D02*
X44500000Y-28250000D01*
X44500000Y-28250000D02*
X43504000Y-27254000D01*
X44760000Y-32260000D02*
X44500000Y-32000000D01*
X43504000Y-27254000D02*
X42268000Y-27254000D01*
X45750000Y-32260000D02*
X44760000Y-32260000D01*
X54700000Y-35000000D02*
X54750000Y-35050000D01*
X52230000Y-35000000D02*
X54700000Y-35000000D01*
X55550000Y-32950000D02*
X55550000Y-31790000D01*
X54750000Y-33750000D02*
X55550000Y-32950000D01*
X52260000Y-33750000D02*
X54750000Y-33750000D01*
X55550000Y-25550000D02*
X55550000Y-27080000D01*
X54750000Y-24750000D02*
X55550000Y-25550000D01*
D31*
X45520000Y-25020000D02*
X48500000Y-28000000D01*
X44500000Y-25020000D02*
X45520000Y-25020000D01*
X48500000Y-28000000D02*
X48500000Y-29812500D01*
D29*
X54750000Y-21760000D02*
X54750000Y-23450000D01*
X37400500Y-18650500D02*
X37750000Y-18650500D01*
X37250000Y-18500000D02*
X37400500Y-18650500D01*
X37005000Y-18255000D02*
X37250000Y-18500000D01*
X37005000Y-16911000D02*
X37005000Y-18255000D01*
X37005000Y-15485000D02*
X37740000Y-14750000D01*
X37005000Y-16911000D02*
X37005000Y-15485000D01*
X35735000Y-30515000D02*
X35750000Y-30500000D01*
X35735000Y-32517000D02*
X35735000Y-30515000D01*
X28750000Y-31000000D02*
X28750000Y-30500000D01*
X28500000Y-31250000D02*
X28750000Y-31000000D01*
X28115000Y-31635000D02*
X28500000Y-31250000D01*
X28115000Y-32517000D02*
X28115000Y-31635000D01*
X29385000Y-18615000D02*
X29000000Y-19000000D01*
X29385000Y-16911000D02*
X29385000Y-18615000D01*
X35735000Y-32517000D02*
X35735000Y-34725000D01*
X35735000Y-34725000D02*
X35760000Y-34750000D01*
X28240000Y-33984206D02*
X28240000Y-34750000D01*
X28115000Y-33859206D02*
X28240000Y-33984206D01*
X28115000Y-32517000D02*
X28115000Y-33859206D01*
D31*
X28750000Y-26750000D02*
X28750000Y-21500000D01*
X28246000Y-27254000D02*
X28750000Y-26750000D01*
X28750000Y-21500000D02*
X31555000Y-18695000D01*
X31555000Y-18695000D02*
X33195000Y-18695000D01*
X26662000Y-27254000D02*
X28246000Y-27254000D01*
X44194000Y-24714000D02*
X44500000Y-25020000D01*
X42268000Y-24714000D02*
X44194000Y-24714000D01*
X38275000Y-34505000D02*
X38520000Y-34750000D01*
X38275000Y-32517000D02*
X38275000Y-34505000D01*
X24766000Y-27254000D02*
X26662000Y-27254000D01*
X24500000Y-27520000D02*
X24766000Y-27254000D01*
D35*
X23490000Y-23010000D02*
X22750000Y-23010000D01*
X24326000Y-22174000D02*
X23490000Y-23010000D01*
X26662000Y-22174000D02*
X24326000Y-22174000D01*
X25136000Y-18364000D02*
X26662000Y-18364000D01*
X24500000Y-19000000D02*
X25136000Y-18364000D01*
X23740000Y-20760000D02*
X24500000Y-20000000D01*
X24500000Y-20000000D02*
X24500000Y-19000000D01*
X22750000Y-20760000D02*
X23740000Y-20760000D01*
X22750000Y-20760000D02*
X22750000Y-21990000D01*
X19330000Y-19740000D02*
X22750000Y-19740000D01*
X19000000Y-20070000D02*
X19330000Y-19740000D01*
X20940000Y-23010000D02*
X22750000Y-23010000D01*
X19000000Y-24950000D02*
X20940000Y-23010000D01*
X18200000Y-24150000D02*
X19000000Y-24950000D01*
X15000000Y-24150000D02*
X18200000Y-24150000D01*
X18250000Y-20820000D02*
X19000000Y-20070000D01*
X15000000Y-20820000D02*
X18250000Y-20820000D01*
D34*
X19910000Y-30090000D02*
X14350000Y-30090000D01*
X22000000Y-28000000D02*
X19910000Y-30090000D01*
X22000000Y-26000000D02*
X22000000Y-28000000D01*
X24556000Y-23444000D02*
X22000000Y-26000000D01*
X26662000Y-23444000D02*
X24556000Y-23444000D01*
D30*
X55057000Y-14888000D02*
X54750000Y-15195000D01*
X54750000Y-15195000D02*
X54750000Y-17350000D01*
X54750000Y-17350000D02*
X55000000Y-17600000D01*
D34*
X14290000Y-30030000D02*
X14290000Y-28112000D01*
X14350000Y-30090000D02*
X14290000Y-30030000D01*
G04 #@! TA.AperFunction,Conductor*
G36*
X33145065Y-19322254D02*
G01*
X33149288Y-19323059D01*
X33149289Y-19323059D01*
X33155412Y-19324227D01*
X33211553Y-19320694D01*
X33217769Y-19320500D01*
X33234350Y-19320500D01*
X35994902Y-19320500D01*
X36032788Y-19328036D01*
X36064906Y-19349496D01*
X36577567Y-19862157D01*
X36583847Y-19869059D01*
X36586372Y-19872112D01*
X36589714Y-19877377D01*
X36631830Y-19916927D01*
X36639018Y-19923677D01*
X36641251Y-19925841D01*
X36661030Y-19945620D01*
X36663486Y-19947525D01*
X36665133Y-19948803D01*
X36672219Y-19954856D01*
X36681879Y-19963927D01*
X36704918Y-19985562D01*
X36710381Y-19988565D01*
X36710382Y-19988566D01*
X36724193Y-19996159D01*
X36737177Y-20004687D01*
X36754564Y-20018174D01*
X36760280Y-20020647D01*
X36760288Y-20020652D01*
X36795734Y-20035990D01*
X36804112Y-20040094D01*
X36837949Y-20058696D01*
X36843408Y-20061697D01*
X36857240Y-20065248D01*
X36864715Y-20067168D01*
X36879413Y-20072200D01*
X36899605Y-20080938D01*
X36943904Y-20087953D01*
X36953036Y-20089844D01*
X36996481Y-20101000D01*
X37018483Y-20101000D01*
X37033969Y-20102218D01*
X37055696Y-20105660D01*
X37100348Y-20101439D01*
X37109666Y-20101000D01*
X38475402Y-20101000D01*
X38513288Y-20108536D01*
X38545406Y-20129996D01*
X39631504Y-21216094D01*
X39652964Y-21248212D01*
X39660500Y-21286098D01*
X39660500Y-24621303D01*
X39660061Y-24630618D01*
X39659685Y-24634590D01*
X39658327Y-24640667D01*
X39658522Y-24646888D01*
X39658522Y-24646894D01*
X39660451Y-24708255D01*
X39660500Y-24711365D01*
X39660500Y-28513901D01*
X39652964Y-28551787D01*
X39631504Y-28583905D01*
X37888337Y-30327070D01*
X37881442Y-30333344D01*
X37878378Y-30335878D01*
X37873123Y-30339214D01*
X37868864Y-30343749D01*
X37868857Y-30343755D01*
X37826835Y-30388503D01*
X37824676Y-30390731D01*
X37807077Y-30408331D01*
X37807070Y-30408338D01*
X37804880Y-30410529D01*
X37802981Y-30412976D01*
X37802970Y-30412989D01*
X37801684Y-30414647D01*
X37795646Y-30421715D01*
X37770878Y-30448092D01*
X37764938Y-30454418D01*
X37761940Y-30459871D01*
X37761935Y-30459878D01*
X37754335Y-30473702D01*
X37745811Y-30486678D01*
X37736145Y-30499140D01*
X37736140Y-30499147D01*
X37732327Y-30504064D01*
X37729855Y-30509775D01*
X37729855Y-30509776D01*
X37714511Y-30545232D01*
X37710410Y-30553603D01*
X37688803Y-30592908D01*
X37683605Y-30613154D01*
X37683333Y-30614212D01*
X37678303Y-30628902D01*
X37672036Y-30643383D01*
X37672032Y-30643394D01*
X37669562Y-30649104D01*
X37668588Y-30655247D01*
X37668587Y-30655254D01*
X37662543Y-30693412D01*
X37660653Y-30702539D01*
X37651047Y-30739953D01*
X37651046Y-30739957D01*
X37649500Y-30745981D01*
X37649500Y-30752207D01*
X37649500Y-30767983D01*
X37648281Y-30783470D01*
X37646062Y-30797482D01*
X37644840Y-30805196D01*
X37645425Y-30811386D01*
X37645425Y-30811394D01*
X37649061Y-30849849D01*
X37649500Y-30859166D01*
X37649500Y-31141752D01*
X37633213Y-31196153D01*
X37589712Y-31232655D01*
X37533309Y-31239248D01*
X37482562Y-31213762D01*
X37460410Y-31192863D01*
X37460409Y-31192862D01*
X37456218Y-31188908D01*
X37422117Y-31169220D01*
X37309273Y-31104070D01*
X37309272Y-31104069D01*
X37304281Y-31101188D01*
X37298758Y-31099534D01*
X37298757Y-31099534D01*
X37141733Y-31052523D01*
X37141728Y-31052522D01*
X37136210Y-31050870D01*
X37130461Y-31050535D01*
X37130455Y-31050534D01*
X36966814Y-31041003D01*
X36966806Y-31041003D01*
X36961065Y-31040669D01*
X36955395Y-31041668D01*
X36955391Y-31041669D01*
X36793961Y-31070134D01*
X36793954Y-31070136D01*
X36788289Y-31071135D01*
X36783008Y-31073412D01*
X36783001Y-31073415D01*
X36632484Y-31138341D01*
X36632477Y-31138344D01*
X36627196Y-31140623D01*
X36622579Y-31144059D01*
X36622574Y-31144063D01*
X36491095Y-31241946D01*
X36491090Y-31241949D01*
X36486470Y-31245390D01*
X36482766Y-31249804D01*
X36482762Y-31249808D01*
X36460338Y-31276533D01*
X36410123Y-31308524D01*
X36350640Y-31305927D01*
X36303404Y-31269681D01*
X36285500Y-31212897D01*
X36285500Y-31137586D01*
X36293036Y-31099700D01*
X36314496Y-31067582D01*
X36344916Y-31037162D01*
X36379816Y-31002262D01*
X36475789Y-30849522D01*
X36535368Y-30679255D01*
X36555565Y-30500000D01*
X36535368Y-30320745D01*
X36475789Y-30150478D01*
X36379816Y-29997738D01*
X36252262Y-29870184D01*
X36099522Y-29774211D01*
X36094271Y-29772373D01*
X36094270Y-29772373D01*
X35934503Y-29716468D01*
X35934500Y-29716467D01*
X35929255Y-29714632D01*
X35923738Y-29714010D01*
X35923732Y-29714009D01*
X35755520Y-29695057D01*
X35750000Y-29694435D01*
X35744480Y-29695057D01*
X35576267Y-29714009D01*
X35576259Y-29714010D01*
X35570745Y-29714632D01*
X35565501Y-29716466D01*
X35565496Y-29716468D01*
X35405729Y-29772373D01*
X35405724Y-29772375D01*
X35400478Y-29774211D01*
X35395771Y-29777168D01*
X35395768Y-29777170D01*
X35252446Y-29867225D01*
X35252441Y-29867228D01*
X35247738Y-29870184D01*
X35243811Y-29874110D01*
X35243807Y-29874114D01*
X35124114Y-29993807D01*
X35124110Y-29993811D01*
X35120184Y-29997738D01*
X35117228Y-30002441D01*
X35117225Y-30002446D01*
X35027170Y-30145768D01*
X35024211Y-30150478D01*
X35022375Y-30155724D01*
X35022373Y-30155729D01*
X34966468Y-30315496D01*
X34966466Y-30315501D01*
X34964632Y-30320745D01*
X34964010Y-30326259D01*
X34964009Y-30326267D01*
X34948613Y-30462915D01*
X34944435Y-30500000D01*
X34945861Y-30512658D01*
X34964009Y-30673732D01*
X34964010Y-30673738D01*
X34964632Y-30679255D01*
X34966467Y-30684500D01*
X34966468Y-30684503D01*
X35010869Y-30811394D01*
X35024211Y-30849522D01*
X35030271Y-30859166D01*
X35115229Y-30994377D01*
X35120184Y-31002262D01*
X35124114Y-31006192D01*
X35155504Y-31037582D01*
X35176964Y-31069700D01*
X35184500Y-31107586D01*
X35184500Y-31212511D01*
X35168213Y-31266912D01*
X35124712Y-31303414D01*
X35068309Y-31310007D01*
X35017562Y-31284521D01*
X34920410Y-31192863D01*
X34920409Y-31192862D01*
X34916218Y-31188908D01*
X34882117Y-31169220D01*
X34769273Y-31104070D01*
X34769272Y-31104069D01*
X34764281Y-31101188D01*
X34758758Y-31099534D01*
X34758757Y-31099534D01*
X34601733Y-31052523D01*
X34601728Y-31052522D01*
X34596210Y-31050870D01*
X34590461Y-31050535D01*
X34590455Y-31050534D01*
X34426814Y-31041003D01*
X34426806Y-31041003D01*
X34421065Y-31040669D01*
X34415395Y-31041668D01*
X34415391Y-31041669D01*
X34253961Y-31070134D01*
X34253954Y-31070136D01*
X34248289Y-31071135D01*
X34243008Y-31073412D01*
X34243001Y-31073415D01*
X34092484Y-31138341D01*
X34092477Y-31138344D01*
X34087196Y-31140623D01*
X34082579Y-31144059D01*
X34082574Y-31144063D01*
X33951095Y-31241946D01*
X33951090Y-31241949D01*
X33946470Y-31245390D01*
X33942765Y-31249804D01*
X33942761Y-31249809D01*
X33907703Y-31291589D01*
X33863915Y-31321621D01*
X33810907Y-31324708D01*
X33763928Y-31299962D01*
X33650410Y-31192862D01*
X33650405Y-31192858D01*
X33646218Y-31188908D01*
X33612117Y-31169220D01*
X33499273Y-31104070D01*
X33499272Y-31104069D01*
X33494281Y-31101188D01*
X33488758Y-31099534D01*
X33488757Y-31099534D01*
X33331733Y-31052523D01*
X33331728Y-31052522D01*
X33326210Y-31050870D01*
X33320461Y-31050535D01*
X33320455Y-31050534D01*
X33156814Y-31041003D01*
X33156806Y-31041003D01*
X33151065Y-31040669D01*
X33145395Y-31041668D01*
X33145391Y-31041669D01*
X32983961Y-31070134D01*
X32983954Y-31070136D01*
X32978289Y-31071135D01*
X32973008Y-31073412D01*
X32973001Y-31073415D01*
X32822484Y-31138341D01*
X32822477Y-31138344D01*
X32817196Y-31140623D01*
X32812579Y-31144059D01*
X32812574Y-31144063D01*
X32681095Y-31241946D01*
X32681090Y-31241949D01*
X32676470Y-31245390D01*
X32672766Y-31249804D01*
X32672762Y-31249808D01*
X32569500Y-31372871D01*
X32563698Y-31379786D01*
X32561113Y-31384932D01*
X32561111Y-31384936D01*
X32487548Y-31531412D01*
X32487545Y-31531418D01*
X32484960Y-31536567D01*
X32483629Y-31542180D01*
X32483629Y-31542182D01*
X32445829Y-31701668D01*
X32445828Y-31701675D01*
X32444500Y-31707279D01*
X32444500Y-33282709D01*
X32444833Y-33285563D01*
X32444834Y-33285570D01*
X32459089Y-33407526D01*
X32459759Y-33413255D01*
X32519763Y-33578117D01*
X32616170Y-33724696D01*
X32620361Y-33728650D01*
X32739589Y-33841137D01*
X32739593Y-33841140D01*
X32743782Y-33845092D01*
X32895719Y-33932812D01*
X33063790Y-33983130D01*
X33238935Y-33993331D01*
X33411711Y-33962865D01*
X33572804Y-33893377D01*
X33713530Y-33788610D01*
X33752296Y-33742410D01*
X33796083Y-33712378D01*
X33849092Y-33709291D01*
X33896071Y-33734037D01*
X34009589Y-33841137D01*
X34009593Y-33841140D01*
X34013782Y-33845092D01*
X34165719Y-33932812D01*
X34333790Y-33983130D01*
X34508935Y-33993331D01*
X34681711Y-33962865D01*
X34842804Y-33893377D01*
X34983530Y-33788610D01*
X35009662Y-33757466D01*
X35059877Y-33725476D01*
X35119360Y-33728073D01*
X35166596Y-33764319D01*
X35184500Y-33821103D01*
X35184500Y-34226350D01*
X35179336Y-34257906D01*
X35164383Y-34286170D01*
X35157927Y-34294682D01*
X35157921Y-34294691D01*
X35153837Y-34300078D01*
X35151355Y-34306369D01*
X35151354Y-34306373D01*
X35102202Y-34431016D01*
X35099834Y-34437021D01*
X35099078Y-34443315D01*
X35099076Y-34443324D01*
X35089851Y-34520144D01*
X35089850Y-34520156D01*
X35089500Y-34523073D01*
X35089500Y-34526023D01*
X35089500Y-34526024D01*
X35089500Y-34973974D01*
X35089500Y-34973990D01*
X35089501Y-34976926D01*
X35089851Y-34979842D01*
X35089852Y-34979856D01*
X35099077Y-35056675D01*
X35099834Y-35062979D01*
X35102160Y-35068879D01*
X35102162Y-35068884D01*
X35151353Y-35193625D01*
X35151355Y-35193629D01*
X35153837Y-35199922D01*
X35242784Y-35317216D01*
X35360078Y-35406163D01*
X35497021Y-35460166D01*
X35503323Y-35460922D01*
X35503324Y-35460923D01*
X35520121Y-35462940D01*
X35583073Y-35470500D01*
X35936926Y-35470499D01*
X36022979Y-35460166D01*
X36159922Y-35406163D01*
X36277216Y-35317216D01*
X36366163Y-35199922D01*
X36420166Y-35062979D01*
X36430500Y-34976927D01*
X36430499Y-34523074D01*
X36420166Y-34437021D01*
X36417798Y-34431016D01*
X36368646Y-34306374D01*
X36368645Y-34306372D01*
X36366163Y-34300078D01*
X36305615Y-34220234D01*
X36290664Y-34191972D01*
X36285500Y-34160416D01*
X36285500Y-33821489D01*
X36301787Y-33767088D01*
X36345288Y-33730586D01*
X36401691Y-33723993D01*
X36452438Y-33749479D01*
X36516739Y-33810144D01*
X36553782Y-33845092D01*
X36705719Y-33932812D01*
X36873790Y-33983130D01*
X37048935Y-33993331D01*
X37221711Y-33962865D01*
X37382804Y-33893377D01*
X37491381Y-33812543D01*
X37541871Y-33793331D01*
X37594931Y-33803484D01*
X37634761Y-33839981D01*
X37649500Y-33891954D01*
X37649500Y-34426303D01*
X37649061Y-34435618D01*
X37648685Y-34439590D01*
X37647327Y-34445667D01*
X37647522Y-34451888D01*
X37647522Y-34451894D01*
X37649451Y-34513255D01*
X37649500Y-34516365D01*
X37649500Y-34544350D01*
X37649888Y-34547426D01*
X37649890Y-34547450D01*
X37650151Y-34549513D01*
X37650881Y-34558793D01*
X37652033Y-34595425D01*
X37652291Y-34603627D01*
X37654027Y-34609602D01*
X37654028Y-34609608D01*
X37658429Y-34624755D01*
X37661578Y-34639966D01*
X37664336Y-34661792D01*
X37666628Y-34667581D01*
X37680846Y-34703493D01*
X37683865Y-34712312D01*
X37694644Y-34749410D01*
X37694645Y-34749414D01*
X37696382Y-34755390D01*
X37699550Y-34760747D01*
X37707581Y-34774328D01*
X37714411Y-34788270D01*
X37720220Y-34802940D01*
X37720222Y-34802944D01*
X37722514Y-34808732D01*
X37726173Y-34813768D01*
X37726174Y-34813770D01*
X37748879Y-34845021D01*
X37753997Y-34852812D01*
X37776830Y-34891420D01*
X37781234Y-34895824D01*
X37792389Y-34906979D01*
X37802477Y-34918792D01*
X37815406Y-34936587D01*
X37818225Y-34938919D01*
X37834620Y-34963123D01*
X37843207Y-34993195D01*
X37849173Y-35042872D01*
X37849930Y-35049174D01*
X37852258Y-35055079D01*
X37852259Y-35055080D01*
X37901952Y-35181093D01*
X37901954Y-35181097D01*
X37904438Y-35187395D01*
X37994215Y-35305785D01*
X38112605Y-35395562D01*
X38250826Y-35450070D01*
X38337680Y-35460500D01*
X38699368Y-35460500D01*
X38702320Y-35460500D01*
X38789174Y-35450070D01*
X38927395Y-35395562D01*
X39045785Y-35305785D01*
X39135562Y-35187395D01*
X39190070Y-35049174D01*
X39200500Y-34962320D01*
X39200500Y-34537680D01*
X39190070Y-34450826D01*
X39135562Y-34312605D01*
X39045785Y-34194215D01*
X38939680Y-34113754D01*
X38910835Y-34078910D01*
X38900500Y-34034871D01*
X38900500Y-33892248D01*
X38916787Y-33837847D01*
X38960288Y-33801345D01*
X39016691Y-33794752D01*
X39067438Y-33820238D01*
X39093782Y-33845092D01*
X39245719Y-33932812D01*
X39413790Y-33983130D01*
X39588935Y-33993331D01*
X39761711Y-33962865D01*
X39922804Y-33893377D01*
X40063530Y-33788610D01*
X40102296Y-33742410D01*
X40146083Y-33712378D01*
X40199092Y-33709291D01*
X40246071Y-33734037D01*
X40359589Y-33841137D01*
X40359593Y-33841140D01*
X40363782Y-33845092D01*
X40515719Y-33932812D01*
X40683790Y-33983130D01*
X40858935Y-33993331D01*
X41031711Y-33962865D01*
X41192804Y-33893377D01*
X41333530Y-33788610D01*
X41446302Y-33654214D01*
X41525040Y-33497433D01*
X41565500Y-33326721D01*
X41565500Y-31913500D01*
X41578763Y-31864000D01*
X41615000Y-31827763D01*
X41664500Y-31814500D01*
X43030825Y-31814500D01*
X43033709Y-31814500D01*
X43164255Y-31799241D01*
X43329117Y-31739237D01*
X43475696Y-31642830D01*
X43596092Y-31515218D01*
X43683812Y-31363281D01*
X43734130Y-31195210D01*
X43744331Y-31020065D01*
X43713865Y-30847289D01*
X43644377Y-30686196D01*
X43539610Y-30545470D01*
X43531835Y-30538946D01*
X43493411Y-30506704D01*
X43463378Y-30462915D01*
X43460291Y-30409907D01*
X43485035Y-30362930D01*
X43596092Y-30245218D01*
X43683812Y-30093281D01*
X43734130Y-29925210D01*
X43744331Y-29750065D01*
X43713865Y-29577289D01*
X43644377Y-29416196D01*
X43539610Y-29275470D01*
X43535191Y-29271762D01*
X43493411Y-29236704D01*
X43463378Y-29192915D01*
X43460291Y-29139907D01*
X43485035Y-29092930D01*
X43596092Y-28975218D01*
X43683812Y-28823281D01*
X43734130Y-28655210D01*
X43742907Y-28504513D01*
X43761901Y-28451733D01*
X43806529Y-28417745D01*
X43862463Y-28413465D01*
X43911743Y-28440268D01*
X43920504Y-28449029D01*
X43941964Y-28481147D01*
X43949500Y-28519033D01*
X43949500Y-31988921D01*
X43949442Y-31992301D01*
X43949162Y-32000513D01*
X43947238Y-32056826D01*
X43948840Y-32063401D01*
X43948841Y-32063407D01*
X43957266Y-32097978D01*
X43959159Y-32107936D01*
X43964007Y-32143210D01*
X43964008Y-32143215D01*
X43964930Y-32149920D01*
X43967627Y-32156128D01*
X43972932Y-32168341D01*
X43978313Y-32184344D01*
X43983067Y-32203852D01*
X43986385Y-32209754D01*
X43986386Y-32209755D01*
X44003833Y-32240785D01*
X44008340Y-32249860D01*
X44025220Y-32288720D01*
X44029491Y-32293970D01*
X44029492Y-32293971D01*
X44037892Y-32304296D01*
X44047388Y-32318249D01*
X44057234Y-32335759D01*
X44062022Y-32340547D01*
X44087199Y-32365724D01*
X44093990Y-32373250D01*
X44116085Y-32400409D01*
X44120722Y-32406108D01*
X44129735Y-32412470D01*
X44137123Y-32417685D01*
X44150036Y-32428561D01*
X44362903Y-32641428D01*
X44365252Y-32643859D01*
X44409320Y-32691044D01*
X44415102Y-32694560D01*
X44445519Y-32713057D01*
X44453900Y-32718761D01*
X44487658Y-32744361D01*
X44506340Y-32751728D01*
X44521454Y-32759234D01*
X44538618Y-32769672D01*
X44545138Y-32771499D01*
X44545141Y-32771500D01*
X44565543Y-32777216D01*
X44579416Y-32781103D01*
X44589016Y-32784331D01*
X44628436Y-32799876D01*
X44648410Y-32801929D01*
X44664990Y-32805079D01*
X44684335Y-32810500D01*
X44726700Y-32810500D01*
X44736824Y-32811019D01*
X44778972Y-32815352D01*
X44798761Y-32811939D01*
X44815582Y-32810500D01*
X45193383Y-32810500D01*
X45224938Y-32815664D01*
X45253202Y-32830616D01*
X45300078Y-32866163D01*
X45306372Y-32868645D01*
X45306374Y-32868646D01*
X45335164Y-32879999D01*
X45437021Y-32920166D01*
X45443323Y-32920922D01*
X45443324Y-32920923D01*
X45460121Y-32922940D01*
X45523073Y-32930500D01*
X45976926Y-32930499D01*
X46062979Y-32920166D01*
X46199922Y-32866163D01*
X46317216Y-32777216D01*
X46406163Y-32659922D01*
X46460166Y-32522979D01*
X46470500Y-32436927D01*
X46470499Y-32336999D01*
X46483762Y-32287501D01*
X46519999Y-32251264D01*
X46569499Y-32238000D01*
X46752058Y-32238000D01*
X46798104Y-32249360D01*
X46833583Y-32280833D01*
X46850351Y-32325195D01*
X46851821Y-32337429D01*
X46858491Y-32392978D01*
X46860123Y-32406564D01*
X46862451Y-32412469D01*
X46862452Y-32412470D01*
X46884405Y-32468140D01*
X46915639Y-32547342D01*
X47007078Y-32667922D01*
X47127658Y-32759361D01*
X47268436Y-32814877D01*
X47356898Y-32825500D01*
X47436421Y-32825500D01*
X47474307Y-32833036D01*
X47506425Y-32854496D01*
X47816789Y-33164860D01*
X48096699Y-33444769D01*
X48121056Y-33484822D01*
X48124256Y-33531590D01*
X48105582Y-33574588D01*
X48097928Y-33584681D01*
X48097923Y-33584689D01*
X48093837Y-33590078D01*
X48091356Y-33596366D01*
X48091353Y-33596374D01*
X48042163Y-33721114D01*
X48039834Y-33727021D01*
X48039078Y-33733315D01*
X48039076Y-33733324D01*
X48029851Y-33810144D01*
X48029850Y-33810156D01*
X48029500Y-33813073D01*
X48029500Y-33816023D01*
X48029500Y-33816024D01*
X48029500Y-34163973D01*
X48029500Y-34163989D01*
X48029501Y-34166926D01*
X48029851Y-34169842D01*
X48029852Y-34169856D01*
X48039077Y-34246676D01*
X48039834Y-34252979D01*
X48042160Y-34258879D01*
X48042162Y-34258884D01*
X48091353Y-34383625D01*
X48091355Y-34383629D01*
X48093837Y-34389922D01*
X48182784Y-34507216D01*
X48300078Y-34596163D01*
X48306372Y-34598645D01*
X48306374Y-34598646D01*
X48334172Y-34609608D01*
X48437021Y-34650166D01*
X48443323Y-34650922D01*
X48443324Y-34650923D01*
X48460121Y-34652940D01*
X48523073Y-34660500D01*
X48976926Y-34660499D01*
X49062979Y-34650166D01*
X49199922Y-34596163D01*
X49315181Y-34508758D01*
X49353754Y-34490949D01*
X49396243Y-34490949D01*
X49434818Y-34508759D01*
X49485840Y-34547450D01*
X49550078Y-34596163D01*
X49556372Y-34598645D01*
X49556374Y-34598646D01*
X49584172Y-34609608D01*
X49687021Y-34650166D01*
X49693323Y-34650922D01*
X49693324Y-34650923D01*
X49710121Y-34652940D01*
X49773073Y-34660500D01*
X50226926Y-34660499D01*
X50312979Y-34650166D01*
X50449922Y-34596163D01*
X50483610Y-34570616D01*
X50511875Y-34555664D01*
X50543430Y-34550500D01*
X50978921Y-34550500D01*
X50982301Y-34550558D01*
X51046826Y-34552762D01*
X51087980Y-34542732D01*
X51097943Y-34540838D01*
X51139920Y-34535070D01*
X51158345Y-34527065D01*
X51174345Y-34521686D01*
X51175129Y-34521494D01*
X51193852Y-34516933D01*
X51230788Y-34496164D01*
X51239860Y-34491659D01*
X51269707Y-34478695D01*
X51309148Y-34470499D01*
X51413974Y-34470499D01*
X51416926Y-34470499D01*
X51497596Y-34460812D01*
X51547674Y-34467805D01*
X51587768Y-34498616D01*
X51607418Y-34545207D01*
X51601495Y-34595425D01*
X51564744Y-34688619D01*
X51559930Y-34700826D01*
X51559173Y-34707124D01*
X51559173Y-34707127D01*
X51549851Y-34784751D01*
X51549850Y-34784763D01*
X51549500Y-34787680D01*
X51549500Y-35212320D01*
X51549850Y-35215237D01*
X51549851Y-35215248D01*
X51559173Y-35292872D01*
X51559930Y-35299174D01*
X51562258Y-35305079D01*
X51562259Y-35305080D01*
X51611952Y-35431093D01*
X51611954Y-35431097D01*
X51614438Y-35437395D01*
X51704215Y-35555785D01*
X51822605Y-35645562D01*
X51960826Y-35700070D01*
X52047680Y-35710500D01*
X52409368Y-35710500D01*
X52412320Y-35710500D01*
X52499174Y-35700070D01*
X52637395Y-35645562D01*
X52736227Y-35570615D01*
X52764491Y-35555664D01*
X52796046Y-35550500D01*
X53760034Y-35550500D01*
X53804980Y-35561291D01*
X53840127Y-35591310D01*
X53857815Y-35634015D01*
X53858995Y-35641469D01*
X53864354Y-35675304D01*
X53921950Y-35788342D01*
X54011658Y-35878050D01*
X54124696Y-35935646D01*
X54218481Y-35950500D01*
X55281518Y-35950499D01*
X55375304Y-35935646D01*
X55488342Y-35878050D01*
X55578050Y-35788342D01*
X55635646Y-35675304D01*
X55650500Y-35581519D01*
X55650499Y-34518482D01*
X55635646Y-34424696D01*
X55635211Y-34423842D01*
X55631434Y-34399998D01*
X55635211Y-34376156D01*
X55635646Y-34375304D01*
X55650500Y-34281519D01*
X55650499Y-33669031D01*
X55658035Y-33631146D01*
X55679492Y-33599031D01*
X55931471Y-33347052D01*
X55933841Y-33344763D01*
X55981044Y-33300680D01*
X56003060Y-33264474D01*
X56008747Y-33256117D01*
X56034361Y-33222342D01*
X56041729Y-33203656D01*
X56049234Y-33188545D01*
X56059672Y-33171382D01*
X56071104Y-33130576D01*
X56074328Y-33120989D01*
X56089876Y-33081564D01*
X56091929Y-33061590D01*
X56095082Y-33045003D01*
X56098673Y-33032187D01*
X56098673Y-33032183D01*
X56100500Y-33025665D01*
X56100500Y-32983300D01*
X56101019Y-32973176D01*
X56102782Y-32956026D01*
X56105352Y-32931028D01*
X56104201Y-32924352D01*
X56103980Y-32917881D01*
X56116080Y-32866965D01*
X56152449Y-32829332D01*
X56202922Y-32815499D01*
X56532480Y-32815499D01*
X56535012Y-32815499D01*
X56632663Y-32805524D01*
X56790878Y-32753097D01*
X56796473Y-32749645D01*
X56798527Y-32748380D01*
X56800942Y-32747666D01*
X56801014Y-32747633D01*
X56801019Y-32747643D01*
X56848340Y-32733664D01*
X56898748Y-32746193D01*
X56935874Y-32782518D01*
X56949500Y-32832640D01*
X56949500Y-36550500D01*
X56936237Y-36600000D01*
X56900000Y-36636237D01*
X56850500Y-36649500D01*
X13049500Y-36649500D01*
X13000000Y-36636237D01*
X12963763Y-36600000D01*
X12950500Y-36550500D01*
X12950500Y-34852640D01*
X12964126Y-34802518D01*
X13001252Y-34766193D01*
X13051660Y-34753664D01*
X13098980Y-34767643D01*
X13098986Y-34767633D01*
X13099057Y-34767666D01*
X13101473Y-34768380D01*
X13104214Y-34770070D01*
X13109122Y-34773097D01*
X13114589Y-34774908D01*
X13114590Y-34774909D01*
X13153131Y-34787680D01*
X13267337Y-34825524D01*
X13364987Y-34835500D01*
X15335012Y-34835499D01*
X15432663Y-34825524D01*
X15590878Y-34773097D01*
X15732739Y-34685596D01*
X15850596Y-34567739D01*
X15938097Y-34425878D01*
X15945558Y-34403359D01*
X15981577Y-34354238D01*
X16039534Y-34335500D01*
X22736790Y-34335500D01*
X22768346Y-34340664D01*
X22796606Y-34355614D01*
X22850078Y-34396163D01*
X22987021Y-34450166D01*
X22993323Y-34450922D01*
X22993324Y-34450923D01*
X23001410Y-34451894D01*
X23073073Y-34460500D01*
X23526926Y-34460499D01*
X23612979Y-34450166D01*
X23749922Y-34396163D01*
X23867216Y-34307216D01*
X23956163Y-34189922D01*
X24010166Y-34052979D01*
X24020500Y-33966927D01*
X24020499Y-33613074D01*
X24010166Y-33527021D01*
X23956163Y-33390078D01*
X23867216Y-33272784D01*
X23861816Y-33268689D01*
X23857031Y-33263904D01*
X23858065Y-33262869D01*
X23835836Y-33236021D01*
X23825500Y-33191978D01*
X23825500Y-28155080D01*
X23840355Y-28102921D01*
X23880461Y-28066415D01*
X23933783Y-28056516D01*
X23984317Y-28076195D01*
X24062605Y-28135562D01*
X24068904Y-28138046D01*
X24068906Y-28138047D01*
X24091812Y-28147080D01*
X24200826Y-28190070D01*
X24287680Y-28200500D01*
X24709368Y-28200500D01*
X24712320Y-28200500D01*
X24799174Y-28190070D01*
X24937395Y-28135562D01*
X25055785Y-28045785D01*
X25145562Y-27927395D01*
X25145578Y-27927407D01*
X25179360Y-27893046D01*
X25229346Y-27879500D01*
X25286752Y-27879500D01*
X25341153Y-27895787D01*
X25377655Y-27939288D01*
X25384248Y-27995691D01*
X25358762Y-28046438D01*
X25337863Y-28068589D01*
X25337859Y-28068593D01*
X25333908Y-28072782D01*
X25331029Y-28077767D01*
X25331027Y-28077771D01*
X25249070Y-28219726D01*
X25249067Y-28219730D01*
X25246188Y-28224719D01*
X25244535Y-28230238D01*
X25244534Y-28230242D01*
X25197523Y-28387266D01*
X25197521Y-28387272D01*
X25195870Y-28392790D01*
X25195535Y-28398536D01*
X25195534Y-28398544D01*
X25186003Y-28562185D01*
X25186003Y-28562192D01*
X25185669Y-28567935D01*
X25186668Y-28573605D01*
X25186669Y-28573608D01*
X25215134Y-28735038D01*
X25215135Y-28735043D01*
X25216135Y-28740711D01*
X25218413Y-28745993D01*
X25218415Y-28745998D01*
X25283341Y-28896515D01*
X25283343Y-28896518D01*
X25285623Y-28901804D01*
X25289062Y-28906423D01*
X25289063Y-28906425D01*
X25379008Y-29027242D01*
X25390390Y-29042530D01*
X25394808Y-29046237D01*
X25436588Y-29081295D01*
X25466621Y-29125083D01*
X25469708Y-29178092D01*
X25444962Y-29225071D01*
X25337863Y-29338589D01*
X25337859Y-29338593D01*
X25333908Y-29342782D01*
X25331029Y-29347767D01*
X25331027Y-29347771D01*
X25249070Y-29489726D01*
X25249067Y-29489730D01*
X25246188Y-29494719D01*
X25244535Y-29500238D01*
X25244534Y-29500242D01*
X25197523Y-29657266D01*
X25197521Y-29657272D01*
X25195870Y-29662790D01*
X25195535Y-29668536D01*
X25195534Y-29668544D01*
X25186003Y-29832185D01*
X25186003Y-29832192D01*
X25185669Y-29837935D01*
X25186668Y-29843605D01*
X25186669Y-29843608D01*
X25215134Y-30005038D01*
X25215135Y-30005043D01*
X25216135Y-30010711D01*
X25218413Y-30015993D01*
X25218415Y-30015998D01*
X25283341Y-30166515D01*
X25283343Y-30166518D01*
X25285623Y-30171804D01*
X25390390Y-30312530D01*
X25394808Y-30316237D01*
X25436588Y-30351295D01*
X25466621Y-30395083D01*
X25469708Y-30448092D01*
X25444962Y-30495071D01*
X25337863Y-30608589D01*
X25337859Y-30608593D01*
X25333908Y-30612782D01*
X25331029Y-30617767D01*
X25331027Y-30617771D01*
X25249070Y-30759726D01*
X25249067Y-30759730D01*
X25246188Y-30764719D01*
X25244535Y-30770238D01*
X25244534Y-30770242D01*
X25197523Y-30927266D01*
X25197521Y-30927272D01*
X25195870Y-30932790D01*
X25195535Y-30938536D01*
X25195534Y-30938544D01*
X25186003Y-31102185D01*
X25186003Y-31102192D01*
X25185669Y-31107935D01*
X25186668Y-31113605D01*
X25186669Y-31113608D01*
X25215134Y-31275038D01*
X25215135Y-31275043D01*
X25216135Y-31280711D01*
X25218413Y-31285993D01*
X25218415Y-31285998D01*
X25283341Y-31436515D01*
X25283343Y-31436518D01*
X25285623Y-31441804D01*
X25289062Y-31446423D01*
X25289063Y-31446425D01*
X25336563Y-31510228D01*
X25390390Y-31582530D01*
X25524786Y-31695302D01*
X25681567Y-31774040D01*
X25852279Y-31814500D01*
X27265500Y-31814500D01*
X27315000Y-31827763D01*
X27351237Y-31864000D01*
X27364500Y-31913500D01*
X27364500Y-33282709D01*
X27364833Y-33285563D01*
X27364834Y-33285570D01*
X27379089Y-33407526D01*
X27379759Y-33413255D01*
X27439763Y-33578117D01*
X27536170Y-33724696D01*
X27540366Y-33728655D01*
X27541338Y-33729813D01*
X27558529Y-33759590D01*
X27564500Y-33793450D01*
X27564500Y-33848127D01*
X27564441Y-33851507D01*
X27562238Y-33916032D01*
X27563840Y-33922607D01*
X27563841Y-33922613D01*
X27572266Y-33957184D01*
X27574159Y-33967142D01*
X27579007Y-34002416D01*
X27579008Y-34002421D01*
X27579930Y-34009126D01*
X27582627Y-34015334D01*
X27587932Y-34027547D01*
X27593313Y-34043550D01*
X27594074Y-34046675D01*
X27598067Y-34063058D01*
X27601385Y-34068960D01*
X27601386Y-34068961D01*
X27618833Y-34099991D01*
X27623340Y-34109066D01*
X27640220Y-34147926D01*
X27644491Y-34153176D01*
X27644492Y-34153177D01*
X27647555Y-34156942D01*
X27666943Y-34195979D01*
X27667686Y-34239559D01*
X27649643Y-34279234D01*
X27637926Y-34294685D01*
X27637924Y-34294688D01*
X27633837Y-34300078D01*
X27631356Y-34306366D01*
X27631353Y-34306374D01*
X27582202Y-34431016D01*
X27579834Y-34437021D01*
X27579078Y-34443315D01*
X27579076Y-34443324D01*
X27569851Y-34520144D01*
X27569850Y-34520156D01*
X27569500Y-34523073D01*
X27569500Y-34526023D01*
X27569500Y-34526024D01*
X27569500Y-34973974D01*
X27569500Y-34973990D01*
X27569501Y-34976926D01*
X27569851Y-34979842D01*
X27569852Y-34979856D01*
X27579077Y-35056675D01*
X27579834Y-35062979D01*
X27582160Y-35068879D01*
X27582162Y-35068884D01*
X27631353Y-35193625D01*
X27631355Y-35193629D01*
X27633837Y-35199922D01*
X27722784Y-35317216D01*
X27840078Y-35406163D01*
X27977021Y-35460166D01*
X27983323Y-35460922D01*
X27983324Y-35460923D01*
X28000121Y-35462940D01*
X28063073Y-35470500D01*
X28416926Y-35470499D01*
X28502979Y-35460166D01*
X28639922Y-35406163D01*
X28757216Y-35317216D01*
X28846163Y-35199922D01*
X28900166Y-35062979D01*
X28910500Y-34976927D01*
X28910499Y-34523074D01*
X28900166Y-34437021D01*
X28897798Y-34431016D01*
X28848646Y-34306374D01*
X28848645Y-34306372D01*
X28846163Y-34300078D01*
X28810616Y-34253202D01*
X28795664Y-34224938D01*
X28790500Y-34193383D01*
X28790500Y-33995302D01*
X28790558Y-33991922D01*
X28791513Y-33963975D01*
X28792617Y-33931649D01*
X28807118Y-33883351D01*
X28843530Y-33848461D01*
X28892404Y-33836034D01*
X28941057Y-33849292D01*
X29085719Y-33932812D01*
X29253790Y-33983130D01*
X29428935Y-33993331D01*
X29601711Y-33962865D01*
X29762804Y-33893377D01*
X29903530Y-33788610D01*
X29942296Y-33742410D01*
X29986083Y-33712378D01*
X30039092Y-33709291D01*
X30086071Y-33734037D01*
X30199589Y-33841137D01*
X30199593Y-33841140D01*
X30203782Y-33845092D01*
X30355719Y-33932812D01*
X30523790Y-33983130D01*
X30698935Y-33993331D01*
X30871711Y-33962865D01*
X31032804Y-33893377D01*
X31173530Y-33788610D01*
X31286302Y-33654214D01*
X31365040Y-33497433D01*
X31405500Y-33326721D01*
X31405500Y-31751291D01*
X31390241Y-31620745D01*
X31330237Y-31455883D01*
X31233830Y-31309304D01*
X31205500Y-31282576D01*
X31110410Y-31192862D01*
X31110405Y-31192858D01*
X31106218Y-31188908D01*
X31072117Y-31169220D01*
X30959273Y-31104070D01*
X30959272Y-31104069D01*
X30954281Y-31101188D01*
X30948758Y-31099534D01*
X30948757Y-31099534D01*
X30791733Y-31052523D01*
X30791728Y-31052522D01*
X30786210Y-31050870D01*
X30780461Y-31050535D01*
X30780455Y-31050534D01*
X30616814Y-31041003D01*
X30616806Y-31041003D01*
X30611065Y-31040669D01*
X30605395Y-31041668D01*
X30605391Y-31041669D01*
X30443961Y-31070134D01*
X30443954Y-31070136D01*
X30438289Y-31071135D01*
X30433008Y-31073412D01*
X30433001Y-31073415D01*
X30282484Y-31138341D01*
X30282477Y-31138344D01*
X30277196Y-31140623D01*
X30272579Y-31144059D01*
X30272574Y-31144063D01*
X30141095Y-31241946D01*
X30141090Y-31241949D01*
X30136470Y-31245390D01*
X30132765Y-31249804D01*
X30132761Y-31249809D01*
X30097703Y-31291589D01*
X30053915Y-31321621D01*
X30000907Y-31324708D01*
X29953928Y-31299962D01*
X29840410Y-31192862D01*
X29840405Y-31192858D01*
X29836218Y-31188908D01*
X29802117Y-31169220D01*
X29689273Y-31104070D01*
X29689272Y-31104069D01*
X29684281Y-31101188D01*
X29678758Y-31099534D01*
X29678757Y-31099534D01*
X29521732Y-31052523D01*
X29521730Y-31052522D01*
X29516210Y-31050870D01*
X29510467Y-31050535D01*
X29466665Y-31031017D01*
X29437173Y-30993196D01*
X29428918Y-30945951D01*
X29443839Y-30900370D01*
X29475789Y-30849522D01*
X29535368Y-30679255D01*
X29555565Y-30500000D01*
X29535368Y-30320745D01*
X29475789Y-30150478D01*
X29379816Y-29997738D01*
X29252262Y-29870184D01*
X29099522Y-29774211D01*
X29094271Y-29772373D01*
X29094270Y-29772373D01*
X28934503Y-29716468D01*
X28934500Y-29716467D01*
X28929255Y-29714632D01*
X28923738Y-29714010D01*
X28923732Y-29714009D01*
X28755520Y-29695057D01*
X28750000Y-29694435D01*
X28744480Y-29695057D01*
X28576267Y-29714009D01*
X28576259Y-29714010D01*
X28570745Y-29714632D01*
X28565501Y-29716466D01*
X28565496Y-29716468D01*
X28405729Y-29772373D01*
X28405724Y-29772375D01*
X28400478Y-29774211D01*
X28395774Y-29777166D01*
X28395763Y-29777172D01*
X28289586Y-29843887D01*
X28238246Y-29859052D01*
X28186517Y-29845272D01*
X28149524Y-29806577D01*
X28139664Y-29761501D01*
X28138332Y-29761579D01*
X28137996Y-29755814D01*
X28138331Y-29750065D01*
X28107865Y-29577289D01*
X28038377Y-29416196D01*
X27933610Y-29275470D01*
X27929191Y-29271762D01*
X27887411Y-29236704D01*
X27857378Y-29192915D01*
X27854291Y-29139907D01*
X27879035Y-29092930D01*
X27990092Y-28975218D01*
X28077812Y-28823281D01*
X28128130Y-28655210D01*
X28138331Y-28480065D01*
X28107865Y-28307289D01*
X28038377Y-28146196D01*
X27957543Y-28037618D01*
X27938331Y-27987129D01*
X27948484Y-27934069D01*
X27984981Y-27894239D01*
X28036954Y-27879500D01*
X28167303Y-27879500D01*
X28176618Y-27879939D01*
X28180588Y-27880314D01*
X28186667Y-27881673D01*
X28254254Y-27879549D01*
X28257365Y-27879500D01*
X28282232Y-27879500D01*
X28285350Y-27879500D01*
X28288444Y-27879109D01*
X28290494Y-27878850D01*
X28299800Y-27878117D01*
X28344627Y-27876709D01*
X28365744Y-27870572D01*
X28380966Y-27867420D01*
X28402792Y-27864664D01*
X28444515Y-27848143D01*
X28453303Y-27845135D01*
X28496390Y-27832618D01*
X28515330Y-27821416D01*
X28529270Y-27814586D01*
X28549732Y-27806486D01*
X28586022Y-27780118D01*
X28593805Y-27775005D01*
X28632420Y-27752170D01*
X28647977Y-27736611D01*
X28659783Y-27726528D01*
X28677587Y-27713594D01*
X28706175Y-27679035D01*
X28712440Y-27672148D01*
X29136666Y-27247922D01*
X29143559Y-27241652D01*
X29146610Y-27239127D01*
X29151877Y-27235786D01*
X29198178Y-27186479D01*
X29200343Y-27184246D01*
X29220120Y-27164470D01*
X29223301Y-27160368D01*
X29229348Y-27153287D01*
X29260062Y-27120582D01*
X29270663Y-27101298D01*
X29279180Y-27088330D01*
X29292674Y-27070936D01*
X29310495Y-27029749D01*
X29314595Y-27021383D01*
X29336197Y-26982092D01*
X29341670Y-26960774D01*
X29346698Y-26946091D01*
X29355438Y-26925895D01*
X29362457Y-26881569D01*
X29364339Y-26872483D01*
X29375500Y-26829019D01*
X29375500Y-26807017D01*
X29376719Y-26791530D01*
X29380160Y-26769804D01*
X29375939Y-26725151D01*
X29375500Y-26715834D01*
X29375500Y-21800098D01*
X29383036Y-21762212D01*
X29404496Y-21730094D01*
X31785095Y-19349496D01*
X31817213Y-19328036D01*
X31855099Y-19320500D01*
X33115981Y-19320500D01*
X33126514Y-19320500D01*
X33145065Y-19322254D01*
G37*
G04 #@! TD.AperFunction*
G04 #@! TA.AperFunction,Conductor*
G36*
X53808938Y-25286290D02*
G01*
X53844086Y-25316310D01*
X53861773Y-25359012D01*
X53864354Y-25375304D01*
X53867888Y-25382241D01*
X53867889Y-25382242D01*
X53873812Y-25393867D01*
X53921950Y-25488342D01*
X54011658Y-25578050D01*
X54124696Y-25635646D01*
X54218481Y-25650500D01*
X54830966Y-25650499D01*
X54868852Y-25658035D01*
X54900970Y-25679495D01*
X54970504Y-25749029D01*
X54991964Y-25781147D01*
X54999500Y-25819033D01*
X54999500Y-25955501D01*
X54986237Y-26005001D01*
X54950000Y-26041238D01*
X54900500Y-26054501D01*
X54564988Y-26054501D01*
X54562480Y-26054757D01*
X54562464Y-26054758D01*
X54472716Y-26063926D01*
X54472711Y-26063927D01*
X54467337Y-26064476D01*
X54462216Y-26066172D01*
X54462206Y-26066175D01*
X54314590Y-26115090D01*
X54314581Y-26115093D01*
X54309122Y-26116903D01*
X54304223Y-26119924D01*
X54304220Y-26119926D01*
X54172162Y-26201380D01*
X54172156Y-26201384D01*
X54167261Y-26204404D01*
X54163193Y-26208471D01*
X54163189Y-26208475D01*
X54053475Y-26318189D01*
X54053471Y-26318193D01*
X54049404Y-26322261D01*
X54046384Y-26327156D01*
X54046380Y-26327162D01*
X53964926Y-26459220D01*
X53964924Y-26459223D01*
X53961903Y-26464122D01*
X53960093Y-26469581D01*
X53960090Y-26469590D01*
X53911176Y-26617204D01*
X53911174Y-26617211D01*
X53909476Y-26622337D01*
X53908926Y-26627713D01*
X53908926Y-26627717D01*
X53899757Y-26717466D01*
X53899756Y-26717476D01*
X53899500Y-26719987D01*
X53899500Y-26722516D01*
X53899500Y-26722517D01*
X53899500Y-27437480D01*
X53899500Y-27437499D01*
X53899501Y-27440012D01*
X53899757Y-27442520D01*
X53899758Y-27442535D01*
X53908926Y-27532283D01*
X53909476Y-27537663D01*
X53911173Y-27542785D01*
X53911175Y-27542793D01*
X53960090Y-27690409D01*
X53960092Y-27690414D01*
X53961903Y-27695878D01*
X53964926Y-27700779D01*
X54044290Y-27829449D01*
X54049404Y-27837739D01*
X54167261Y-27955596D01*
X54309122Y-28043097D01*
X54314589Y-28044908D01*
X54314590Y-28044909D01*
X54329589Y-28049879D01*
X54467337Y-28095524D01*
X54564987Y-28105500D01*
X56535012Y-28105499D01*
X56632663Y-28095524D01*
X56790878Y-28043097D01*
X56796473Y-28039645D01*
X56798527Y-28038380D01*
X56800942Y-28037666D01*
X56801014Y-28037633D01*
X56801019Y-28037643D01*
X56848340Y-28023664D01*
X56898748Y-28036193D01*
X56935874Y-28072518D01*
X56949500Y-28122640D01*
X56949500Y-30747360D01*
X56935874Y-30797482D01*
X56898748Y-30833807D01*
X56848340Y-30846336D01*
X56801019Y-30832356D01*
X56801014Y-30832367D01*
X56800942Y-30832333D01*
X56798527Y-30831620D01*
X56795785Y-30829929D01*
X56795780Y-30829926D01*
X56790878Y-30826903D01*
X56785414Y-30825092D01*
X56785409Y-30825090D01*
X56637795Y-30776176D01*
X56637790Y-30776174D01*
X56632663Y-30774476D01*
X56627284Y-30773926D01*
X56627282Y-30773926D01*
X56537533Y-30764757D01*
X56537524Y-30764756D01*
X56535013Y-30764500D01*
X56532482Y-30764500D01*
X54567519Y-30764500D01*
X54567499Y-30764500D01*
X54564988Y-30764501D01*
X54562480Y-30764757D01*
X54562464Y-30764758D01*
X54472716Y-30773926D01*
X54472711Y-30773927D01*
X54467337Y-30774476D01*
X54462216Y-30776172D01*
X54462206Y-30776175D01*
X54314590Y-30825090D01*
X54314581Y-30825093D01*
X54309122Y-30826903D01*
X54304223Y-30829924D01*
X54304220Y-30829926D01*
X54172162Y-30911380D01*
X54172156Y-30911384D01*
X54167261Y-30914404D01*
X54163193Y-30918471D01*
X54163189Y-30918475D01*
X54053475Y-31028189D01*
X54053471Y-31028193D01*
X54049404Y-31032261D01*
X54046384Y-31037156D01*
X54046380Y-31037162D01*
X53964926Y-31169220D01*
X53964924Y-31169223D01*
X53961903Y-31174122D01*
X53960093Y-31179581D01*
X53960090Y-31179590D01*
X53911176Y-31327204D01*
X53911174Y-31327211D01*
X53909476Y-31332337D01*
X53908926Y-31337713D01*
X53908926Y-31337717D01*
X53899757Y-31427466D01*
X53899756Y-31427476D01*
X53899500Y-31429987D01*
X53899500Y-31432516D01*
X53899500Y-31432517D01*
X53899500Y-32147480D01*
X53899500Y-32147499D01*
X53899501Y-32150012D01*
X53899757Y-32152520D01*
X53899758Y-32152535D01*
X53908773Y-32240785D01*
X53909476Y-32247663D01*
X53911173Y-32252785D01*
X53911175Y-32252793D01*
X53960090Y-32400409D01*
X53960092Y-32400414D01*
X53961903Y-32405878D01*
X53964926Y-32410779D01*
X54045272Y-32541041D01*
X54049404Y-32547739D01*
X54167261Y-32665596D01*
X54172158Y-32668616D01*
X54172165Y-32668622D01*
X54187580Y-32678129D01*
X54226398Y-32722912D01*
X54232680Y-32781844D01*
X54204176Y-32833804D01*
X54151099Y-32860172D01*
X54132388Y-32863135D01*
X54132383Y-32863136D01*
X54124696Y-32864354D01*
X54117760Y-32867887D01*
X54117757Y-32867889D01*
X54018597Y-32918414D01*
X54018595Y-32918415D01*
X54011658Y-32921950D01*
X54006154Y-32927453D01*
X54006151Y-32927456D01*
X53927456Y-33006151D01*
X53927453Y-33006154D01*
X53921950Y-33011658D01*
X53918415Y-33018595D01*
X53918414Y-33018597D01*
X53867892Y-33117751D01*
X53867890Y-33117754D01*
X53864354Y-33124696D01*
X53863258Y-33131609D01*
X53842976Y-33166742D01*
X53809671Y-33190941D01*
X53769403Y-33199500D01*
X52832551Y-33199500D01*
X52800995Y-33194336D01*
X52772735Y-33179386D01*
X52659922Y-33093837D01*
X52653629Y-33091355D01*
X52653625Y-33091353D01*
X52528885Y-33042163D01*
X52528884Y-33042162D01*
X52522979Y-33039834D01*
X52516682Y-33039077D01*
X52516675Y-33039076D01*
X52439855Y-33029851D01*
X52439844Y-33029850D01*
X52436927Y-33029500D01*
X52433975Y-33029500D01*
X52086026Y-33029500D01*
X52086009Y-33029500D01*
X52083074Y-33029501D01*
X52080158Y-33029851D01*
X52080143Y-33029852D01*
X52003323Y-33039077D01*
X52003320Y-33039077D01*
X51997021Y-33039834D01*
X51991122Y-33042160D01*
X51991115Y-33042162D01*
X51866374Y-33091353D01*
X51866366Y-33091356D01*
X51860078Y-33093837D01*
X51854685Y-33097925D01*
X51854684Y-33097927D01*
X51809819Y-33131949D01*
X51771244Y-33149759D01*
X51728756Y-33149759D01*
X51690181Y-33131949D01*
X51657006Y-33106792D01*
X51639922Y-33093837D01*
X51633629Y-33091355D01*
X51633625Y-33091353D01*
X51508885Y-33042163D01*
X51508884Y-33042162D01*
X51502979Y-33039834D01*
X51496682Y-33039077D01*
X51496675Y-33039076D01*
X51419855Y-33029851D01*
X51419844Y-33029850D01*
X51416927Y-33029500D01*
X51413975Y-33029500D01*
X51066026Y-33029500D01*
X51066009Y-33029500D01*
X51063074Y-33029501D01*
X51060158Y-33029851D01*
X51060143Y-33029852D01*
X50983323Y-33039077D01*
X50983320Y-33039077D01*
X50977021Y-33039834D01*
X50971122Y-33042160D01*
X50971115Y-33042162D01*
X50846374Y-33091353D01*
X50846366Y-33091356D01*
X50840078Y-33093837D01*
X50834686Y-33097925D01*
X50834684Y-33097927D01*
X50728183Y-33178689D01*
X50728179Y-33178692D01*
X50722784Y-33182784D01*
X50718692Y-33188179D01*
X50718684Y-33188188D01*
X50717968Y-33189133D01*
X50717075Y-33189797D01*
X50713904Y-33192969D01*
X50713439Y-33192504D01*
X50673811Y-33222015D01*
X50618918Y-33226224D01*
X50570264Y-33200461D01*
X50542896Y-33152693D01*
X50542716Y-33151952D01*
X50540838Y-33142052D01*
X50535070Y-33100080D01*
X50527067Y-33081658D01*
X50521687Y-33065660D01*
X50516933Y-33046148D01*
X50496161Y-33009205D01*
X50491661Y-33000144D01*
X50477478Y-32967491D01*
X50477477Y-32967490D01*
X50474780Y-32961280D01*
X50462108Y-32945705D01*
X50452605Y-32931743D01*
X50451906Y-32930499D01*
X50442765Y-32914241D01*
X50412804Y-32884280D01*
X50406012Y-32876753D01*
X50397396Y-32866163D01*
X50379278Y-32843892D01*
X50362866Y-32832307D01*
X50349954Y-32821430D01*
X50127873Y-32599348D01*
X50100948Y-32549487D01*
X50105779Y-32493027D01*
X50139877Y-32406564D01*
X50150500Y-32318102D01*
X50150500Y-31056898D01*
X50139877Y-30968436D01*
X50084361Y-30827658D01*
X49992922Y-30707078D01*
X49986936Y-30702539D01*
X49956232Y-30679255D01*
X49872342Y-30615639D01*
X49865097Y-30612782D01*
X49737470Y-30562452D01*
X49737469Y-30562451D01*
X49731564Y-30560123D01*
X49725263Y-30559366D01*
X49725262Y-30559366D01*
X49646030Y-30549851D01*
X49646019Y-30549850D01*
X49643102Y-30549500D01*
X49299058Y-30549500D01*
X49247862Y-30535235D01*
X49211421Y-30496551D01*
X49200289Y-30444854D01*
X49200500Y-30443102D01*
X49200500Y-29181898D01*
X49189877Y-29093436D01*
X49134361Y-28952658D01*
X49135776Y-28952099D01*
X49125500Y-28912857D01*
X49125500Y-28078685D01*
X49125939Y-28069370D01*
X49126313Y-28065411D01*
X49127672Y-28059332D01*
X49125548Y-27991762D01*
X49125500Y-27988654D01*
X49125500Y-27963755D01*
X49125500Y-27960650D01*
X49124849Y-27955499D01*
X49124117Y-27946200D01*
X49122709Y-27901372D01*
X49116571Y-27880249D01*
X49113420Y-27865032D01*
X49112028Y-27854014D01*
X49110664Y-27843208D01*
X49108372Y-27837419D01*
X49108371Y-27837415D01*
X49097031Y-27808775D01*
X49094146Y-27801490D01*
X49091127Y-27792670D01*
X49088123Y-27782331D01*
X49078617Y-27749610D01*
X49067417Y-27730672D01*
X49060588Y-27716732D01*
X49052486Y-27696268D01*
X49026117Y-27659975D01*
X49021004Y-27652189D01*
X49001341Y-27618940D01*
X49001338Y-27618936D01*
X48998170Y-27613579D01*
X48982608Y-27598016D01*
X48972519Y-27586203D01*
X48963255Y-27573452D01*
X48959594Y-27568413D01*
X48925042Y-27539829D01*
X48918143Y-27533552D01*
X47493484Y-26108893D01*
X47465928Y-26055710D01*
X47474083Y-25996371D01*
X47514966Y-25952595D01*
X47573611Y-25940408D01*
X47588410Y-25941929D01*
X47604990Y-25945079D01*
X47624335Y-25950500D01*
X47666700Y-25950500D01*
X47676824Y-25951019D01*
X47718972Y-25955352D01*
X47738761Y-25951939D01*
X47755582Y-25950500D01*
X49717449Y-25950500D01*
X49749005Y-25955664D01*
X49777264Y-25970613D01*
X49890078Y-26056163D01*
X49896372Y-26058645D01*
X49896374Y-26058646D01*
X49911158Y-26064476D01*
X50027021Y-26110166D01*
X50033323Y-26110922D01*
X50033324Y-26110923D01*
X50050121Y-26112940D01*
X50113073Y-26120500D01*
X50466926Y-26120499D01*
X50552979Y-26110166D01*
X50689922Y-26056163D01*
X50740180Y-26018050D01*
X50778756Y-26000241D01*
X50821244Y-26000241D01*
X50859819Y-26018050D01*
X50910078Y-26056163D01*
X51047021Y-26110166D01*
X51053323Y-26110922D01*
X51053324Y-26110923D01*
X51070121Y-26112940D01*
X51133073Y-26120500D01*
X51486926Y-26120499D01*
X51572979Y-26110166D01*
X51709922Y-26056163D01*
X51827216Y-25967216D01*
X51831311Y-25961814D01*
X51836096Y-25957031D01*
X51837130Y-25958065D01*
X51863979Y-25935836D01*
X51908022Y-25925500D01*
X52489334Y-25925500D01*
X52492713Y-25925557D01*
X52554245Y-25927660D01*
X52593311Y-25918139D01*
X52603264Y-25916247D01*
X52643111Y-25910771D01*
X52660341Y-25903286D01*
X52676349Y-25897903D01*
X52688016Y-25895060D01*
X52688016Y-25895059D01*
X52694594Y-25893457D01*
X52729639Y-25873751D01*
X52738699Y-25869250D01*
X52775609Y-25853219D01*
X52790189Y-25841355D01*
X52804136Y-25831864D01*
X52820512Y-25822658D01*
X52848947Y-25794221D01*
X52856474Y-25787429D01*
X52887665Y-25762054D01*
X52898500Y-25746703D01*
X52909366Y-25733802D01*
X53338673Y-25304496D01*
X53370791Y-25283036D01*
X53408677Y-25275500D01*
X53763993Y-25275500D01*
X53808938Y-25286290D01*
G37*
G04 #@! TD.AperFunction*
G04 #@! TA.AperFunction,Conductor*
G36*
X41140200Y-25350030D02*
G01*
X41145566Y-25352725D01*
X41287567Y-25424040D01*
X41458279Y-25464500D01*
X43030825Y-25464500D01*
X43033709Y-25464500D01*
X43164255Y-25449241D01*
X43329117Y-25389237D01*
X43379974Y-25355787D01*
X43434377Y-25339500D01*
X43752398Y-25339500D01*
X43808100Y-25356657D01*
X43844494Y-25402179D01*
X43854438Y-25427395D01*
X43944215Y-25545785D01*
X44062605Y-25635562D01*
X44200826Y-25690070D01*
X44287680Y-25700500D01*
X44709368Y-25700500D01*
X44712320Y-25700500D01*
X44799174Y-25690070D01*
X44894689Y-25652402D01*
X44931008Y-25645500D01*
X45219902Y-25645500D01*
X45257788Y-25653036D01*
X45289906Y-25674496D01*
X47845504Y-28230095D01*
X47866964Y-28262213D01*
X47874500Y-28300099D01*
X47874500Y-28912857D01*
X47864223Y-28952099D01*
X47865639Y-28952658D01*
X47813298Y-29085386D01*
X47810123Y-29093436D01*
X47809366Y-29099734D01*
X47809366Y-29099737D01*
X47799851Y-29178969D01*
X47799850Y-29178981D01*
X47799500Y-29181898D01*
X47799500Y-30443102D01*
X47799710Y-30444854D01*
X47788579Y-30496551D01*
X47752138Y-30535235D01*
X47700942Y-30549500D01*
X47356898Y-30549500D01*
X47353981Y-30549850D01*
X47353969Y-30549851D01*
X47274737Y-30559366D01*
X47274734Y-30559366D01*
X47268436Y-30560123D01*
X47262532Y-30562451D01*
X47262529Y-30562452D01*
X47133958Y-30613154D01*
X47133954Y-30613155D01*
X47127658Y-30615639D01*
X47122266Y-30619727D01*
X47122264Y-30619729D01*
X47012473Y-30702986D01*
X47012469Y-30702989D01*
X47007078Y-30707078D01*
X47002989Y-30712469D01*
X47002986Y-30712473D01*
X46927972Y-30811394D01*
X46915639Y-30827658D01*
X46913155Y-30833954D01*
X46913154Y-30833958D01*
X46862452Y-30962529D01*
X46860123Y-30968436D01*
X46859366Y-30974734D01*
X46859366Y-30974737D01*
X46850352Y-31049804D01*
X46833583Y-31094167D01*
X46798104Y-31125640D01*
X46752058Y-31137000D01*
X46567199Y-31137000D01*
X46521152Y-31125640D01*
X46485674Y-31094166D01*
X46468905Y-31049802D01*
X46460166Y-30977021D01*
X46442083Y-30931165D01*
X46408646Y-30846374D01*
X46408645Y-30846372D01*
X46406163Y-30840078D01*
X46317216Y-30722784D01*
X46199922Y-30633837D01*
X46193629Y-30631355D01*
X46193625Y-30631353D01*
X46068885Y-30582163D01*
X46068884Y-30582162D01*
X46062979Y-30579834D01*
X46056682Y-30579077D01*
X46056675Y-30579076D01*
X45979855Y-30569851D01*
X45979844Y-30569850D01*
X45976927Y-30569500D01*
X45973975Y-30569500D01*
X45526025Y-30569500D01*
X45526008Y-30569500D01*
X45523074Y-30569501D01*
X45520158Y-30569851D01*
X45520143Y-30569852D01*
X45443323Y-30579077D01*
X45443320Y-30579077D01*
X45437021Y-30579834D01*
X45431122Y-30582160D01*
X45431115Y-30582162D01*
X45306374Y-30631353D01*
X45306366Y-30631356D01*
X45300078Y-30633837D01*
X45294689Y-30637922D01*
X45294688Y-30637924D01*
X45270030Y-30656622D01*
X45209317Y-30702662D01*
X45158783Y-30722342D01*
X45105461Y-30712443D01*
X45065355Y-30675937D01*
X45050500Y-30623778D01*
X45050500Y-28261096D01*
X45050558Y-28257716D01*
X45050698Y-28253625D01*
X45052763Y-28193174D01*
X45042730Y-28152007D01*
X45040837Y-28142050D01*
X45035070Y-28100080D01*
X45027064Y-28081650D01*
X45021687Y-28065658D01*
X45016933Y-28046148D01*
X45013617Y-28040251D01*
X45013615Y-28040245D01*
X44996167Y-28009214D01*
X44991657Y-28000134D01*
X44977479Y-27967493D01*
X44977478Y-27967491D01*
X44974780Y-27961280D01*
X44962108Y-27945704D01*
X44952609Y-27931747D01*
X44950233Y-27927521D01*
X44942766Y-27914241D01*
X44912800Y-27884275D01*
X44906008Y-27876748D01*
X44905976Y-27876709D01*
X44879278Y-27843892D01*
X44873749Y-27839989D01*
X44873748Y-27839988D01*
X44862871Y-27832310D01*
X44849960Y-27821435D01*
X43901095Y-26872570D01*
X43898746Y-26870139D01*
X43859302Y-26827904D01*
X43859298Y-26827901D01*
X43854680Y-26822956D01*
X43818485Y-26800945D01*
X43810105Y-26795242D01*
X43784671Y-26775955D01*
X43776342Y-26769639D01*
X43770044Y-26767155D01*
X43770042Y-26767154D01*
X43757653Y-26762268D01*
X43742539Y-26754761D01*
X43741793Y-26754307D01*
X43725382Y-26744328D01*
X43684584Y-26732896D01*
X43674980Y-26729667D01*
X43641856Y-26716605D01*
X43641855Y-26716604D01*
X43635564Y-26714124D01*
X43628833Y-26713431D01*
X43628826Y-26713430D01*
X43615576Y-26712067D01*
X43599002Y-26708917D01*
X43586188Y-26705327D01*
X43586184Y-26705326D01*
X43579665Y-26703500D01*
X43572892Y-26703500D01*
X43537543Y-26703500D01*
X43503683Y-26697530D01*
X43473909Y-26680340D01*
X43405214Y-26622698D01*
X43400063Y-26620111D01*
X43253587Y-26546548D01*
X43253583Y-26546546D01*
X43248433Y-26543960D01*
X43234573Y-26540675D01*
X43083331Y-26504829D01*
X43083325Y-26504828D01*
X43077721Y-26503500D01*
X41502291Y-26503500D01*
X41499437Y-26503833D01*
X41499429Y-26503834D01*
X41377473Y-26518089D01*
X41377469Y-26518089D01*
X41371745Y-26518759D01*
X41366330Y-26520729D01*
X41366325Y-26520731D01*
X41250659Y-26562830D01*
X41206883Y-26578763D01*
X41202067Y-26581930D01*
X41202064Y-26581932D01*
X41064902Y-26672146D01*
X41014819Y-26688339D01*
X40963515Y-26676573D01*
X40925493Y-26640175D01*
X40911500Y-26589433D01*
X40911500Y-25438500D01*
X40924763Y-25389000D01*
X40961000Y-25352763D01*
X41010500Y-25339500D01*
X41095769Y-25339500D01*
X41140200Y-25350030D01*
G37*
G04 #@! TD.AperFunction*
G04 #@! TA.AperFunction,Conductor*
G36*
X27363860Y-15893649D02*
G01*
X27390094Y-15937023D01*
X27391420Y-15987695D01*
X27365829Y-16095668D01*
X27365828Y-16095675D01*
X27364500Y-16101279D01*
X27364500Y-16107043D01*
X27364500Y-17514500D01*
X27351237Y-17564000D01*
X27315000Y-17600237D01*
X27265500Y-17613500D01*
X25896291Y-17613500D01*
X25893437Y-17613833D01*
X25893429Y-17613834D01*
X25771473Y-17628089D01*
X25771469Y-17628089D01*
X25765745Y-17628759D01*
X25760330Y-17630729D01*
X25760325Y-17630731D01*
X25626141Y-17679570D01*
X25600883Y-17688763D01*
X25596067Y-17691930D01*
X25596064Y-17691932D01*
X25459118Y-17782003D01*
X25459113Y-17782006D01*
X25454304Y-17785170D01*
X25450353Y-17789357D01*
X25450349Y-17789361D01*
X25409709Y-17832438D01*
X25376911Y-17855403D01*
X25337699Y-17863500D01*
X25200454Y-17863500D01*
X25179410Y-17861237D01*
X25179266Y-17861205D01*
X25178994Y-17861146D01*
X25178989Y-17861145D01*
X25172073Y-17859641D01*
X25165010Y-17860146D01*
X25165008Y-17860146D01*
X25121644Y-17863248D01*
X25114581Y-17863500D01*
X25100201Y-17863500D01*
X25096715Y-17864001D01*
X25096702Y-17864002D01*
X25085959Y-17865547D01*
X25078938Y-17866302D01*
X25035575Y-17869404D01*
X25035574Y-17869404D01*
X25028517Y-17869909D01*
X25021891Y-17872379D01*
X25021877Y-17872383D01*
X25021466Y-17872537D01*
X25000989Y-17877763D01*
X25000555Y-17877825D01*
X25000544Y-17877828D01*
X24993543Y-17878835D01*
X24987110Y-17881772D01*
X24987102Y-17881775D01*
X24947565Y-17899831D01*
X24941040Y-17902534D01*
X24900304Y-17917728D01*
X24900296Y-17917731D01*
X24893669Y-17920204D01*
X24888004Y-17924444D01*
X24887999Y-17924447D01*
X24887646Y-17924712D01*
X24869461Y-17935501D01*
X24869070Y-17935679D01*
X24869063Y-17935683D01*
X24862627Y-17938623D01*
X24857278Y-17943257D01*
X24857276Y-17943259D01*
X24824432Y-17971718D01*
X24818934Y-17976149D01*
X24810239Y-17982657D01*
X24810223Y-17982670D01*
X24807407Y-17984779D01*
X24804915Y-17987270D01*
X24804902Y-17987282D01*
X24797231Y-17994953D01*
X24792067Y-17999761D01*
X24759208Y-18028234D01*
X24759203Y-18028239D01*
X24753857Y-18032872D01*
X24750030Y-18038825D01*
X24750024Y-18038833D01*
X24749790Y-18039198D01*
X24736518Y-18055666D01*
X24191666Y-18600518D01*
X24175198Y-18613790D01*
X24174833Y-18614024D01*
X24174825Y-18614030D01*
X24168872Y-18617857D01*
X24164239Y-18623203D01*
X24164234Y-18623208D01*
X24135761Y-18656067D01*
X24130953Y-18661231D01*
X24123282Y-18668902D01*
X24123270Y-18668915D01*
X24120779Y-18671407D01*
X24118670Y-18674223D01*
X24118657Y-18674239D01*
X24112149Y-18682934D01*
X24107718Y-18688432D01*
X24079259Y-18721276D01*
X24079257Y-18721278D01*
X24074623Y-18726627D01*
X24071683Y-18733063D01*
X24071679Y-18733070D01*
X24071501Y-18733461D01*
X24060712Y-18751646D01*
X24060447Y-18751999D01*
X24060444Y-18752004D01*
X24056204Y-18757669D01*
X24053731Y-18764296D01*
X24053728Y-18764304D01*
X24038534Y-18805040D01*
X24035831Y-18811565D01*
X24017775Y-18851102D01*
X24017772Y-18851110D01*
X24014835Y-18857543D01*
X24013828Y-18864544D01*
X24013825Y-18864555D01*
X24013763Y-18864989D01*
X24008537Y-18885466D01*
X24008383Y-18885877D01*
X24008379Y-18885891D01*
X24005909Y-18892517D01*
X24005404Y-18899574D01*
X24005404Y-18899575D01*
X24002302Y-18942938D01*
X24001547Y-18949959D01*
X24000002Y-18960702D01*
X24000001Y-18960715D01*
X23999500Y-18964201D01*
X23999500Y-18967735D01*
X23999500Y-18978581D01*
X23999248Y-18985644D01*
X23996420Y-19025188D01*
X23995641Y-19036073D01*
X23997145Y-19042989D01*
X23997146Y-19042994D01*
X23997237Y-19043408D01*
X23999500Y-19064454D01*
X23999500Y-19751680D01*
X23991964Y-19789566D01*
X23970503Y-19821684D01*
X23582797Y-20209388D01*
X23536233Y-20235569D01*
X23482845Y-20233745D01*
X23438176Y-20204447D01*
X23415233Y-20156205D01*
X23420697Y-20103065D01*
X23421339Y-20101439D01*
X23460166Y-20002979D01*
X23470500Y-19916927D01*
X23470499Y-19563074D01*
X23460166Y-19477021D01*
X23443739Y-19435365D01*
X23408646Y-19346374D01*
X23408645Y-19346372D01*
X23406163Y-19340078D01*
X23317216Y-19222784D01*
X23199922Y-19133837D01*
X23193629Y-19131355D01*
X23193625Y-19131353D01*
X23068885Y-19082163D01*
X23068884Y-19082162D01*
X23062979Y-19079834D01*
X23056682Y-19079077D01*
X23056675Y-19079076D01*
X22979855Y-19069851D01*
X22979844Y-19069850D01*
X22976927Y-19069500D01*
X22973975Y-19069500D01*
X22526025Y-19069500D01*
X22526008Y-19069500D01*
X22523074Y-19069501D01*
X22520158Y-19069851D01*
X22520143Y-19069852D01*
X22443323Y-19079077D01*
X22443320Y-19079077D01*
X22437021Y-19079834D01*
X22431122Y-19082160D01*
X22431115Y-19082162D01*
X22306374Y-19131353D01*
X22306366Y-19131356D01*
X22300078Y-19133837D01*
X22294689Y-19137922D01*
X22294688Y-19137924D01*
X22267275Y-19158711D01*
X22187264Y-19219386D01*
X22159005Y-19234336D01*
X22127449Y-19239500D01*
X19835082Y-19239500D01*
X19799319Y-19232815D01*
X19768386Y-19213662D01*
X19764847Y-19210436D01*
X19724590Y-19173736D01*
X19699683Y-19151030D01*
X19699681Y-19151028D01*
X19696302Y-19147948D01*
X19692413Y-19145540D01*
X19692409Y-19145537D01*
X19546461Y-19055170D01*
X19515019Y-19035702D01*
X19469559Y-19018091D01*
X19320467Y-18960332D01*
X19320459Y-18960329D01*
X19316198Y-18958679D01*
X19275574Y-18951085D01*
X19111116Y-18920342D01*
X19111112Y-18920341D01*
X19106610Y-18919500D01*
X18893390Y-18919500D01*
X18888888Y-18920341D01*
X18888883Y-18920342D01*
X18688305Y-18957837D01*
X18688302Y-18957837D01*
X18683802Y-18958679D01*
X18679543Y-18960328D01*
X18679532Y-18960332D01*
X18489250Y-19034048D01*
X18489248Y-19034048D01*
X18484981Y-19035702D01*
X18481087Y-19038112D01*
X18481085Y-19038114D01*
X18307590Y-19145537D01*
X18307581Y-19145543D01*
X18303698Y-19147948D01*
X18300323Y-19151024D01*
X18300316Y-19151030D01*
X18149512Y-19288507D01*
X18149506Y-19288513D01*
X18146128Y-19291593D01*
X18143372Y-19295241D01*
X18143365Y-19295250D01*
X18020396Y-19458087D01*
X18017634Y-19461745D01*
X18015595Y-19465838D01*
X18015591Y-19465846D01*
X17924637Y-19648509D01*
X17924635Y-19648513D01*
X17922595Y-19652611D01*
X17921344Y-19657005D01*
X17921341Y-19657015D01*
X17865494Y-19853294D01*
X17865492Y-19853302D01*
X17864244Y-19857690D01*
X17863822Y-19862235D01*
X17863822Y-19862240D01*
X17849727Y-20014353D01*
X17844571Y-20070000D01*
X17844993Y-20074554D01*
X17857670Y-20211366D01*
X17847713Y-20264628D01*
X17811209Y-20304672D01*
X17759092Y-20319500D01*
X15620773Y-20319500D01*
X15582887Y-20311964D01*
X15555965Y-20293976D01*
X15555785Y-20294215D01*
X15437395Y-20204438D01*
X15431097Y-20201954D01*
X15431093Y-20201952D01*
X15305080Y-20152259D01*
X15305079Y-20152258D01*
X15299174Y-20149930D01*
X15292873Y-20149173D01*
X15292872Y-20149173D01*
X15215248Y-20139851D01*
X15215237Y-20139850D01*
X15212320Y-20139500D01*
X14787680Y-20139500D01*
X14784763Y-20139850D01*
X14784751Y-20139851D01*
X14707127Y-20149173D01*
X14707124Y-20149173D01*
X14700826Y-20149930D01*
X14694922Y-20152258D01*
X14694919Y-20152259D01*
X14568906Y-20201952D01*
X14568899Y-20201955D01*
X14562605Y-20204438D01*
X14557211Y-20208528D01*
X14557208Y-20208530D01*
X14449614Y-20290120D01*
X14449610Y-20290123D01*
X14444215Y-20294215D01*
X14440123Y-20299610D01*
X14440120Y-20299614D01*
X14358530Y-20407208D01*
X14358528Y-20407211D01*
X14354438Y-20412605D01*
X14351955Y-20418899D01*
X14351952Y-20418906D01*
X14302259Y-20544919D01*
X14299930Y-20550826D01*
X14299173Y-20557124D01*
X14299173Y-20557127D01*
X14289851Y-20634751D01*
X14289850Y-20634763D01*
X14289500Y-20637680D01*
X14289500Y-21002320D01*
X14289850Y-21005237D01*
X14289851Y-21005248D01*
X14299173Y-21082872D01*
X14299930Y-21089174D01*
X14302258Y-21095079D01*
X14302259Y-21095080D01*
X14351952Y-21221093D01*
X14351954Y-21221097D01*
X14354438Y-21227395D01*
X14382085Y-21263853D01*
X14423106Y-21317949D01*
X14444215Y-21345785D01*
X14562605Y-21435562D01*
X14568904Y-21438046D01*
X14568906Y-21438047D01*
X14581423Y-21442983D01*
X14700826Y-21490070D01*
X14787680Y-21500500D01*
X15209368Y-21500500D01*
X15212320Y-21500500D01*
X15299174Y-21490070D01*
X15437395Y-21435562D01*
X15555785Y-21345785D01*
X15555965Y-21346023D01*
X15582887Y-21328036D01*
X15620773Y-21320500D01*
X18185546Y-21320500D01*
X18206589Y-21322762D01*
X18213927Y-21324359D01*
X18264355Y-21320752D01*
X18271419Y-21320500D01*
X18282259Y-21320500D01*
X18285799Y-21320500D01*
X18300049Y-21318450D01*
X18307043Y-21317698D01*
X18357483Y-21314091D01*
X18364511Y-21311469D01*
X18385024Y-21306233D01*
X18392457Y-21305165D01*
X18438437Y-21284165D01*
X18444962Y-21281462D01*
X18492331Y-21263796D01*
X18498342Y-21259295D01*
X18516546Y-21248494D01*
X18523373Y-21245377D01*
X18561599Y-21212252D01*
X18567042Y-21207866D01*
X18578593Y-21199221D01*
X18580331Y-21197482D01*
X18627937Y-21174887D01*
X18674811Y-21179526D01*
X18675128Y-21178414D01*
X18679530Y-21179666D01*
X18683802Y-21181321D01*
X18893390Y-21220500D01*
X19102027Y-21220500D01*
X19106610Y-21220500D01*
X19316198Y-21181321D01*
X19515019Y-21104298D01*
X19696302Y-20992052D01*
X19853872Y-20848407D01*
X19982366Y-20678255D01*
X20077405Y-20487389D01*
X20106775Y-20384165D01*
X20127193Y-20312407D01*
X20147233Y-20275088D01*
X20181036Y-20249562D01*
X20222414Y-20240500D01*
X21995532Y-20240500D01*
X22041827Y-20251991D01*
X22077375Y-20283798D01*
X22093923Y-20328535D01*
X22087630Y-20375817D01*
X22039834Y-20497021D01*
X22039078Y-20503315D01*
X22039076Y-20503324D01*
X22029851Y-20580144D01*
X22029850Y-20580156D01*
X22029500Y-20583073D01*
X22029500Y-20586023D01*
X22029500Y-20586024D01*
X22029500Y-20933973D01*
X22029500Y-20933989D01*
X22029501Y-20936926D01*
X22029851Y-20939842D01*
X22029852Y-20939856D01*
X22039077Y-21016676D01*
X22039834Y-21022979D01*
X22042160Y-21028879D01*
X22042162Y-21028884D01*
X22091353Y-21153625D01*
X22091355Y-21153629D01*
X22093837Y-21159922D01*
X22168173Y-21257949D01*
X22175725Y-21267908D01*
X22182784Y-21277216D01*
X22188183Y-21281310D01*
X22188185Y-21281312D01*
X22207708Y-21296117D01*
X22242249Y-21345051D01*
X22242249Y-21404949D01*
X22207708Y-21453883D01*
X22188185Y-21468687D01*
X22188179Y-21468692D01*
X22182784Y-21472784D01*
X22178692Y-21478179D01*
X22178689Y-21478183D01*
X22129766Y-21542698D01*
X22093837Y-21590078D01*
X22091356Y-21596366D01*
X22091353Y-21596374D01*
X22042163Y-21721114D01*
X22039834Y-21727021D01*
X22039078Y-21733315D01*
X22039076Y-21733324D01*
X22029851Y-21810144D01*
X22029850Y-21810156D01*
X22029500Y-21813073D01*
X22029500Y-21816023D01*
X22029500Y-21816024D01*
X22029500Y-22163973D01*
X22029500Y-22163989D01*
X22029501Y-22166926D01*
X22029851Y-22169842D01*
X22029852Y-22169856D01*
X22039077Y-22246676D01*
X22039834Y-22252979D01*
X22042160Y-22258879D01*
X22042162Y-22258884D01*
X22087630Y-22374182D01*
X22093923Y-22421465D01*
X22077375Y-22466202D01*
X22041827Y-22498009D01*
X21995532Y-22509500D01*
X21004454Y-22509500D01*
X20983410Y-22507237D01*
X20983266Y-22507205D01*
X20982994Y-22507146D01*
X20982989Y-22507145D01*
X20976073Y-22505641D01*
X20969010Y-22506146D01*
X20969008Y-22506146D01*
X20925644Y-22509248D01*
X20918581Y-22509500D01*
X20904201Y-22509500D01*
X20900715Y-22510001D01*
X20900702Y-22510002D01*
X20889959Y-22511547D01*
X20882938Y-22512302D01*
X20839575Y-22515404D01*
X20839574Y-22515404D01*
X20832517Y-22515909D01*
X20825891Y-22518379D01*
X20825877Y-22518383D01*
X20825466Y-22518537D01*
X20804989Y-22523763D01*
X20804555Y-22523825D01*
X20804544Y-22523828D01*
X20797543Y-22524835D01*
X20791110Y-22527772D01*
X20791102Y-22527775D01*
X20751565Y-22545831D01*
X20745040Y-22548534D01*
X20704304Y-22563728D01*
X20704296Y-22563731D01*
X20697669Y-22566204D01*
X20692004Y-22570444D01*
X20691999Y-22570447D01*
X20691646Y-22570712D01*
X20673461Y-22581501D01*
X20673070Y-22581679D01*
X20673063Y-22581683D01*
X20666627Y-22584623D01*
X20661278Y-22589257D01*
X20661276Y-22589259D01*
X20628421Y-22617727D01*
X20622927Y-22622155D01*
X20614230Y-22628666D01*
X20614225Y-22628669D01*
X20611407Y-22630780D01*
X20608915Y-22633271D01*
X20608909Y-22633277D01*
X20601239Y-22640946D01*
X20596075Y-22645753D01*
X20563207Y-22674234D01*
X20563199Y-22674242D01*
X20557857Y-22678872D01*
X20554034Y-22684818D01*
X20554027Y-22684828D01*
X20553790Y-22685198D01*
X20540516Y-22701669D01*
X19424742Y-23817443D01*
X19375184Y-23844305D01*
X19325246Y-23840268D01*
X19324872Y-23841586D01*
X19320467Y-23840332D01*
X19316198Y-23838679D01*
X19291933Y-23834143D01*
X19111116Y-23800342D01*
X19111112Y-23800341D01*
X19106610Y-23799500D01*
X18893390Y-23799500D01*
X18888888Y-23800341D01*
X18888883Y-23800342D01*
X18688305Y-23837837D01*
X18688302Y-23837837D01*
X18683802Y-23838679D01*
X18679534Y-23840332D01*
X18675880Y-23841372D01*
X18620498Y-23841021D01*
X18583596Y-23817194D01*
X18582143Y-23818872D01*
X18543948Y-23785776D01*
X18538775Y-23780961D01*
X18531088Y-23773274D01*
X18528593Y-23770779D01*
X18517062Y-23762147D01*
X18511578Y-23757728D01*
X18473373Y-23724623D01*
X18466933Y-23721681D01*
X18466932Y-23721681D01*
X18466544Y-23721504D01*
X18448345Y-23710706D01*
X18447996Y-23710444D01*
X18447992Y-23710442D01*
X18442331Y-23706204D01*
X18435704Y-23703732D01*
X18435700Y-23703730D01*
X18394970Y-23688539D01*
X18388441Y-23685835D01*
X18348897Y-23667776D01*
X18348896Y-23667775D01*
X18342457Y-23664835D01*
X18335452Y-23663827D01*
X18335443Y-23663825D01*
X18335014Y-23663764D01*
X18314520Y-23658533D01*
X18314116Y-23658382D01*
X18314111Y-23658380D01*
X18307483Y-23655909D01*
X18300425Y-23655404D01*
X18257063Y-23652302D01*
X18250042Y-23651547D01*
X18239299Y-23650002D01*
X18239283Y-23650000D01*
X18235799Y-23649500D01*
X18232265Y-23649500D01*
X18221419Y-23649500D01*
X18214356Y-23649248D01*
X18170991Y-23646146D01*
X18170989Y-23646146D01*
X18163927Y-23645641D01*
X18157010Y-23647145D01*
X18157005Y-23647146D01*
X18156706Y-23647211D01*
X18156589Y-23647237D01*
X18135546Y-23649500D01*
X15620773Y-23649500D01*
X15582887Y-23641964D01*
X15555965Y-23623976D01*
X15555785Y-23624215D01*
X15437395Y-23534438D01*
X15431097Y-23531954D01*
X15431093Y-23531952D01*
X15305080Y-23482259D01*
X15305079Y-23482258D01*
X15299174Y-23479930D01*
X15292873Y-23479173D01*
X15292872Y-23479173D01*
X15215248Y-23469851D01*
X15215237Y-23469850D01*
X15212320Y-23469500D01*
X14787680Y-23469500D01*
X14784763Y-23469850D01*
X14784751Y-23469851D01*
X14707127Y-23479173D01*
X14707124Y-23479173D01*
X14700826Y-23479930D01*
X14694922Y-23482258D01*
X14694919Y-23482259D01*
X14568906Y-23531952D01*
X14568899Y-23531955D01*
X14562605Y-23534438D01*
X14557211Y-23538528D01*
X14557208Y-23538530D01*
X14449614Y-23620120D01*
X14449610Y-23620123D01*
X14444215Y-23624215D01*
X14440123Y-23629610D01*
X14440120Y-23629614D01*
X14358530Y-23737208D01*
X14358528Y-23737211D01*
X14354438Y-23742605D01*
X14351955Y-23748899D01*
X14351952Y-23748906D01*
X14302259Y-23874919D01*
X14299930Y-23880826D01*
X14299173Y-23887124D01*
X14299173Y-23887127D01*
X14289851Y-23964751D01*
X14289850Y-23964763D01*
X14289500Y-23967680D01*
X14289500Y-24332320D01*
X14289850Y-24335237D01*
X14289851Y-24335248D01*
X14298533Y-24407544D01*
X14299930Y-24419174D01*
X14302258Y-24425079D01*
X14302259Y-24425080D01*
X14351952Y-24551093D01*
X14351954Y-24551097D01*
X14354438Y-24557395D01*
X14358530Y-24562791D01*
X14422306Y-24646894D01*
X14444215Y-24675785D01*
X14562605Y-24765562D01*
X14700826Y-24820070D01*
X14787680Y-24830500D01*
X15209368Y-24830500D01*
X15212320Y-24830500D01*
X15299174Y-24820070D01*
X15437395Y-24765562D01*
X15555785Y-24675785D01*
X15555965Y-24676023D01*
X15582887Y-24658036D01*
X15620773Y-24650500D01*
X17763725Y-24650500D01*
X17815842Y-24665328D01*
X17852346Y-24705372D01*
X17862303Y-24758634D01*
X17854582Y-24841964D01*
X17844571Y-24950000D01*
X17844993Y-24954554D01*
X17862175Y-25139988D01*
X17864244Y-25162310D01*
X17865493Y-25166699D01*
X17865494Y-25166705D01*
X17921341Y-25362984D01*
X17921343Y-25362990D01*
X17922595Y-25367389D01*
X17924636Y-25371489D01*
X17924637Y-25371490D01*
X18011424Y-25545785D01*
X18017634Y-25558255D01*
X18020396Y-25561912D01*
X18143365Y-25724749D01*
X18143368Y-25724752D01*
X18146128Y-25728407D01*
X18149511Y-25731491D01*
X18149512Y-25731492D01*
X18299370Y-25868107D01*
X18303698Y-25872052D01*
X18484981Y-25984298D01*
X18641595Y-26044970D01*
X18670487Y-26056163D01*
X18683802Y-26061321D01*
X18893390Y-26100500D01*
X19102027Y-26100500D01*
X19106610Y-26100500D01*
X19316198Y-26061321D01*
X19515019Y-25984298D01*
X19696302Y-25872052D01*
X19853872Y-25728407D01*
X19982366Y-25558255D01*
X20077405Y-25367389D01*
X20135756Y-25162310D01*
X20155429Y-24950000D01*
X20135756Y-24737690D01*
X20134505Y-24733295D01*
X20134504Y-24733287D01*
X20103914Y-24625780D01*
X20103313Y-24573801D01*
X20129128Y-24528684D01*
X21118317Y-23539495D01*
X21150435Y-23518036D01*
X21188321Y-23510500D01*
X22127449Y-23510500D01*
X22159005Y-23515664D01*
X22187264Y-23530613D01*
X22300078Y-23616163D01*
X22306372Y-23618645D01*
X22306374Y-23618646D01*
X22328553Y-23627392D01*
X22437021Y-23670166D01*
X22443323Y-23670922D01*
X22443324Y-23670923D01*
X22460121Y-23672940D01*
X22523073Y-23680500D01*
X22976926Y-23680499D01*
X23062979Y-23670166D01*
X23199922Y-23616163D01*
X23312735Y-23530613D01*
X23340995Y-23515664D01*
X23372551Y-23510500D01*
X23425546Y-23510500D01*
X23446589Y-23512762D01*
X23453927Y-23514359D01*
X23499942Y-23511067D01*
X23557520Y-23524673D01*
X23597058Y-23568688D01*
X23604432Y-23627392D01*
X23577009Y-23679819D01*
X21635945Y-25620884D01*
X21633515Y-25623231D01*
X21593483Y-25660619D01*
X21593479Y-25660623D01*
X21588531Y-25665245D01*
X21585012Y-25671030D01*
X21585009Y-25671035D01*
X21567635Y-25699604D01*
X21561935Y-25707980D01*
X21541728Y-25734627D01*
X21541724Y-25734633D01*
X21537636Y-25740025D01*
X21535150Y-25746326D01*
X21535151Y-25746326D01*
X21530741Y-25757507D01*
X21523238Y-25772613D01*
X21517155Y-25782618D01*
X21513474Y-25788672D01*
X21511649Y-25795184D01*
X21511646Y-25795192D01*
X21502623Y-25827394D01*
X21499393Y-25836998D01*
X21487125Y-25868107D01*
X21487121Y-25868119D01*
X21484641Y-25874411D01*
X21483949Y-25881139D01*
X21483948Y-25881144D01*
X21482719Y-25893101D01*
X21479568Y-25909677D01*
X21476326Y-25921248D01*
X21476324Y-25921260D01*
X21474500Y-25927772D01*
X21474500Y-25934541D01*
X21474500Y-25967986D01*
X21473981Y-25978110D01*
X21471217Y-26005001D01*
X21469869Y-26018110D01*
X21471017Y-26024773D01*
X21471018Y-26024779D01*
X21473061Y-26036625D01*
X21474500Y-26053445D01*
X21474500Y-27741323D01*
X21466964Y-27779209D01*
X21445504Y-27811327D01*
X19721327Y-29535504D01*
X19689209Y-29556964D01*
X19651323Y-29564500D01*
X16039534Y-29564500D01*
X15981577Y-29545762D01*
X15945559Y-29496641D01*
X15939908Y-29479588D01*
X15938097Y-29474122D01*
X15850596Y-29332261D01*
X15732739Y-29214404D01*
X15727839Y-29211381D01*
X15727837Y-29211380D01*
X15602071Y-29133807D01*
X15590878Y-29126903D01*
X15585414Y-29125092D01*
X15585409Y-29125090D01*
X15437795Y-29076176D01*
X15437790Y-29076174D01*
X15432663Y-29074476D01*
X15427284Y-29073926D01*
X15427282Y-29073926D01*
X15337533Y-29064757D01*
X15337524Y-29064756D01*
X15335013Y-29064500D01*
X15332483Y-29064500D01*
X14914500Y-29064500D01*
X14865000Y-29051237D01*
X14828763Y-29015000D01*
X14815500Y-28965500D01*
X14815500Y-28458022D01*
X14825836Y-28413979D01*
X14848065Y-28387130D01*
X14847031Y-28386096D01*
X14851814Y-28381311D01*
X14857216Y-28377216D01*
X14946163Y-28259922D01*
X15000166Y-28122979D01*
X15010500Y-28036927D01*
X15010499Y-27683074D01*
X15000166Y-27597021D01*
X14946163Y-27460078D01*
X14857216Y-27342784D01*
X14739922Y-27253837D01*
X14733629Y-27251355D01*
X14733625Y-27251353D01*
X14608885Y-27202163D01*
X14608884Y-27202162D01*
X14602979Y-27199834D01*
X14596682Y-27199077D01*
X14596675Y-27199076D01*
X14519855Y-27189851D01*
X14519844Y-27189850D01*
X14516927Y-27189500D01*
X14513975Y-27189500D01*
X14066025Y-27189500D01*
X14066008Y-27189500D01*
X14063074Y-27189501D01*
X14060158Y-27189851D01*
X14060143Y-27189852D01*
X13983323Y-27199077D01*
X13983320Y-27199077D01*
X13977021Y-27199834D01*
X13971122Y-27202160D01*
X13971115Y-27202162D01*
X13846374Y-27251353D01*
X13846366Y-27251356D01*
X13840078Y-27253837D01*
X13834686Y-27257925D01*
X13834684Y-27257927D01*
X13728183Y-27338689D01*
X13728179Y-27338692D01*
X13722784Y-27342784D01*
X13718692Y-27348179D01*
X13718689Y-27348183D01*
X13647140Y-27442535D01*
X13633837Y-27460078D01*
X13631356Y-27466366D01*
X13631353Y-27466374D01*
X13592681Y-27564442D01*
X13579834Y-27597021D01*
X13579078Y-27603315D01*
X13579076Y-27603324D01*
X13569851Y-27680144D01*
X13569850Y-27680156D01*
X13569500Y-27683073D01*
X13569500Y-27686023D01*
X13569500Y-27686024D01*
X13569500Y-28033973D01*
X13569500Y-28033989D01*
X13569501Y-28036926D01*
X13569851Y-28039842D01*
X13569852Y-28039856D01*
X13576537Y-28095524D01*
X13579834Y-28122979D01*
X13582160Y-28128879D01*
X13582162Y-28128884D01*
X13631353Y-28253625D01*
X13631355Y-28253629D01*
X13633837Y-28259922D01*
X13722784Y-28377216D01*
X13728183Y-28381310D01*
X13732969Y-28386096D01*
X13731934Y-28387130D01*
X13754164Y-28413979D01*
X13764500Y-28458022D01*
X13764500Y-28965501D01*
X13751237Y-29015001D01*
X13715000Y-29051238D01*
X13665500Y-29064501D01*
X13364988Y-29064501D01*
X13362480Y-29064757D01*
X13362464Y-29064758D01*
X13272716Y-29073926D01*
X13272711Y-29073927D01*
X13267337Y-29074476D01*
X13262216Y-29076172D01*
X13262206Y-29076175D01*
X13114590Y-29125090D01*
X13114581Y-29125093D01*
X13109122Y-29126903D01*
X13104222Y-29129924D01*
X13104214Y-29129929D01*
X13101473Y-29131620D01*
X13099057Y-29132333D01*
X13098986Y-29132367D01*
X13098980Y-29132356D01*
X13051660Y-29146336D01*
X13001252Y-29133807D01*
X12964126Y-29097482D01*
X12950500Y-29047360D01*
X12950500Y-16888454D01*
X12962704Y-16840836D01*
X12996307Y-16804959D01*
X13043024Y-16789666D01*
X13091338Y-16798729D01*
X13094216Y-16800070D01*
X13099122Y-16803097D01*
X13257337Y-16855524D01*
X13354987Y-16865500D01*
X15325012Y-16865499D01*
X15422663Y-16855524D01*
X15580878Y-16803097D01*
X15722739Y-16715596D01*
X15818838Y-16619496D01*
X15850957Y-16598036D01*
X15888843Y-16590500D01*
X18917721Y-16590500D01*
X18943236Y-16590500D01*
X18957584Y-16591545D01*
X18983424Y-16595330D01*
X19034324Y-16590877D01*
X19042953Y-16590500D01*
X19049151Y-16590500D01*
X21082641Y-16590500D01*
X21133035Y-16604286D01*
X21199610Y-16643659D01*
X21351373Y-16687750D01*
X21386837Y-16690541D01*
X22013162Y-16690540D01*
X22048627Y-16687750D01*
X22200390Y-16643659D01*
X22266897Y-16604326D01*
X22317292Y-16590541D01*
X24161093Y-16590541D01*
X24172177Y-16591163D01*
X24209161Y-16595330D01*
X24300000Y-16605565D01*
X24479255Y-16585368D01*
X24649522Y-16525789D01*
X24745194Y-16465674D01*
X24797866Y-16450500D01*
X26318013Y-16450500D01*
X26327329Y-16450939D01*
X26332214Y-16451400D01*
X26338296Y-16452760D01*
X26408643Y-16450549D01*
X26411754Y-16450500D01*
X26437813Y-16450500D01*
X26440925Y-16450500D01*
X26446463Y-16449799D01*
X26455757Y-16449067D01*
X26502569Y-16447597D01*
X26524835Y-16441127D01*
X26540044Y-16437977D01*
X26563058Y-16435071D01*
X26606630Y-16417818D01*
X26615402Y-16414815D01*
X26660398Y-16401744D01*
X26680355Y-16389940D01*
X26694311Y-16383103D01*
X26715871Y-16374568D01*
X26753763Y-16347037D01*
X26761554Y-16341921D01*
X26796497Y-16321256D01*
X26796499Y-16321254D01*
X26801865Y-16318081D01*
X26818266Y-16301678D01*
X26830071Y-16291596D01*
X26848837Y-16277963D01*
X26878694Y-16241869D01*
X26884963Y-16234982D01*
X27225086Y-15894860D01*
X27268910Y-15869388D01*
X27319598Y-15868946D01*
X27363860Y-15893649D01*
G37*
G04 #@! TD.AperFunction*
G04 #@! TA.AperFunction,Conductor*
G36*
X56900000Y-13083763D02*
G01*
X56936237Y-13120000D01*
X56949500Y-13169500D01*
X56949500Y-26037360D01*
X56935874Y-26087482D01*
X56898748Y-26123807D01*
X56848340Y-26136336D01*
X56801019Y-26122356D01*
X56801014Y-26122367D01*
X56800942Y-26122333D01*
X56798527Y-26121620D01*
X56795785Y-26119929D01*
X56795780Y-26119926D01*
X56790878Y-26116903D01*
X56785414Y-26115092D01*
X56785409Y-26115090D01*
X56637795Y-26066176D01*
X56637790Y-26066174D01*
X56632663Y-26064476D01*
X56627284Y-26063926D01*
X56627282Y-26063926D01*
X56537533Y-26054757D01*
X56537524Y-26054756D01*
X56535013Y-26054500D01*
X56532483Y-26054500D01*
X56199500Y-26054500D01*
X56150000Y-26041237D01*
X56113763Y-26005000D01*
X56100500Y-25955500D01*
X56100500Y-25561079D01*
X56100558Y-25557699D01*
X56101149Y-25540385D01*
X56102762Y-25493174D01*
X56092729Y-25452007D01*
X56090838Y-25442052D01*
X56085070Y-25400080D01*
X56077067Y-25381658D01*
X56071687Y-25365660D01*
X56066933Y-25346148D01*
X56057801Y-25329906D01*
X56046167Y-25309214D01*
X56041657Y-25300134D01*
X56027479Y-25267493D01*
X56027478Y-25267491D01*
X56024780Y-25261280D01*
X56014561Y-25248719D01*
X56012108Y-25245704D01*
X56002609Y-25231747D01*
X56001047Y-25228970D01*
X55992766Y-25214241D01*
X55962800Y-25184275D01*
X55956008Y-25176748D01*
X55954829Y-25175299D01*
X55929278Y-25143892D01*
X55923749Y-25139989D01*
X55923748Y-25139988D01*
X55912871Y-25132310D01*
X55899960Y-25121435D01*
X55679495Y-24900970D01*
X55658035Y-24868852D01*
X55650499Y-24830966D01*
X55650499Y-24222376D01*
X55650499Y-24218482D01*
X55635646Y-24124696D01*
X55635211Y-24123842D01*
X55631434Y-24099998D01*
X55635211Y-24076156D01*
X55635646Y-24075304D01*
X55650500Y-23981519D01*
X55650499Y-22918482D01*
X55635646Y-22824696D01*
X55578050Y-22711658D01*
X55488342Y-22621950D01*
X55400286Y-22577083D01*
X55382248Y-22567892D01*
X55382247Y-22567891D01*
X55375304Y-22564354D01*
X55368390Y-22563258D01*
X55333258Y-22542976D01*
X55309059Y-22509671D01*
X55300500Y-22469403D01*
X55300500Y-22332551D01*
X55305664Y-22300995D01*
X55320613Y-22272735D01*
X55406163Y-22159922D01*
X55460166Y-22022979D01*
X55470500Y-21936927D01*
X55470499Y-21583074D01*
X55460166Y-21497021D01*
X55430791Y-21422530D01*
X55408646Y-21366374D01*
X55408645Y-21366372D01*
X55406163Y-21360078D01*
X55317216Y-21242784D01*
X55199922Y-21153837D01*
X55193629Y-21151355D01*
X55193625Y-21151353D01*
X55068885Y-21102163D01*
X55068884Y-21102162D01*
X55062979Y-21099834D01*
X55056682Y-21099077D01*
X55056675Y-21099076D01*
X54979855Y-21089851D01*
X54979844Y-21089850D01*
X54976927Y-21089500D01*
X54973975Y-21089500D01*
X54526025Y-21089500D01*
X54526008Y-21089500D01*
X54523074Y-21089501D01*
X54520158Y-21089851D01*
X54520143Y-21089852D01*
X54443323Y-21099077D01*
X54443320Y-21099077D01*
X54437021Y-21099834D01*
X54431122Y-21102160D01*
X54431115Y-21102162D01*
X54306374Y-21151353D01*
X54306366Y-21151356D01*
X54300078Y-21153837D01*
X54294686Y-21157925D01*
X54294684Y-21157927D01*
X54188183Y-21238689D01*
X54188179Y-21238692D01*
X54182784Y-21242784D01*
X54178692Y-21248179D01*
X54178689Y-21248183D01*
X54097927Y-21354684D01*
X54093837Y-21360078D01*
X54091356Y-21366366D01*
X54091353Y-21366374D01*
X54043494Y-21487740D01*
X54039834Y-21497021D01*
X54039078Y-21503315D01*
X54039076Y-21503324D01*
X54029851Y-21580144D01*
X54029850Y-21580156D01*
X54029500Y-21583073D01*
X54029500Y-21586023D01*
X54029500Y-21586024D01*
X54029500Y-21933973D01*
X54029500Y-21933989D01*
X54029501Y-21936926D01*
X54029851Y-21939842D01*
X54029852Y-21939856D01*
X54032627Y-21962961D01*
X54039834Y-22022979D01*
X54042160Y-22028879D01*
X54042162Y-22028884D01*
X54091353Y-22153625D01*
X54091355Y-22153629D01*
X54093837Y-22159922D01*
X54179386Y-22272735D01*
X54194336Y-22300995D01*
X54199500Y-22332551D01*
X54199500Y-22469403D01*
X54190941Y-22509671D01*
X54166742Y-22542976D01*
X54131609Y-22563259D01*
X54124696Y-22564354D01*
X54117754Y-22567890D01*
X54117751Y-22567892D01*
X54018597Y-22618414D01*
X54018595Y-22618415D01*
X54011658Y-22621950D01*
X54006154Y-22627453D01*
X54006151Y-22627456D01*
X53927456Y-22706151D01*
X53927453Y-22706154D01*
X53921950Y-22711658D01*
X53918415Y-22718595D01*
X53918414Y-22718597D01*
X53867890Y-22817755D01*
X53867888Y-22817758D01*
X53864354Y-22824696D01*
X53863135Y-22832387D01*
X53863135Y-22832390D01*
X53851884Y-22903430D01*
X53849500Y-22918481D01*
X53849500Y-22922373D01*
X53849500Y-22922374D01*
X53849500Y-23977623D01*
X53849500Y-23977635D01*
X53849501Y-23981518D01*
X53850109Y-23985360D01*
X53850110Y-23985366D01*
X53861915Y-24059906D01*
X53863720Y-24071300D01*
X53864354Y-24075304D01*
X53863720Y-24075404D01*
X53863720Y-24124594D01*
X53864354Y-24124695D01*
X53863720Y-24128692D01*
X53863720Y-24128698D01*
X53863136Y-24132385D01*
X53863135Y-24132389D01*
X53861774Y-24140986D01*
X53844086Y-24183690D01*
X53808938Y-24213709D01*
X53763993Y-24224500D01*
X53160666Y-24224500D01*
X53157286Y-24224442D01*
X53102524Y-24222571D01*
X53102522Y-24222571D01*
X53095755Y-24222340D01*
X53056686Y-24231860D01*
X53046738Y-24233751D01*
X53013595Y-24238307D01*
X53013593Y-24238307D01*
X53006889Y-24239229D01*
X53000681Y-24241925D01*
X53000675Y-24241927D01*
X52989649Y-24246716D01*
X52973657Y-24252094D01*
X52961981Y-24254939D01*
X52961970Y-24254943D01*
X52955406Y-24256543D01*
X52949508Y-24259858D01*
X52949508Y-24259859D01*
X52920366Y-24276244D01*
X52911292Y-24280751D01*
X52880603Y-24294081D01*
X52880593Y-24294086D01*
X52874391Y-24296781D01*
X52869142Y-24301051D01*
X52869139Y-24301053D01*
X52859813Y-24308640D01*
X52845866Y-24318131D01*
X52835394Y-24324019D01*
X52835383Y-24324027D01*
X52829488Y-24327342D01*
X52824705Y-24332124D01*
X52824697Y-24332131D01*
X52801044Y-24355784D01*
X52793521Y-24362573D01*
X52767590Y-24383669D01*
X52767583Y-24383676D01*
X52762335Y-24387946D01*
X52758432Y-24393473D01*
X52758427Y-24393480D01*
X52751499Y-24403295D01*
X52740627Y-24416201D01*
X52311328Y-24845503D01*
X52279210Y-24866964D01*
X52241324Y-24874500D01*
X51908022Y-24874500D01*
X51863979Y-24864164D01*
X51837130Y-24841934D01*
X51836096Y-24842969D01*
X51831310Y-24838183D01*
X51827216Y-24832784D01*
X51709922Y-24743837D01*
X51703629Y-24741355D01*
X51703625Y-24741353D01*
X51578885Y-24692163D01*
X51578884Y-24692162D01*
X51572979Y-24689834D01*
X51566682Y-24689077D01*
X51566675Y-24689076D01*
X51489855Y-24679851D01*
X51489844Y-24679850D01*
X51486927Y-24679500D01*
X51483975Y-24679500D01*
X51136026Y-24679500D01*
X51136009Y-24679500D01*
X51133074Y-24679501D01*
X51130158Y-24679851D01*
X51130143Y-24679852D01*
X51053323Y-24689077D01*
X51053320Y-24689077D01*
X51047021Y-24689834D01*
X51041122Y-24692160D01*
X51041115Y-24692162D01*
X50916374Y-24741353D01*
X50916366Y-24741356D01*
X50910078Y-24743837D01*
X50904685Y-24747925D01*
X50904684Y-24747927D01*
X50859819Y-24781949D01*
X50821244Y-24799759D01*
X50778756Y-24799759D01*
X50740181Y-24781949D01*
X50709435Y-24758634D01*
X50689922Y-24743837D01*
X50683629Y-24741355D01*
X50683625Y-24741353D01*
X50558885Y-24692163D01*
X50558884Y-24692162D01*
X50552979Y-24689834D01*
X50546682Y-24689077D01*
X50546675Y-24689076D01*
X50469855Y-24679851D01*
X50469844Y-24679850D01*
X50466927Y-24679500D01*
X50463975Y-24679500D01*
X50116026Y-24679500D01*
X50116009Y-24679500D01*
X50113074Y-24679501D01*
X50110158Y-24679851D01*
X50110143Y-24679852D01*
X50033323Y-24689077D01*
X50033320Y-24689077D01*
X50027021Y-24689834D01*
X50021122Y-24692160D01*
X50021115Y-24692162D01*
X49896374Y-24741353D01*
X49896366Y-24741356D01*
X49890078Y-24743837D01*
X49884689Y-24747922D01*
X49884688Y-24747924D01*
X49870565Y-24758634D01*
X49777264Y-24829386D01*
X49749005Y-24844336D01*
X49717449Y-24849500D01*
X47969033Y-24849500D01*
X47931147Y-24841964D01*
X47899029Y-24820504D01*
X46141095Y-23062570D01*
X46138746Y-23060139D01*
X46099302Y-23017904D01*
X46099298Y-23017901D01*
X46094680Y-23012956D01*
X46086502Y-23007983D01*
X46058485Y-22990945D01*
X46050105Y-22985242D01*
X46039938Y-22977532D01*
X46016342Y-22959639D01*
X46010044Y-22957155D01*
X46010042Y-22957154D01*
X45997653Y-22952268D01*
X45982539Y-22944761D01*
X45981793Y-22944307D01*
X45965382Y-22934328D01*
X45924584Y-22922896D01*
X45914980Y-22919667D01*
X45911972Y-22918481D01*
X45875564Y-22904124D01*
X45868833Y-22903431D01*
X45868826Y-22903430D01*
X45855576Y-22902067D01*
X45839002Y-22898917D01*
X45826188Y-22895327D01*
X45826184Y-22895326D01*
X45819665Y-22893500D01*
X45812892Y-22893500D01*
X45777300Y-22893500D01*
X45767176Y-22892981D01*
X45731763Y-22889340D01*
X45731760Y-22889340D01*
X45725028Y-22888648D01*
X45718359Y-22889797D01*
X45718353Y-22889798D01*
X45705239Y-22892060D01*
X45688418Y-22893500D01*
X43572489Y-22893500D01*
X43518088Y-22877213D01*
X43481586Y-22833712D01*
X43474993Y-22777309D01*
X43500479Y-22726562D01*
X43527744Y-22697662D01*
X43596092Y-22625218D01*
X43683812Y-22473281D01*
X43734130Y-22305210D01*
X43744331Y-22130065D01*
X43713865Y-21957289D01*
X43644377Y-21796196D01*
X43539610Y-21655470D01*
X43493411Y-21616704D01*
X43463378Y-21572915D01*
X43460291Y-21519907D01*
X43485035Y-21472930D01*
X43596092Y-21355218D01*
X43683812Y-21203281D01*
X43734130Y-21035210D01*
X43744331Y-20860065D01*
X43713865Y-20687289D01*
X43644377Y-20526196D01*
X43539610Y-20385470D01*
X43528107Y-20375818D01*
X43493411Y-20346704D01*
X43463378Y-20302915D01*
X43460291Y-20249907D01*
X43485035Y-20202930D01*
X43596092Y-20085218D01*
X43683812Y-19933281D01*
X43734130Y-19765210D01*
X43744331Y-19590065D01*
X43713865Y-19417289D01*
X43644377Y-19256196D01*
X43539610Y-19115470D01*
X43535191Y-19111762D01*
X43493411Y-19076704D01*
X43463378Y-19032915D01*
X43460291Y-18979907D01*
X43485035Y-18932930D01*
X43596092Y-18815218D01*
X43683812Y-18663281D01*
X43734130Y-18495210D01*
X43744331Y-18320065D01*
X43713865Y-18147289D01*
X43644377Y-17986196D01*
X43539610Y-17845470D01*
X43405214Y-17732698D01*
X43317732Y-17688763D01*
X43253587Y-17656548D01*
X43253583Y-17656546D01*
X43248433Y-17653960D01*
X43234573Y-17650675D01*
X43083331Y-17614829D01*
X43083325Y-17614828D01*
X43077721Y-17613500D01*
X43071957Y-17613500D01*
X41664500Y-17613500D01*
X41615000Y-17600237D01*
X41578763Y-17564000D01*
X41565500Y-17514500D01*
X41565500Y-16148175D01*
X41565500Y-16145291D01*
X41550241Y-16014745D01*
X41490237Y-15849883D01*
X41393830Y-15703304D01*
X41366469Y-15677490D01*
X41274409Y-15590635D01*
X43981500Y-15590635D01*
X43981501Y-15594518D01*
X43982109Y-15598360D01*
X43982110Y-15598366D01*
X43994804Y-15678521D01*
X43996354Y-15688304D01*
X44053950Y-15801342D01*
X44143658Y-15891050D01*
X44256696Y-15948646D01*
X44350481Y-15963500D01*
X45763518Y-15963499D01*
X45857304Y-15948646D01*
X45970342Y-15891050D01*
X46060050Y-15801342D01*
X46117646Y-15688304D01*
X46118865Y-15680603D01*
X46119860Y-15677543D01*
X46145978Y-15636217D01*
X46188686Y-15612427D01*
X46237571Y-15611975D01*
X46280712Y-15634970D01*
X46403011Y-15746460D01*
X46410285Y-15751953D01*
X46571883Y-15852011D01*
X46580048Y-15856077D01*
X46757282Y-15924738D01*
X46766055Y-15927233D01*
X46788661Y-15931459D01*
X46799775Y-15930257D01*
X46803000Y-15919554D01*
X47311000Y-15919554D01*
X47314224Y-15930257D01*
X47325338Y-15931459D01*
X47347944Y-15927233D01*
X47356717Y-15924738D01*
X47533951Y-15856077D01*
X47542116Y-15852011D01*
X47703714Y-15751953D01*
X47710988Y-15746460D01*
X47851461Y-15618402D01*
X47857590Y-15611679D01*
X47972136Y-15459996D01*
X47972526Y-15459368D01*
X47972833Y-15459074D01*
X47974899Y-15456339D01*
X47975344Y-15456675D01*
X48008522Y-15424991D01*
X48056697Y-15412475D01*
X48104874Y-15424984D01*
X48138292Y-15456891D01*
X48138674Y-15456604D01*
X48258791Y-15615664D01*
X48406090Y-15749945D01*
X48575554Y-15854873D01*
X48579821Y-15856526D01*
X48579823Y-15856527D01*
X48757144Y-15925222D01*
X48757146Y-15925222D01*
X48761414Y-15926876D01*
X48957340Y-15963500D01*
X49152077Y-15963500D01*
X49156660Y-15963500D01*
X49352586Y-15926876D01*
X49538446Y-15854873D01*
X49707910Y-15749945D01*
X49855209Y-15615664D01*
X49975326Y-15456604D01*
X49975822Y-15456978D01*
X50008823Y-15425465D01*
X50057000Y-15412952D01*
X50105177Y-15425465D01*
X50138177Y-15456978D01*
X50138674Y-15456604D01*
X50258791Y-15615664D01*
X50406090Y-15749945D01*
X50575554Y-15854873D01*
X50579821Y-15856526D01*
X50579823Y-15856527D01*
X50757144Y-15925222D01*
X50757146Y-15925222D01*
X50761414Y-15926876D01*
X50957340Y-15963500D01*
X51152077Y-15963500D01*
X51156660Y-15963500D01*
X51352586Y-15926876D01*
X51538446Y-15854873D01*
X51707910Y-15749945D01*
X51855209Y-15615664D01*
X51975326Y-15456604D01*
X51975822Y-15456978D01*
X52008823Y-15425465D01*
X52057000Y-15412952D01*
X52105177Y-15425465D01*
X52138177Y-15456978D01*
X52138674Y-15456604D01*
X52258791Y-15615664D01*
X52406090Y-15749945D01*
X52575554Y-15854873D01*
X52579821Y-15856526D01*
X52579823Y-15856527D01*
X52757144Y-15925222D01*
X52757146Y-15925222D01*
X52761414Y-15926876D01*
X52957340Y-15963500D01*
X53152077Y-15963500D01*
X53156660Y-15963500D01*
X53352586Y-15926876D01*
X53538446Y-15854873D01*
X53707910Y-15749945D01*
X53855209Y-15615664D01*
X53975326Y-15456604D01*
X53975822Y-15456978D01*
X54008823Y-15425465D01*
X54057000Y-15412952D01*
X54105177Y-15425465D01*
X54138177Y-15456978D01*
X54138673Y-15456604D01*
X54140968Y-15459644D01*
X54140974Y-15459649D01*
X54141430Y-15460253D01*
X54141438Y-15460266D01*
X54154503Y-15477566D01*
X54169368Y-15505765D01*
X54174500Y-15537227D01*
X54174500Y-16628310D01*
X54159911Y-16680037D01*
X54120445Y-16716520D01*
X54018597Y-16768414D01*
X54018595Y-16768415D01*
X54011658Y-16771950D01*
X54006154Y-16777453D01*
X54006151Y-16777456D01*
X53927456Y-16856151D01*
X53927453Y-16856154D01*
X53921950Y-16861658D01*
X53918415Y-16868595D01*
X53918414Y-16868597D01*
X53864354Y-16974696D01*
X53861849Y-16973419D01*
X53833481Y-17012459D01*
X53775295Y-17031363D01*
X53280657Y-17031363D01*
X53249101Y-17026199D01*
X53220838Y-17011247D01*
X53182783Y-16982389D01*
X53140995Y-16950700D01*
X53134702Y-16948218D01*
X53134698Y-16948216D01*
X53009958Y-16899026D01*
X53009957Y-16899025D01*
X53004052Y-16896697D01*
X52997755Y-16895940D01*
X52997748Y-16895939D01*
X52920928Y-16886714D01*
X52920917Y-16886713D01*
X52918000Y-16886363D01*
X52915048Y-16886363D01*
X52567099Y-16886363D01*
X52567082Y-16886363D01*
X52564147Y-16886364D01*
X52561231Y-16886714D01*
X52561216Y-16886715D01*
X52484396Y-16895940D01*
X52484393Y-16895940D01*
X52478094Y-16896697D01*
X52472195Y-16899023D01*
X52472188Y-16899025D01*
X52347447Y-16948216D01*
X52347439Y-16948219D01*
X52341151Y-16950700D01*
X52335758Y-16954788D01*
X52335757Y-16954790D01*
X52290892Y-16988812D01*
X52252317Y-17006622D01*
X52209829Y-17006622D01*
X52171254Y-16988812D01*
X52143488Y-16967757D01*
X52120995Y-16950700D01*
X52114702Y-16948218D01*
X52114698Y-16948216D01*
X51989958Y-16899026D01*
X51989957Y-16899025D01*
X51984052Y-16896697D01*
X51977755Y-16895940D01*
X51977748Y-16895939D01*
X51900928Y-16886714D01*
X51900917Y-16886713D01*
X51898000Y-16886363D01*
X51895048Y-16886363D01*
X51547099Y-16886363D01*
X51547082Y-16886363D01*
X51544147Y-16886364D01*
X51541231Y-16886714D01*
X51541216Y-16886715D01*
X51464396Y-16895940D01*
X51464393Y-16895940D01*
X51458094Y-16896697D01*
X51452195Y-16899023D01*
X51452188Y-16899025D01*
X51327447Y-16948216D01*
X51327439Y-16948219D01*
X51321151Y-16950700D01*
X51315762Y-16954785D01*
X51315761Y-16954787D01*
X51298658Y-16967757D01*
X51208337Y-17036249D01*
X51180078Y-17051199D01*
X51148522Y-17056363D01*
X49867003Y-17056363D01*
X49829117Y-17048827D01*
X49796999Y-17027367D01*
X49753558Y-16983926D01*
X49749628Y-16979996D01*
X49699050Y-16948216D01*
X49620765Y-16899026D01*
X49596888Y-16884023D01*
X49591637Y-16882185D01*
X49591636Y-16882185D01*
X49431869Y-16826280D01*
X49431866Y-16826279D01*
X49426621Y-16824444D01*
X49421104Y-16823822D01*
X49421098Y-16823821D01*
X49252886Y-16804869D01*
X49247366Y-16804247D01*
X49241846Y-16804869D01*
X49073633Y-16823821D01*
X49073625Y-16823822D01*
X49068111Y-16824444D01*
X49062867Y-16826278D01*
X49062862Y-16826280D01*
X48903095Y-16882185D01*
X48903090Y-16882187D01*
X48897844Y-16884023D01*
X48893137Y-16886980D01*
X48893134Y-16886982D01*
X48749812Y-16977037D01*
X48749807Y-16977040D01*
X48745104Y-16979996D01*
X48741177Y-16983922D01*
X48741173Y-16983926D01*
X48621480Y-17103619D01*
X48621476Y-17103623D01*
X48617550Y-17107550D01*
X48614594Y-17112253D01*
X48614591Y-17112258D01*
X48524536Y-17255580D01*
X48521577Y-17260290D01*
X48519741Y-17265536D01*
X48519739Y-17265541D01*
X48463834Y-17425308D01*
X48463832Y-17425313D01*
X48461998Y-17430557D01*
X48461376Y-17436071D01*
X48461375Y-17436079D01*
X48452540Y-17514500D01*
X48441801Y-17609812D01*
X48442423Y-17615332D01*
X48461375Y-17783544D01*
X48461376Y-17783550D01*
X48461998Y-17789067D01*
X48463833Y-17794312D01*
X48463834Y-17794315D01*
X48514330Y-17938623D01*
X48521577Y-17959334D01*
X48535551Y-17981574D01*
X48614120Y-18106616D01*
X48617550Y-18112074D01*
X48745104Y-18239628D01*
X48897844Y-18335601D01*
X49068111Y-18395180D01*
X49247366Y-18415377D01*
X49426621Y-18395180D01*
X49596888Y-18335601D01*
X49749628Y-18239628D01*
X49802897Y-18186359D01*
X49835015Y-18164899D01*
X49872901Y-18157363D01*
X51148522Y-18157363D01*
X51180078Y-18162527D01*
X51208337Y-18177476D01*
X51321151Y-18263026D01*
X51327445Y-18265508D01*
X51327447Y-18265509D01*
X51349514Y-18274211D01*
X51458094Y-18317029D01*
X51464396Y-18317785D01*
X51464397Y-18317786D01*
X51474232Y-18318967D01*
X51544146Y-18327363D01*
X51897999Y-18327362D01*
X51984052Y-18317029D01*
X52120995Y-18263026D01*
X52171253Y-18224913D01*
X52209829Y-18207104D01*
X52252317Y-18207104D01*
X52290892Y-18224913D01*
X52341151Y-18263026D01*
X52478094Y-18317029D01*
X52484396Y-18317785D01*
X52484397Y-18317786D01*
X52494232Y-18318967D01*
X52564146Y-18327363D01*
X52917999Y-18327362D01*
X53004052Y-18317029D01*
X53140995Y-18263026D01*
X53220838Y-18202478D01*
X53249101Y-18187527D01*
X53280657Y-18182363D01*
X53763064Y-18182363D01*
X53816985Y-18198336D01*
X53853507Y-18241101D01*
X53860844Y-18296858D01*
X53859749Y-18303768D01*
X53839714Y-18349566D01*
X53799856Y-18379736D01*
X53763453Y-18394815D01*
X53763448Y-18394817D01*
X53757453Y-18397301D01*
X53752309Y-18401247D01*
X53752304Y-18401251D01*
X53667418Y-18466388D01*
X53667415Y-18466390D01*
X53642384Y-18485597D01*
X53642380Y-18485600D01*
X53637235Y-18489549D01*
X53633286Y-18494694D01*
X53633280Y-18494701D01*
X53618022Y-18514585D01*
X53609487Y-18524317D01*
X53488303Y-18645503D01*
X53456185Y-18666964D01*
X53418299Y-18674500D01*
X50431972Y-18674500D01*
X50397375Y-18668258D01*
X50303467Y-18633232D01*
X50303464Y-18633231D01*
X50297667Y-18631069D01*
X50291514Y-18630407D01*
X50291512Y-18630407D01*
X50239194Y-18624782D01*
X50239182Y-18624781D01*
X50236565Y-18624500D01*
X50233918Y-18624500D01*
X48966083Y-18624500D01*
X48966064Y-18624500D01*
X48963436Y-18624501D01*
X48960820Y-18624782D01*
X48960804Y-18624783D01*
X48908493Y-18630406D01*
X48908486Y-18630407D01*
X48902333Y-18631069D01*
X48896530Y-18633233D01*
X48896527Y-18633234D01*
X48770747Y-18680147D01*
X48770740Y-18680150D01*
X48764117Y-18682621D01*
X48758458Y-18686856D01*
X48758451Y-18686861D01*
X48651695Y-18766778D01*
X48651691Y-18766781D01*
X48646024Y-18771024D01*
X48641781Y-18776691D01*
X48641778Y-18776695D01*
X48561861Y-18883451D01*
X48561856Y-18883458D01*
X48557621Y-18889117D01*
X48555150Y-18895740D01*
X48555147Y-18895747D01*
X48508232Y-19021533D01*
X48506069Y-19027333D01*
X48505407Y-19033483D01*
X48505407Y-19033487D01*
X48499782Y-19085805D01*
X48499781Y-19085818D01*
X48499500Y-19088435D01*
X48499500Y-19091080D01*
X48499500Y-19091081D01*
X48499500Y-19408916D01*
X48499500Y-19408934D01*
X48499501Y-19411564D01*
X48499782Y-19414180D01*
X48499783Y-19414195D01*
X48505406Y-19466506D01*
X48505407Y-19466511D01*
X48506069Y-19472667D01*
X48508233Y-19478470D01*
X48508234Y-19478472D01*
X48555147Y-19604252D01*
X48555149Y-19604256D01*
X48557621Y-19610883D01*
X48561858Y-19616544D01*
X48561861Y-19616548D01*
X48596281Y-19662527D01*
X48646024Y-19728976D01*
X48651695Y-19733221D01*
X48758451Y-19813138D01*
X48758453Y-19813139D01*
X48764117Y-19817379D01*
X48902333Y-19868931D01*
X48963435Y-19875500D01*
X50236564Y-19875499D01*
X50297667Y-19868931D01*
X50397374Y-19831742D01*
X50431972Y-19825500D01*
X53653484Y-19825500D01*
X53666405Y-19826346D01*
X53697686Y-19830465D01*
X53735400Y-19825500D01*
X53735406Y-19825500D01*
X53847922Y-19810687D01*
X53985532Y-19753686D01*
X54027303Y-19746227D01*
X54068361Y-19756941D01*
X54124696Y-19785646D01*
X54218481Y-19800500D01*
X55281518Y-19800499D01*
X55375304Y-19785646D01*
X55488342Y-19728050D01*
X55578050Y-19638342D01*
X55635646Y-19525304D01*
X55650500Y-19431519D01*
X55650499Y-18368482D01*
X55635646Y-18274696D01*
X55635211Y-18273842D01*
X55631434Y-18249998D01*
X55635211Y-18226156D01*
X55635646Y-18225304D01*
X55650500Y-18131519D01*
X55650499Y-17068482D01*
X55635646Y-16974696D01*
X55578050Y-16861658D01*
X55488342Y-16771950D01*
X55379555Y-16716520D01*
X55340089Y-16680037D01*
X55325500Y-16628310D01*
X55325500Y-16005186D01*
X55342825Y-15949238D01*
X55388737Y-15912871D01*
X55459278Y-15885543D01*
X55538446Y-15854873D01*
X55707910Y-15749945D01*
X55855209Y-15615664D01*
X55975326Y-15456604D01*
X56064171Y-15278180D01*
X56118717Y-15086469D01*
X56137108Y-14888000D01*
X56118717Y-14689531D01*
X56064171Y-14497820D01*
X55975326Y-14319396D01*
X55969220Y-14311311D01*
X55926470Y-14254700D01*
X55855209Y-14160336D01*
X55723025Y-14039834D01*
X55711291Y-14029137D01*
X55711289Y-14029136D01*
X55707910Y-14026055D01*
X55704021Y-14023647D01*
X55704017Y-14023644D01*
X55600754Y-13959706D01*
X55538446Y-13921127D01*
X55534183Y-13919475D01*
X55534176Y-13919472D01*
X55356855Y-13850777D01*
X55356846Y-13850774D01*
X55352586Y-13849124D01*
X55348082Y-13848282D01*
X55161166Y-13813342D01*
X55161162Y-13813341D01*
X55156660Y-13812500D01*
X54957340Y-13812500D01*
X54952838Y-13813341D01*
X54952833Y-13813342D01*
X54765917Y-13848282D01*
X54765914Y-13848282D01*
X54761414Y-13849124D01*
X54757155Y-13850773D01*
X54757144Y-13850777D01*
X54579823Y-13919472D01*
X54579812Y-13919477D01*
X54575554Y-13921127D01*
X54571660Y-13923537D01*
X54571658Y-13923539D01*
X54409982Y-14023644D01*
X54409973Y-14023650D01*
X54406090Y-14026055D01*
X54402715Y-14029131D01*
X54402708Y-14029137D01*
X54263148Y-14156364D01*
X54258791Y-14160336D01*
X54256040Y-14163978D01*
X54256038Y-14163981D01*
X54141428Y-14315748D01*
X54141426Y-14315752D01*
X54140968Y-14316357D01*
X54140966Y-14316360D01*
X54138674Y-14319396D01*
X54138178Y-14319022D01*
X54105173Y-14350536D01*
X54057000Y-14363047D01*
X54008827Y-14350536D01*
X53975821Y-14319022D01*
X53975326Y-14319396D01*
X53855209Y-14160336D01*
X53723025Y-14039834D01*
X53711291Y-14029137D01*
X53711289Y-14029136D01*
X53707910Y-14026055D01*
X53704021Y-14023647D01*
X53704017Y-14023644D01*
X53600754Y-13959706D01*
X53538446Y-13921127D01*
X53534183Y-13919475D01*
X53534176Y-13919472D01*
X53356855Y-13850777D01*
X53356846Y-13850774D01*
X53352586Y-13849124D01*
X53348082Y-13848282D01*
X53161166Y-13813342D01*
X53161162Y-13813341D01*
X53156660Y-13812500D01*
X52957340Y-13812500D01*
X52952838Y-13813341D01*
X52952833Y-13813342D01*
X52765917Y-13848282D01*
X52765914Y-13848282D01*
X52761414Y-13849124D01*
X52757155Y-13850773D01*
X52757144Y-13850777D01*
X52579823Y-13919472D01*
X52579812Y-13919477D01*
X52575554Y-13921127D01*
X52571660Y-13923537D01*
X52571658Y-13923539D01*
X52409982Y-14023644D01*
X52409973Y-14023650D01*
X52406090Y-14026055D01*
X52402715Y-14029131D01*
X52402708Y-14029137D01*
X52263148Y-14156364D01*
X52258791Y-14160336D01*
X52256040Y-14163978D01*
X52256038Y-14163981D01*
X52141428Y-14315748D01*
X52141426Y-14315752D01*
X52140968Y-14316357D01*
X52140966Y-14316360D01*
X52138674Y-14319396D01*
X52138178Y-14319022D01*
X52105173Y-14350536D01*
X52057000Y-14363047D01*
X52008827Y-14350536D01*
X51975821Y-14319022D01*
X51975326Y-14319396D01*
X51855209Y-14160336D01*
X51723025Y-14039834D01*
X51711291Y-14029137D01*
X51711289Y-14029136D01*
X51707910Y-14026055D01*
X51704021Y-14023647D01*
X51704017Y-14023644D01*
X51600754Y-13959706D01*
X51538446Y-13921127D01*
X51534183Y-13919475D01*
X51534176Y-13919472D01*
X51356855Y-13850777D01*
X51356846Y-13850774D01*
X51352586Y-13849124D01*
X51348082Y-13848282D01*
X51161166Y-13813342D01*
X51161162Y-13813341D01*
X51156660Y-13812500D01*
X50957340Y-13812500D01*
X50952838Y-13813341D01*
X50952833Y-13813342D01*
X50765917Y-13848282D01*
X50765914Y-13848282D01*
X50761414Y-13849124D01*
X50757155Y-13850773D01*
X50757144Y-13850777D01*
X50579823Y-13919472D01*
X50579812Y-13919477D01*
X50575554Y-13921127D01*
X50571660Y-13923537D01*
X50571658Y-13923539D01*
X50409982Y-14023644D01*
X50409973Y-14023650D01*
X50406090Y-14026055D01*
X50402715Y-14029131D01*
X50402708Y-14029137D01*
X50263148Y-14156364D01*
X50258791Y-14160336D01*
X50256040Y-14163978D01*
X50256038Y-14163981D01*
X50141428Y-14315748D01*
X50141426Y-14315752D01*
X50140968Y-14316357D01*
X50140966Y-14316360D01*
X50138674Y-14319396D01*
X50138178Y-14319022D01*
X50105173Y-14350536D01*
X50057000Y-14363047D01*
X50008827Y-14350536D01*
X49975821Y-14319022D01*
X49975326Y-14319396D01*
X49855209Y-14160336D01*
X49723025Y-14039834D01*
X49711291Y-14029137D01*
X49711289Y-14029136D01*
X49707910Y-14026055D01*
X49704021Y-14023647D01*
X49704017Y-14023644D01*
X49600754Y-13959706D01*
X49538446Y-13921127D01*
X49534183Y-13919475D01*
X49534176Y-13919472D01*
X49356855Y-13850777D01*
X49356846Y-13850774D01*
X49352586Y-13849124D01*
X49348082Y-13848282D01*
X49161166Y-13813342D01*
X49161162Y-13813341D01*
X49156660Y-13812500D01*
X48957340Y-13812500D01*
X48952838Y-13813341D01*
X48952833Y-13813342D01*
X48765917Y-13848282D01*
X48765914Y-13848282D01*
X48761414Y-13849124D01*
X48757155Y-13850773D01*
X48757144Y-13850777D01*
X48579823Y-13919472D01*
X48579812Y-13919477D01*
X48575554Y-13921127D01*
X48571660Y-13923537D01*
X48571658Y-13923539D01*
X48409982Y-14023644D01*
X48409973Y-14023650D01*
X48406090Y-14026055D01*
X48402715Y-14029131D01*
X48402708Y-14029137D01*
X48263148Y-14156364D01*
X48258791Y-14160336D01*
X48256040Y-14163978D01*
X48256038Y-14163981D01*
X48141425Y-14315752D01*
X48141421Y-14315758D01*
X48140434Y-14317064D01*
X48140431Y-14317068D01*
X48138674Y-14319396D01*
X48138294Y-14319109D01*
X48104870Y-14351017D01*
X48056697Y-14363524D01*
X48008526Y-14351010D01*
X47975343Y-14319325D01*
X47974899Y-14319661D01*
X47972838Y-14316933D01*
X47972531Y-14316639D01*
X47972140Y-14316007D01*
X47857590Y-14164320D01*
X47851461Y-14157597D01*
X47710988Y-14029539D01*
X47703714Y-14024046D01*
X47542116Y-13923988D01*
X47533951Y-13919922D01*
X47356717Y-13851261D01*
X47347944Y-13848766D01*
X47325338Y-13844540D01*
X47314224Y-13845742D01*
X47311000Y-13856446D01*
X47311000Y-15919554D01*
X46803000Y-15919554D01*
X46803000Y-13856446D01*
X46799775Y-13845742D01*
X46788661Y-13844540D01*
X46766055Y-13848766D01*
X46757282Y-13851261D01*
X46580048Y-13919922D01*
X46571883Y-13923988D01*
X46410285Y-14024046D01*
X46403005Y-14029544D01*
X46280711Y-14141029D01*
X46237571Y-14164024D01*
X46188686Y-14163572D01*
X46145978Y-14139783D01*
X46119861Y-14098457D01*
X46118864Y-14095390D01*
X46117646Y-14087696D01*
X46060050Y-13974658D01*
X45970342Y-13884950D01*
X45857304Y-13827354D01*
X45849610Y-13826135D01*
X45849609Y-13826135D01*
X45767365Y-13813109D01*
X45767363Y-13813108D01*
X45763519Y-13812500D01*
X45759625Y-13812500D01*
X44354376Y-13812500D01*
X44354363Y-13812500D01*
X44350482Y-13812501D01*
X44346640Y-13813109D01*
X44346633Y-13813110D01*
X44264389Y-13826135D01*
X44264385Y-13826136D01*
X44256696Y-13827354D01*
X44249760Y-13830887D01*
X44249757Y-13830889D01*
X44150597Y-13881414D01*
X44150595Y-13881415D01*
X44143658Y-13884950D01*
X44138154Y-13890453D01*
X44138151Y-13890456D01*
X44059456Y-13969151D01*
X44059453Y-13969154D01*
X44053950Y-13974658D01*
X44050415Y-13981595D01*
X44050414Y-13981597D01*
X43999890Y-14080755D01*
X43999888Y-14080758D01*
X43996354Y-14087696D01*
X43995135Y-14095387D01*
X43995135Y-14095390D01*
X43984265Y-14164024D01*
X43981500Y-14181481D01*
X43981500Y-14185373D01*
X43981500Y-14185374D01*
X43981500Y-15590623D01*
X43981500Y-15590635D01*
X41274409Y-15590635D01*
X41270410Y-15586862D01*
X41270405Y-15586858D01*
X41266218Y-15582908D01*
X41261228Y-15580027D01*
X41119273Y-15498070D01*
X41119272Y-15498069D01*
X41114281Y-15495188D01*
X41108758Y-15493534D01*
X41108757Y-15493534D01*
X40951733Y-15446523D01*
X40951728Y-15446522D01*
X40946210Y-15444870D01*
X40940461Y-15444535D01*
X40940455Y-15444534D01*
X40776814Y-15435003D01*
X40776806Y-15435003D01*
X40771065Y-15434669D01*
X40765395Y-15435668D01*
X40765391Y-15435669D01*
X40603961Y-15464134D01*
X40603954Y-15464136D01*
X40598289Y-15465135D01*
X40593008Y-15467412D01*
X40593001Y-15467415D01*
X40442484Y-15532341D01*
X40442477Y-15532344D01*
X40437196Y-15534623D01*
X40432579Y-15538059D01*
X40432574Y-15538063D01*
X40301095Y-15635946D01*
X40301090Y-15635949D01*
X40296470Y-15639390D01*
X40292766Y-15643804D01*
X40292762Y-15643808D01*
X40187404Y-15769369D01*
X40183698Y-15773786D01*
X40181113Y-15778932D01*
X40181111Y-15778936D01*
X40107548Y-15925412D01*
X40107545Y-15925418D01*
X40104960Y-15930567D01*
X40103629Y-15936180D01*
X40103629Y-15936182D01*
X40065829Y-16095668D01*
X40065828Y-16095675D01*
X40064500Y-16101279D01*
X40064500Y-17676709D01*
X40064833Y-17679563D01*
X40064834Y-17679570D01*
X40077633Y-17789067D01*
X40079759Y-17807255D01*
X40081730Y-17812671D01*
X40081731Y-17812674D01*
X40100138Y-17863248D01*
X40139763Y-17972117D01*
X40236170Y-18118696D01*
X40240361Y-18122650D01*
X40359589Y-18235137D01*
X40359593Y-18235140D01*
X40363782Y-18239092D01*
X40515719Y-18326812D01*
X40683790Y-18377130D01*
X40709152Y-18378607D01*
X40751224Y-18390759D01*
X40783938Y-18419872D01*
X40800893Y-18460248D01*
X40821134Y-18575038D01*
X40821135Y-18575043D01*
X40822135Y-18580711D01*
X40824413Y-18585993D01*
X40824415Y-18585998D01*
X40889341Y-18736515D01*
X40889343Y-18736518D01*
X40891623Y-18741804D01*
X40895062Y-18746423D01*
X40895063Y-18746425D01*
X40992946Y-18877904D01*
X40996390Y-18882530D01*
X41000808Y-18886237D01*
X41042588Y-18921295D01*
X41072621Y-18965083D01*
X41075708Y-19018092D01*
X41050962Y-19065071D01*
X40943863Y-19178589D01*
X40943859Y-19178593D01*
X40939908Y-19182782D01*
X40937029Y-19187767D01*
X40937027Y-19187771D01*
X40855070Y-19329726D01*
X40855067Y-19329730D01*
X40852188Y-19334719D01*
X40850535Y-19340238D01*
X40850534Y-19340242D01*
X40803523Y-19497266D01*
X40803521Y-19497272D01*
X40801870Y-19502790D01*
X40801535Y-19508536D01*
X40801534Y-19508544D01*
X40792003Y-19672185D01*
X40792003Y-19672192D01*
X40791669Y-19677935D01*
X40792668Y-19683605D01*
X40792669Y-19683608D01*
X40821134Y-19845038D01*
X40821135Y-19845043D01*
X40822135Y-19850711D01*
X40824413Y-19855993D01*
X40824415Y-19855998D01*
X40889341Y-20006515D01*
X40889343Y-20006518D01*
X40891623Y-20011804D01*
X40895062Y-20016423D01*
X40895063Y-20016425D01*
X40968081Y-20114505D01*
X40996390Y-20152530D01*
X41000808Y-20156237D01*
X41042588Y-20191295D01*
X41072621Y-20235083D01*
X41075708Y-20288092D01*
X41050962Y-20335071D01*
X40943863Y-20448589D01*
X40943859Y-20448593D01*
X40939908Y-20452782D01*
X40937029Y-20457768D01*
X40937022Y-20457778D01*
X40895833Y-20529120D01*
X40851001Y-20569774D01*
X40790883Y-20576738D01*
X40747163Y-20552515D01*
X40745594Y-20554413D01*
X40711037Y-20525825D01*
X40704138Y-20519548D01*
X39273430Y-19088839D01*
X39267153Y-19081940D01*
X39264623Y-19078882D01*
X39261286Y-19073623D01*
X39211993Y-19027333D01*
X39209779Y-19025188D01*
X39192168Y-19007577D01*
X39192168Y-19007576D01*
X39189971Y-19005380D01*
X39185860Y-19002191D01*
X39178784Y-18996147D01*
X39146082Y-18965438D01*
X39137467Y-18960702D01*
X39126801Y-18954838D01*
X39113824Y-18946314D01*
X39096436Y-18932827D01*
X39090721Y-18930353D01*
X39090718Y-18930352D01*
X39055272Y-18915013D01*
X39046898Y-18910911D01*
X39013050Y-18892303D01*
X39013046Y-18892301D01*
X39007592Y-18889303D01*
X39001563Y-18887755D01*
X39001558Y-18887753D01*
X38986281Y-18883831D01*
X38971588Y-18878800D01*
X38951396Y-18870062D01*
X38945248Y-18869088D01*
X38945244Y-18869087D01*
X38907090Y-18863044D01*
X38897959Y-18861153D01*
X38860549Y-18851548D01*
X38860547Y-18851547D01*
X38854519Y-18850000D01*
X38848293Y-18850000D01*
X38832517Y-18850000D01*
X38817030Y-18848781D01*
X38801455Y-18846314D01*
X38801453Y-18846313D01*
X38795304Y-18845340D01*
X38789112Y-18845925D01*
X38789105Y-18845925D01*
X38750651Y-18849561D01*
X38741334Y-18850000D01*
X38643868Y-18850000D01*
X38591197Y-18834826D01*
X38554672Y-18793954D01*
X38545491Y-18739915D01*
X38554943Y-18656028D01*
X38554943Y-18656020D01*
X38555565Y-18650500D01*
X38535368Y-18471245D01*
X38525332Y-18442566D01*
X38521098Y-18393760D01*
X38540783Y-18348898D01*
X38579566Y-18318968D01*
X38652804Y-18287377D01*
X38793530Y-18182610D01*
X38906302Y-18048214D01*
X38985040Y-17891433D01*
X39025500Y-17720721D01*
X39025500Y-16145291D01*
X39010241Y-16014745D01*
X38950237Y-15849883D01*
X38853830Y-15703304D01*
X38826469Y-15677490D01*
X38730410Y-15586862D01*
X38730405Y-15586858D01*
X38726218Y-15582908D01*
X38721228Y-15580027D01*
X38579273Y-15498070D01*
X38579272Y-15498069D01*
X38574281Y-15495188D01*
X38568758Y-15493534D01*
X38568757Y-15493534D01*
X38411733Y-15446523D01*
X38411728Y-15446522D01*
X38406210Y-15444870D01*
X38400456Y-15444534D01*
X38400446Y-15444533D01*
X38356064Y-15441948D01*
X38306041Y-15424906D01*
X38271912Y-15384557D01*
X38263403Y-15332400D01*
X38282938Y-15283296D01*
X38346163Y-15199922D01*
X38400166Y-15062979D01*
X38410500Y-14976927D01*
X38410499Y-14523074D01*
X38400166Y-14437021D01*
X38355396Y-14323492D01*
X38348646Y-14306374D01*
X38348645Y-14306372D01*
X38346163Y-14300078D01*
X38257216Y-14182784D01*
X38139922Y-14093837D01*
X38133629Y-14091355D01*
X38133625Y-14091353D01*
X38008885Y-14042163D01*
X38008884Y-14042162D01*
X38002979Y-14039834D01*
X37996682Y-14039077D01*
X37996675Y-14039076D01*
X37919855Y-14029851D01*
X37919844Y-14029850D01*
X37916927Y-14029500D01*
X37913975Y-14029500D01*
X37566026Y-14029500D01*
X37566009Y-14029500D01*
X37563074Y-14029501D01*
X37560158Y-14029851D01*
X37560143Y-14029852D01*
X37483323Y-14039077D01*
X37483320Y-14039077D01*
X37477021Y-14039834D01*
X37471122Y-14042160D01*
X37471115Y-14042162D01*
X37346374Y-14091353D01*
X37346366Y-14091356D01*
X37340078Y-14093837D01*
X37334686Y-14097925D01*
X37334684Y-14097927D01*
X37228183Y-14178689D01*
X37228179Y-14178692D01*
X37222784Y-14182784D01*
X37218692Y-14188179D01*
X37218689Y-14188183D01*
X37154269Y-14273134D01*
X37133837Y-14300078D01*
X37131356Y-14306366D01*
X37131353Y-14306374D01*
X37082163Y-14431114D01*
X37079834Y-14437021D01*
X37079078Y-14443315D01*
X37079076Y-14443324D01*
X37069851Y-14520144D01*
X37069850Y-14520156D01*
X37069500Y-14523073D01*
X37069500Y-14526025D01*
X37069500Y-14600966D01*
X37061964Y-14638852D01*
X37040503Y-14670970D01*
X36623568Y-15087904D01*
X36621140Y-15090251D01*
X36578903Y-15129698D01*
X36578897Y-15129705D01*
X36573956Y-15134320D01*
X36570442Y-15140097D01*
X36570438Y-15140103D01*
X36551942Y-15170518D01*
X36546242Y-15178892D01*
X36524730Y-15207261D01*
X36524725Y-15207268D01*
X36520639Y-15212658D01*
X36518157Y-15218952D01*
X36513269Y-15231345D01*
X36505766Y-15246450D01*
X36498846Y-15257830D01*
X36498842Y-15257838D01*
X36495328Y-15263618D01*
X36493502Y-15270132D01*
X36493502Y-15270134D01*
X36483894Y-15304422D01*
X36480665Y-15314022D01*
X36467607Y-15347136D01*
X36467605Y-15347144D01*
X36465124Y-15353436D01*
X36464432Y-15360161D01*
X36464429Y-15360175D01*
X36463068Y-15373416D01*
X36459918Y-15389992D01*
X36456326Y-15402813D01*
X36456324Y-15402820D01*
X36454500Y-15409335D01*
X36454500Y-15416104D01*
X36454500Y-15451700D01*
X36453981Y-15461824D01*
X36450489Y-15495795D01*
X36449648Y-15503972D01*
X36450797Y-15510640D01*
X36450798Y-15510646D01*
X36453060Y-15523761D01*
X36454500Y-15540582D01*
X36454500Y-15606511D01*
X36438213Y-15660912D01*
X36394712Y-15697414D01*
X36338309Y-15704007D01*
X36287562Y-15678521D01*
X36190410Y-15586863D01*
X36190409Y-15586862D01*
X36186218Y-15582908D01*
X36181228Y-15580027D01*
X36039273Y-15498070D01*
X36039272Y-15498069D01*
X36034281Y-15495188D01*
X36028758Y-15493534D01*
X36028757Y-15493534D01*
X35871733Y-15446523D01*
X35871728Y-15446522D01*
X35866210Y-15444870D01*
X35860461Y-15444535D01*
X35860455Y-15444534D01*
X35696814Y-15435003D01*
X35696806Y-15435003D01*
X35691065Y-15434669D01*
X35685395Y-15435668D01*
X35685391Y-15435669D01*
X35523961Y-15464134D01*
X35523954Y-15464136D01*
X35518289Y-15465135D01*
X35513008Y-15467412D01*
X35513001Y-15467415D01*
X35362484Y-15532341D01*
X35362477Y-15532344D01*
X35357196Y-15534623D01*
X35352579Y-15538059D01*
X35352574Y-15538063D01*
X35221095Y-15635946D01*
X35221090Y-15635949D01*
X35216470Y-15639390D01*
X35212765Y-15643804D01*
X35212761Y-15643809D01*
X35177703Y-15685589D01*
X35133915Y-15715621D01*
X35080907Y-15718708D01*
X35033928Y-15693962D01*
X34920410Y-15586862D01*
X34920405Y-15586858D01*
X34916218Y-15582908D01*
X34911228Y-15580027D01*
X34769273Y-15498070D01*
X34769272Y-15498069D01*
X34764281Y-15495188D01*
X34758758Y-15493534D01*
X34758757Y-15493534D01*
X34601733Y-15446523D01*
X34601728Y-15446522D01*
X34596210Y-15444870D01*
X34590461Y-15444535D01*
X34590455Y-15444534D01*
X34426814Y-15435003D01*
X34426806Y-15435003D01*
X34421065Y-15434669D01*
X34415395Y-15435668D01*
X34415391Y-15435669D01*
X34253961Y-15464134D01*
X34253954Y-15464136D01*
X34248289Y-15465135D01*
X34243008Y-15467412D01*
X34243001Y-15467415D01*
X34092484Y-15532341D01*
X34092477Y-15532344D01*
X34087196Y-15534623D01*
X34082579Y-15538059D01*
X34082574Y-15538063D01*
X34003619Y-15596844D01*
X33953129Y-15616057D01*
X33900069Y-15605904D01*
X33860239Y-15569407D01*
X33845500Y-15517434D01*
X33845500Y-15191637D01*
X33852403Y-15155318D01*
X33890070Y-15059803D01*
X33900500Y-14972949D01*
X33900500Y-14548309D01*
X33890070Y-14461455D01*
X33835562Y-14323234D01*
X33745785Y-14204844D01*
X33702118Y-14171731D01*
X33659988Y-14139783D01*
X33627395Y-14115067D01*
X33621097Y-14112583D01*
X33621093Y-14112581D01*
X33495080Y-14062888D01*
X33495079Y-14062887D01*
X33489174Y-14060559D01*
X33482873Y-14059802D01*
X33482872Y-14059802D01*
X33405248Y-14050480D01*
X33405237Y-14050479D01*
X33402320Y-14050129D01*
X33037680Y-14050129D01*
X33034763Y-14050479D01*
X33034751Y-14050480D01*
X32957127Y-14059802D01*
X32957124Y-14059802D01*
X32950826Y-14060559D01*
X32944922Y-14062887D01*
X32944919Y-14062888D01*
X32899613Y-14080755D01*
X32882013Y-14087696D01*
X32878970Y-14088896D01*
X32842651Y-14095799D01*
X27535687Y-14095799D01*
X27526371Y-14095360D01*
X27521483Y-14094897D01*
X27515404Y-14093539D01*
X27509181Y-14093734D01*
X27509175Y-14093734D01*
X27445056Y-14095750D01*
X27441946Y-14095799D01*
X27412776Y-14095799D01*
X27409703Y-14096187D01*
X27409688Y-14096188D01*
X27407214Y-14096501D01*
X27397935Y-14097230D01*
X27357352Y-14098506D01*
X27357348Y-14098506D01*
X27351131Y-14098702D01*
X27345158Y-14100436D01*
X27345152Y-14100438D01*
X27328855Y-14105172D01*
X27313655Y-14108320D01*
X27296818Y-14110447D01*
X27296812Y-14110448D01*
X27290643Y-14111228D01*
X27284857Y-14113518D01*
X27284856Y-14113519D01*
X27247103Y-14128466D01*
X27238283Y-14131485D01*
X27199283Y-14142816D01*
X27199273Y-14142819D01*
X27193302Y-14144555D01*
X27187946Y-14147721D01*
X27187942Y-14147724D01*
X27173331Y-14156364D01*
X27159392Y-14163193D01*
X27143621Y-14169438D01*
X27137830Y-14171731D01*
X27132794Y-14175389D01*
X27132786Y-14175394D01*
X27099945Y-14199253D01*
X27092157Y-14204369D01*
X27057200Y-14225044D01*
X27057191Y-14225050D01*
X27051836Y-14228218D01*
X27047437Y-14232616D01*
X27047429Y-14232623D01*
X27035433Y-14244619D01*
X27023629Y-14254700D01*
X27009906Y-14264671D01*
X27009898Y-14264678D01*
X27004864Y-14268336D01*
X27000900Y-14273127D01*
X27000893Y-14273134D01*
X26975015Y-14304415D01*
X26968740Y-14311311D01*
X26159550Y-15120503D01*
X26127432Y-15141964D01*
X26089546Y-15149500D01*
X24797866Y-15149500D01*
X24745195Y-15134326D01*
X24676033Y-15090869D01*
X24649522Y-15074211D01*
X24644271Y-15072373D01*
X24644270Y-15072373D01*
X24484503Y-15016468D01*
X24484500Y-15016467D01*
X24479255Y-15014632D01*
X24473738Y-15014010D01*
X24473732Y-15014009D01*
X24305520Y-14995057D01*
X24300000Y-14994435D01*
X24294480Y-14995057D01*
X24126267Y-15014009D01*
X24126259Y-15014010D01*
X24120745Y-15014632D01*
X24115501Y-15016466D01*
X24115496Y-15016468D01*
X23955726Y-15072374D01*
X23955721Y-15072376D01*
X23950478Y-15074211D01*
X23945770Y-15077168D01*
X23940762Y-15079581D01*
X23939705Y-15077388D01*
X23897560Y-15089541D01*
X22317292Y-15089541D01*
X22266897Y-15075755D01*
X22205752Y-15039594D01*
X22205751Y-15039593D01*
X22200390Y-15036423D01*
X22048627Y-14992332D01*
X22043586Y-14991935D01*
X22043585Y-14991935D01*
X22015104Y-14989693D01*
X22015084Y-14989692D01*
X22013163Y-14989541D01*
X22011213Y-14989541D01*
X21388789Y-14989541D01*
X21388763Y-14989541D01*
X21386838Y-14989542D01*
X21384895Y-14989694D01*
X21384891Y-14989695D01*
X21356413Y-14991935D01*
X21356408Y-14991935D01*
X21351373Y-14992332D01*
X21346524Y-14993740D01*
X21346517Y-14993742D01*
X21205591Y-15034685D01*
X21205588Y-15034686D01*
X21199610Y-15036423D01*
X21133171Y-15075714D01*
X21082779Y-15089500D01*
X19093163Y-15089500D01*
X19067327Y-15089500D01*
X19052979Y-15088455D01*
X19033121Y-15085546D01*
X19033119Y-15085545D01*
X19027419Y-15084711D01*
X19021679Y-15085213D01*
X19021675Y-15085213D01*
X18976987Y-15089123D01*
X18968359Y-15089500D01*
X15888843Y-15089500D01*
X15850957Y-15081964D01*
X15818839Y-15060504D01*
X15726810Y-14968475D01*
X15726809Y-14968474D01*
X15722739Y-14964404D01*
X15717839Y-14961381D01*
X15717837Y-14961380D01*
X15585779Y-14879926D01*
X15580878Y-14876903D01*
X15575414Y-14875092D01*
X15575409Y-14875090D01*
X15427795Y-14826176D01*
X15427790Y-14826174D01*
X15422663Y-14824476D01*
X15417284Y-14823926D01*
X15417282Y-14823926D01*
X15327533Y-14814757D01*
X15327524Y-14814756D01*
X15325013Y-14814500D01*
X15322482Y-14814500D01*
X13357519Y-14814500D01*
X13357499Y-14814500D01*
X13354988Y-14814501D01*
X13352480Y-14814757D01*
X13352464Y-14814758D01*
X13262716Y-14823926D01*
X13262711Y-14823927D01*
X13257337Y-14824476D01*
X13252216Y-14826172D01*
X13252206Y-14826175D01*
X13104594Y-14875089D01*
X13104588Y-14875091D01*
X13099122Y-14876903D01*
X13094217Y-14879928D01*
X13091338Y-14881271D01*
X13043024Y-14890334D01*
X12996307Y-14875041D01*
X12962704Y-14839164D01*
X12950500Y-14791546D01*
X12950500Y-13169500D01*
X12963763Y-13120000D01*
X13000000Y-13083763D01*
X13049500Y-13070500D01*
X56850500Y-13070500D01*
X56900000Y-13083763D01*
G37*
G04 #@! TD.AperFunction*
G04 #@! TA.AperFunction,Conductor*
G36*
X28255559Y-19347379D02*
G01*
X28295542Y-19383470D01*
X28370184Y-19502262D01*
X28497738Y-19629816D01*
X28650478Y-19725789D01*
X28820745Y-19785368D01*
X29000000Y-19805565D01*
X29179255Y-19785368D01*
X29349522Y-19725789D01*
X29386092Y-19702810D01*
X29440986Y-19687660D01*
X29495144Y-19705257D01*
X29530648Y-19749778D01*
X29535753Y-19806493D01*
X29508769Y-19856639D01*
X28363337Y-21002070D01*
X28356442Y-21008344D01*
X28353378Y-21010878D01*
X28348123Y-21014214D01*
X28343864Y-21018749D01*
X28343857Y-21018755D01*
X28301835Y-21063503D01*
X28299676Y-21065731D01*
X28282077Y-21083331D01*
X28282070Y-21083338D01*
X28279880Y-21085529D01*
X28277981Y-21087976D01*
X28277970Y-21087989D01*
X28276684Y-21089647D01*
X28270646Y-21096715D01*
X28244812Y-21124227D01*
X28239938Y-21129418D01*
X28236940Y-21134871D01*
X28236935Y-21134878D01*
X28229335Y-21148702D01*
X28220811Y-21161678D01*
X28211145Y-21174140D01*
X28211140Y-21174147D01*
X28207327Y-21179064D01*
X28204855Y-21184775D01*
X28204855Y-21184776D01*
X28189511Y-21220232D01*
X28185410Y-21228603D01*
X28163803Y-21267908D01*
X28162255Y-21273934D01*
X28162255Y-21273936D01*
X28158333Y-21289212D01*
X28153303Y-21303902D01*
X28147036Y-21318383D01*
X28147032Y-21318394D01*
X28144562Y-21324104D01*
X28143588Y-21330247D01*
X28143587Y-21330254D01*
X28137543Y-21368412D01*
X28135653Y-21377539D01*
X28126047Y-21414953D01*
X28126046Y-21414957D01*
X28124500Y-21420981D01*
X28124500Y-21427207D01*
X28124500Y-21442983D01*
X28123281Y-21458470D01*
X28122002Y-21466548D01*
X28119840Y-21480196D01*
X28120425Y-21486386D01*
X28120425Y-21486394D01*
X28124061Y-21524849D01*
X28124500Y-21534166D01*
X28124500Y-21613114D01*
X28105762Y-21671071D01*
X28056641Y-21707089D01*
X27995731Y-21707532D01*
X27946091Y-21672234D01*
X27937055Y-21660097D01*
X27937053Y-21660095D01*
X27933610Y-21655470D01*
X27799214Y-21542698D01*
X27784487Y-21535302D01*
X27647587Y-21466548D01*
X27647583Y-21466546D01*
X27642433Y-21463960D01*
X27599920Y-21453884D01*
X27477331Y-21424829D01*
X27477325Y-21424828D01*
X27471721Y-21423500D01*
X25896291Y-21423500D01*
X25893437Y-21423833D01*
X25893429Y-21423834D01*
X25771473Y-21438089D01*
X25771469Y-21438089D01*
X25765745Y-21438759D01*
X25760330Y-21440729D01*
X25760325Y-21440731D01*
X25621896Y-21491115D01*
X25600883Y-21498763D01*
X25596067Y-21501930D01*
X25596064Y-21501932D01*
X25459118Y-21592003D01*
X25459113Y-21592006D01*
X25454304Y-21595170D01*
X25450353Y-21599357D01*
X25450349Y-21599361D01*
X25409709Y-21642438D01*
X25376911Y-21665403D01*
X25337699Y-21673500D01*
X24390454Y-21673500D01*
X24369410Y-21671237D01*
X24369266Y-21671205D01*
X24368994Y-21671146D01*
X24368989Y-21671145D01*
X24362073Y-21669641D01*
X24355010Y-21670146D01*
X24355008Y-21670146D01*
X24311644Y-21673248D01*
X24304581Y-21673500D01*
X24290201Y-21673500D01*
X24286715Y-21674001D01*
X24286702Y-21674002D01*
X24275959Y-21675547D01*
X24268938Y-21676302D01*
X24225575Y-21679404D01*
X24225574Y-21679404D01*
X24218517Y-21679909D01*
X24211891Y-21682379D01*
X24211877Y-21682383D01*
X24211466Y-21682537D01*
X24190989Y-21687763D01*
X24190555Y-21687825D01*
X24190544Y-21687828D01*
X24183543Y-21688835D01*
X24177110Y-21691772D01*
X24177102Y-21691775D01*
X24137565Y-21709831D01*
X24131040Y-21712534D01*
X24090304Y-21727728D01*
X24090296Y-21727731D01*
X24083669Y-21730204D01*
X24078004Y-21734444D01*
X24077999Y-21734447D01*
X24077646Y-21734712D01*
X24059461Y-21745501D01*
X24059070Y-21745679D01*
X24059063Y-21745683D01*
X24052627Y-21748623D01*
X24047278Y-21753257D01*
X24047276Y-21753259D01*
X24014432Y-21781718D01*
X24008934Y-21786149D01*
X24000239Y-21792657D01*
X24000223Y-21792670D01*
X23997407Y-21794779D01*
X23994915Y-21797270D01*
X23994902Y-21797282D01*
X23987231Y-21804953D01*
X23982067Y-21809761D01*
X23949208Y-21838234D01*
X23949203Y-21838239D01*
X23943857Y-21842872D01*
X23940030Y-21848825D01*
X23940024Y-21848833D01*
X23939790Y-21849198D01*
X23926518Y-21865666D01*
X23639503Y-22152681D01*
X23588813Y-22179775D01*
X23531613Y-22174141D01*
X23487184Y-22137678D01*
X23470499Y-22082679D01*
X23470499Y-21813074D01*
X23460166Y-21727021D01*
X23446267Y-21691775D01*
X23408646Y-21596374D01*
X23408645Y-21596372D01*
X23406163Y-21590078D01*
X23317216Y-21472784D01*
X23311816Y-21468689D01*
X23311813Y-21468686D01*
X23292293Y-21453884D01*
X23257750Y-21404950D01*
X23257750Y-21345051D01*
X23292292Y-21296116D01*
X23301397Y-21289212D01*
X23312733Y-21280615D01*
X23340996Y-21265664D01*
X23372551Y-21260500D01*
X23675546Y-21260500D01*
X23696589Y-21262762D01*
X23703927Y-21264359D01*
X23754355Y-21260752D01*
X23761419Y-21260500D01*
X23772259Y-21260500D01*
X23775799Y-21260500D01*
X23790049Y-21258450D01*
X23797043Y-21257698D01*
X23847483Y-21254091D01*
X23854511Y-21251469D01*
X23875024Y-21246233D01*
X23882457Y-21245165D01*
X23928437Y-21224165D01*
X23934962Y-21221462D01*
X23982331Y-21203796D01*
X23988342Y-21199295D01*
X24006546Y-21188494D01*
X24013373Y-21185377D01*
X24051599Y-21152252D01*
X24057042Y-21147866D01*
X24068593Y-21139221D01*
X24078767Y-21129045D01*
X24083923Y-21124243D01*
X24122143Y-21091128D01*
X24126198Y-21084817D01*
X24139478Y-21068334D01*
X24808331Y-20399480D01*
X24824819Y-20386197D01*
X24831128Y-20382143D01*
X24864237Y-20343931D01*
X24869055Y-20338757D01*
X24872741Y-20335071D01*
X24879220Y-20328593D01*
X24887846Y-20317068D01*
X24892264Y-20311586D01*
X24925377Y-20273373D01*
X24928494Y-20266546D01*
X24939297Y-20248340D01*
X24943796Y-20242331D01*
X24961462Y-20194962D01*
X24964167Y-20188434D01*
X24985165Y-20142457D01*
X24986233Y-20135024D01*
X24991469Y-20114511D01*
X24994091Y-20107483D01*
X24997698Y-20057043D01*
X24998450Y-20050049D01*
X25000500Y-20035799D01*
X25000500Y-20021419D01*
X25000752Y-20014356D01*
X25003854Y-19970990D01*
X25003853Y-19970988D01*
X25004359Y-19963927D01*
X25002762Y-19956589D01*
X25000500Y-19935546D01*
X25000500Y-19759364D01*
X25017425Y-19704004D01*
X25062414Y-19667573D01*
X25120083Y-19662527D01*
X25170714Y-19690592D01*
X25196996Y-19742172D01*
X25215134Y-19845038D01*
X25215135Y-19845043D01*
X25216135Y-19850711D01*
X25218413Y-19855993D01*
X25218415Y-19855998D01*
X25283341Y-20006515D01*
X25283343Y-20006518D01*
X25285623Y-20011804D01*
X25289062Y-20016423D01*
X25289063Y-20016425D01*
X25362081Y-20114505D01*
X25390390Y-20152530D01*
X25524786Y-20265302D01*
X25681567Y-20344040D01*
X25852279Y-20384500D01*
X27424825Y-20384500D01*
X27427709Y-20384500D01*
X27558255Y-20369241D01*
X27723117Y-20309237D01*
X27869696Y-20212830D01*
X27990092Y-20085218D01*
X28077812Y-19933281D01*
X28128130Y-19765210D01*
X28138331Y-19590065D01*
X28114220Y-19453334D01*
X28119651Y-19399744D01*
X28152334Y-19356929D01*
X28202597Y-19337563D01*
X28255559Y-19347379D01*
G37*
G04 #@! TD.AperFunction*
M02*
